<?xml version="1.0" standalone="no"?><!DOCTYPE svg PUBLIC "-//W3C//DTD SVG 1.1//EN" "http://www.w3.org/Graphics/SVG/1.1/DTD/svg11.dtd" ><svg version="1.1" xmlns="http://www.w3.org/2000/svg"><defs><font horiz-adv-x="0" id="font"><font-face ascent="832" bbox="-197 -258 1310 997" cap-height="678" descent="-168" font-family="Gustan Medium" font-stretch="normal" font-style="normal" font-weight="600" units-per-em="1000" x-height="510" /><missing-glyph d="M800 115V665L525 390ZM160 665V115L435 390ZM480 435 759 714H201ZM201 66H759L480 345ZM90 780H870V0H90Z" horiz-adv-x="960" /><glyph d="M318 577Q309 548 300 517.5Q291 487 278 447L211 250H427L360 447Q347 487 338 517.5Q329 548 320 577ZM180 162 126 0H10L252 678H388L631 0H512L457 162Z" glyph-name="A" horiz-adv-x="641" unicode="A" /><glyph d="M248 250H486V584H483Q475 571 462.5 552Q450 533 436.5 513Q423 493 409.5 473Q396 453 384 437ZM921 0H486V162H187L68 0H-71L436 678H914V589H601V390H871V301H601V89H921Z" glyph-name="AE" horiz-adv-x="956" unicode="&#198;" /><glyph d="M302 250H540V584H537Q529 571 516.5 552Q504 533 490.5 513Q477 493 463.5 473Q450 453 438 437ZM975 0H540V162H241L122 0H-17L490 678H968V589H655V390H925V301H655V89H975ZM710 734H617L727 846H860Z" glyph-name="AEacute" horiz-adv-x="1010" unicode="&#508;" /><glyph d="M770 762H424V841H770ZM302 250H540V584H537Q529 571 516.5 552Q504 533 490.5 513Q477 493 463.5 473Q450 453 438 437ZM975 0H540V162H241L122 0H-17L490 678H968V589H655V390H925V301H655V89H975Z" glyph-name="AEmacron" horiz-adv-x="1010" unicode="&#482;" /><glyph d="M369 734H276L386 846H519ZM318 577Q309 548 300 517.5Q291 487 278 447L211 250H427L360 447Q347 487 338 517.5Q329 548 320 577ZM180 162 126 0H10L252 678H388L631 0H512L457 162Z" glyph-name="Aacute" horiz-adv-x="641" unicode="&#193;" /><glyph d="M319 791Q351 791 377 802.5Q403 814 410 846H498Q487 780 439 752Q391 724 319 724Q248 724 199.5 752.5Q151 781 141 846H228Q236 814 261.5 802.5Q287 791 319 791ZM318 577Q309 548 300 517.5Q291 487 278 447L211 250H427L360 447Q347 487 338 517.5Q329 548 320 577ZM180 162 126 0H10L252 678H388L631 0H512L457 162Z" glyph-name="Abreve" horiz-adv-x="641" unicode="&#258;" /><glyph d="M156 848H256L320 783L385 848H485L369 730H271ZM318 577Q309 548 300 517.5Q291 487 278 447L211 250H427L360 447Q347 487 338 517.5Q329 548 320 577ZM180 162 126 0H10L252 678H388L631 0H512L457 162Z" glyph-name="Acaron" horiz-adv-x="641" unicode="&#461;" /><glyph d="M485 732H385L320 796L256 732H156L271 850H370ZM318 577Q309 548 300 517.5Q291 487 278 447L211 250H427L360 447Q347 487 338 517.5Q329 548 320 577ZM180 162 126 0H10L252 678H388L631 0H512L457 162Z" glyph-name="Acircumflex" horiz-adv-x="641" unicode="&#194;" /><glyph d="M476 748H368V843H476ZM268 748H161V843H268ZM318 577Q309 548 300 517.5Q291 487 278 447L211 250H427L360 447Q347 487 338 517.5Q329 548 320 577ZM180 162 126 0H10L252 678H388L631 0H512L457 162Z" glyph-name="Adieresis" horiz-adv-x="641" unicode="&#196;" /><glyph d="M318 577Q309 548 300 517.5Q291 487 278 447L211 250H427L360 447Q347 487 336 524Q325 561 320 577ZM457 162H180L126 0H10L252 678H388L631 0H512ZM478 747H368V844H478ZM270 747H161V844H270ZM492 909H146V988H492Z" glyph-name="Adieresismacron" horiz-adv-x="641" unicode="&#478;" /><glyph d="M376 749H264V845H376ZM318 577Q309 548 300 517.5Q291 487 278 447L211 250H427L360 447Q347 487 338 517.5Q329 548 320 577ZM180 162 126 0H10L252 678H388L631 0H512L457 162Z" glyph-name="Adotabove" horiz-adv-x="641" unicode="&#550;" /><glyph d="M58 846H177L286 733H207ZM221 846H341L450 733H370ZM318 577Q309 548 300 517.5Q291 487 278 447L211 250H427L360 447Q347 487 338 517.5Q329 548 320 577ZM180 162 126 0H10L252 678H388L631 0H512L457 162Z" glyph-name="Adoublegrave" horiz-adv-x="641" unicode="&#512;" /><glyph d="M125 846H258L368 734H275ZM318 577Q309 548 300 517.5Q291 487 278 447L211 250H427L360 447Q347 487 338 517.5Q329 548 320 577ZM180 162 126 0H10L252 678H388L631 0H512L457 162Z" glyph-name="Agrave" horiz-adv-x="641" unicode="&#192;" /><glyph d="M320 788Q288 788 262.5 776.5Q237 765 229 733H142Q152 798 200.5 826.5Q249 855 320 855Q392 855 440 827Q488 799 499 733H411Q404 765 378 776.5Q352 788 320 788ZM318 577Q309 548 300 517.5Q291 487 278 447L211 250H427L360 447Q347 487 338 517.5Q329 548 320 577ZM180 162 126 0H10L252 678H388L631 0H512L457 162Z" glyph-name="Ainvertedbreve" horiz-adv-x="641" unicode="&#514;" /><glyph d="M492 762H146V841H492ZM318 577Q309 548 300 517.5Q291 487 278 447L211 250H427L360 447Q347 487 338 517.5Q329 548 320 577ZM180 162 126 0H10L252 678H388L631 0H512L457 162Z" glyph-name="Amacron" horiz-adv-x="641" unicode="&#256;" /><glyph d="M512 0 399 333Q389 363 378 395.5Q367 428 357 459.5Q347 491 337.5 520Q328 549 321 571H318Q311 549 301.5 520Q292 491 282 459.5Q272 428 261 395.5Q250 363 240 333L127 0H10L252 678H388L631 0Z" glyph-name="Anocross" horiz-adv-x="641" unicode="&#59185;" /><glyph d="M318 577Q309 548 300 517.5Q291 487 278 447L211 250H427L360 447Q347 487 338 517.5Q329 548 320 577ZM512 0 457 162H180L126 0H10L252 678H388L631 0Q600 -17 586.5 -40Q573 -63 573 -81Q573 -116 615 -116Q630 -116 645.5 -114Q661 -112 680 -106V-167Q662 -175 638 -177Q614 -179 597 -179Q541 -179 514.5 -157Q488 -135 488 -100Q488 -71 505 -44Q522 -17 548 0Z" glyph-name="Aogonek" horiz-adv-x="641" unicode="&#260;" /><glyph d="M417 805Q417 763 392.5 745.5Q368 728 321 728Q275 728 249.5 745.5Q224 763 224 805Q224 846 249.5 863.5Q275 881 321 881Q368 881 392.5 863.5Q417 846 417 805ZM356 805Q356 837 321 837Q285 837 285 805Q285 774 321 774Q356 774 356 805ZM318 577Q309 548 300 517.5Q291 487 278 447L211 250H427L360 447Q347 487 338 517.5Q329 548 320 577ZM180 162 126 0H10L252 678H388L631 0H512L457 162Z" glyph-name="Aring" horiz-adv-x="641" unicode="&#197;" /><glyph d="M318 577Q309 548 300 517.5Q291 487 278 447L211 250H427L360 447Q347 487 338 517.5Q329 548 320 577ZM180 162 126 0H10L252 678H388L631 0H512L457 162ZM355 805Q355 837 320 837Q300 837 292 829Q284 821 284 805Q284 788 292 781Q300 774 320 774Q355 774 355 805ZM416 806Q416 765 390.5 747.5Q365 730 320 730Q274 730 248.5 747.5Q223 765 223 806Q223 827 235 844Q247 861 266 881L343 959H417L338 880Q372 878 394 859.5Q416 841 416 806Z" glyph-name="Aringacute" horiz-adv-x="641" unicode="&#506;" /><glyph d="M395 826Q418 826 445.5 838Q473 850 493 864V787Q478 774 449.5 762Q421 750 395 750Q373 750 354 755Q335 760 317 766Q299 772 281.5 777Q264 782 246 782Q223 782 194.5 770.5Q166 759 145 745V823Q162 835 191 847.5Q220 860 245 860Q267 860 286 855Q305 850 322.5 843.5Q340 837 357.5 831.5Q375 826 395 826ZM318 577Q309 548 300 517.5Q291 487 278 447L211 250H427L360 447Q347 487 338 517.5Q329 548 320 577ZM180 162 126 0H10L252 678H388L631 0H512L457 162Z" glyph-name="Atilde" horiz-adv-x="641" unicode="&#195;" /><glyph d="M86 0V678H326Q392 678 443 668.5Q494 659 525 627Q545 607 557 576.5Q569 546 569 504Q569 470 561 445Q553 420 540 402.5Q527 385 511.5 373Q496 361 481 353V351Q498 344 517 331Q536 318 552 298Q568 278 578.5 250.5Q589 223 589 188Q589 141 576 107.5Q563 74 541 52Q507 19 454.5 9.5Q402 0 335 0ZM331 389Q364 389 387 393.5Q410 398 427 415Q450 436 450 491Q450 543 427 566Q410 583 387 587.5Q364 592 331 592H200V389ZM345 86Q380 86 404.5 91.5Q429 97 446 114Q459 127 464.5 147.5Q470 168 470 195Q470 251 446 275Q429 292 404.5 297.5Q380 303 345 303H200V86Z" glyph-name="B" horiz-adv-x="630" unicode="B" /><glyph d="M52 338Q52 433 71 500.5Q90 568 127 610.5Q164 653 219 672.5Q274 692 347 692Q360 692 379 691.5Q398 691 420.5 688.5Q443 686 468 681Q493 676 517 668V579Q473 592 432.5 596.5Q392 601 368 601Q320 601 283.5 589.5Q247 578 222.5 548.5Q198 519 185.5 468.5Q173 418 173 340Q173 260 185.5 210Q198 160 222.5 131.5Q247 103 283.5 93Q320 83 368 83Q384 83 404.5 84.5Q425 86 447 89.5Q469 93 490.5 98Q512 103 531 109V15Q511 7 486 1.5Q461 -4 435.5 -7.5Q410 -11 386.5 -12.5Q363 -14 347 -14Q276 -14 221.5 4.5Q167 23 129 65Q91 107 71.5 174Q52 241 52 338Z" glyph-name="C" horiz-adv-x="566" unicode="C" /><glyph d="M52 338Q52 433 71 500.5Q90 568 127 610.5Q164 653 219 672.5Q274 692 347 692Q360 692 379 691.5Q398 691 420.5 688.5Q443 686 468 681Q493 676 517 668V579Q473 592 432.5 596.5Q392 601 368 601Q320 601 283.5 589.5Q247 578 222.5 548.5Q198 519 185.5 468.5Q173 418 173 340Q173 260 185.5 210Q198 160 222.5 131.5Q247 103 283.5 93Q320 83 368 83Q384 83 404.5 84.5Q425 86 447 89.5Q469 93 490.5 98Q512 103 531 109V15Q511 7 486 1.5Q461 -4 435.5 -7.5Q410 -11 386.5 -12.5Q363 -14 347 -14Q276 -14 221.5 4.5Q167 23 129 65Q91 107 71.5 174Q52 241 52 338ZM353 734H260L370 846H503Z" glyph-name="Cacute" horiz-adv-x="566" unicode="&#262;" /><glyph d="M52 338Q52 433 71 500.5Q90 568 127 610.5Q164 653 219 672.5Q274 692 347 692Q360 692 379 691.5Q398 691 420.5 688.5Q443 686 468 681Q493 676 517 668V579Q473 592 432.5 596.5Q392 601 368 601Q320 601 283.5 589.5Q247 578 222.5 548.5Q198 519 185.5 468.5Q173 418 173 340Q173 260 185.5 210Q198 160 222.5 131.5Q247 103 283.5 93Q320 83 368 83Q384 83 404.5 84.5Q425 86 447 89.5Q469 93 490.5 98Q512 103 531 109V15Q511 7 486 1.5Q461 -4 435.5 -7.5Q410 -11 386.5 -12.5Q363 -14 347 -14Q276 -14 221.5 4.5Q167 23 129 65Q91 107 71.5 174Q52 241 52 338ZM166 848H266L330 783L395 848H495L379 730H281Z" glyph-name="Ccaron" horiz-adv-x="566" unicode="&#268;" /><glyph d="M302 -12Q242 -7 195.5 15Q149 37 117 79Q85 121 68.5 185Q52 249 52 338Q52 433 71 500.5Q90 568 127 610.5Q164 653 219 672.5Q274 692 347 692Q360 692 379 691.5Q398 691 420.5 688.5Q443 686 468 681Q493 676 517 668V579Q473 592 432.5 596.5Q392 601 368 601Q320 601 283.5 589.5Q247 578 222.5 548.5Q198 519 185.5 468.5Q173 418 173 340Q173 260 185.5 210Q198 160 222.5 131.5Q247 103 283.5 93Q320 83 368 83Q384 83 404.5 84.5Q425 86 447 89.5Q469 93 490.5 98Q512 103 531 109V15Q501 3 460.5 -3.5Q420 -10 385 -12L374 -40Q407 -51 421 -67Q435 -83 435 -104Q435 -141 401.5 -160Q368 -179 305 -179Q288 -179 267.5 -177Q247 -175 221 -167V-106Q244 -114 262 -116Q280 -118 292 -118Q341 -118 341 -96Q341 -84 326 -78.5Q311 -73 293 -72L287 -46Z" glyph-name="Ccedilla" horiz-adv-x="566" unicode="&#199;" /><glyph d="M52 338Q52 433 71 500.5Q90 568 127 610.5Q164 653 219 672.5Q274 692 347 692Q360 692 379 691.5Q398 691 420.5 688.5Q443 686 468 681Q493 676 517 668V579Q473 592 432.5 596.5Q392 601 368 601Q320 601 283.5 589.5Q247 578 222.5 548.5Q198 519 185.5 468.5Q173 418 173 340Q173 260 185.5 210Q198 160 222.5 131.5Q247 103 283.5 93Q320 83 368 83Q384 83 404.5 84.5Q425 86 447 89.5Q469 93 490.5 98Q512 103 531 109V15Q511 7 486 1.5Q461 -4 435.5 -7.5Q410 -11 386.5 -12.5Q363 -14 347 -14Q276 -14 221.5 4.5Q167 23 129 65Q91 107 71.5 174Q52 241 52 338ZM497 732H397L332 796L268 732H168L283 850H382Z" glyph-name="Ccircumflex" horiz-adv-x="566" unicode="&#264;" /><glyph d="M386 749H274V845H386ZM52 338Q52 433 71 500.5Q90 568 127 610.5Q164 653 219 672.5Q274 692 347 692Q360 692 379 691.5Q398 691 420.5 688.5Q443 686 468 681Q493 676 517 668V579Q473 592 432.5 596.5Q392 601 368 601Q320 601 283.5 589.5Q247 578 222.5 548.5Q198 519 185.5 468.5Q173 418 173 340Q173 260 185.5 210Q198 160 222.5 131.5Q247 103 283.5 93Q320 83 368 83Q384 83 404.5 84.5Q425 86 447 89.5Q469 93 490.5 98Q512 103 531 109V15Q511 7 486 1.5Q461 -4 435.5 -7.5Q410 -11 386.5 -12.5Q363 -14 347 -14Q276 -14 221.5 4.5Q167 23 129 65Q91 107 71.5 174Q52 241 52 338Z" glyph-name="Cdotaccent" horiz-adv-x="566" unicode="&#266;" /><glyph d="M398 312H54V387H398Z" glyph-name="Crossbar" horiz-adv-x="448" unicode="&#59204;" /><glyph d="M435 322H39V411H435Z" glyph-name="Crossbar.cap" horiz-adv-x="448" unicode="&#59205;" /><glyph d="M608 121H255V194H608Z" glyph-name="Crossbar.small" horiz-adv-x="448" unicode="&#59206;" /><glyph d="M633 339Q633 152 548 69Q510 32 460 16Q410 0 335 0H86V678H328Q403 678 458 661Q513 644 551 605Q633 521 633 339ZM512 339Q512 420 497.5 471.5Q483 523 454 552Q432 575 402.5 582Q373 589 337 589H200V89H336Q372 89 401 96Q430 103 453 125Q482 154 497 205.5Q512 257 512 339Z" glyph-name="D" horiz-adv-x="684" unicode="D" /><glyph d="M633 339Q633 152 548 69Q510 32 460 16Q410 0 335 0H86V678H328Q403 678 458 661Q513 644 551 605Q633 521 633 339ZM512 339Q512 420 497.5 471.5Q483 523 454 552Q432 575 402.5 582Q373 589 337 589H200V89H336Q372 89 401 96Q430 103 453 125Q482 154 497 205.5Q512 257 512 339ZM152 848H252L316 783L381 848H481L365 730H267Z" glyph-name="Dcaron" horiz-adv-x="684" unicode="&#270;" /><glyph d="M633 339Q633 152 548 69Q510 32 460 16Q410 0 335 0H86V678H328Q403 678 458 661Q513 644 551 605Q633 521 633 339ZM512 339Q512 420 497.5 471.5Q483 523 454 552Q432 575 402.5 582Q373 589 337 589H200V89H336Q372 89 401 96Q430 103 453 125Q482 154 497 205.5Q512 257 512 339ZM309 -36Q345 -38 368 -45.5Q391 -53 404.5 -63Q418 -73 423.5 -85Q429 -97 429 -108Q429 -143 395.5 -161Q362 -179 302 -179Q285 -179 263 -177Q241 -175 215 -167V-106Q237 -114 254.5 -116Q272 -118 286 -118Q307 -118 321 -114Q335 -110 335 -98Q335 -85 320.5 -81Q306 -77 289 -75Z" glyph-name="Dcedilla" horiz-adv-x="684" unicode="&#7696;" /><glyph d="M544 339Q544 420 529.5 471.5Q515 523 486 552Q464 575 434.5 582Q405 589 369 589H232V390H412V301H232V89H368Q404 89 433 96Q462 103 485 125Q514 154 529 205.5Q544 257 544 339ZM665 339Q665 152 580 69Q542 32 492 16Q442 0 367 0H118V301H16V390H118V678H360Q435 678 490 661Q545 644 583 605Q665 521 665 339Z" glyph-name="Dcroat" horiz-adv-x="716" unicode="&#272;" /><glyph d="M367 -189H261V-92H367ZM633 339Q633 152 548 69Q510 32 460 16Q410 0 335 0H86V678H328Q403 678 458 661Q513 644 551 605Q633 521 633 339ZM512 339Q512 420 497.5 471.5Q483 523 454 552Q432 575 402.5 582Q373 589 337 589H200V89H336Q372 89 401 96Q430 103 453 125Q482 154 497 205.5Q512 257 512 339Z" glyph-name="Ddotbelow" horiz-adv-x="684" unicode="&#7692;" /><glyph d="M513 89Q543 89 567.5 88.5Q592 88 618 87V89L440 470Q428 495 415 527Q402 559 393 581H391Q383 559 369 527Q355 495 344 470L166 89V87Q192 88 216.5 88.5Q241 89 271 89ZM737 0H48L46 67L337 684H447L739 67Z" glyph-name="Delta" horiz-adv-x="784" unicode="&#8710;" /><glyph d="M521 0H86V678H513V589H200V390H470V301H200V89H521Z" glyph-name="E" horiz-adv-x="555" unicode="E" /><glyph d="M521 0H86V678H513V589H200V390H470V301H200V89H521ZM344 734H251L361 846H494Z" glyph-name="Eacute" horiz-adv-x="555" unicode="&#201;" /><glyph d="M368 -189H262V-92H368ZM521 0H86V678H513V589H200V390H470V301H200V89H521ZM344 734H251L361 846H494Z" glyph-name="Eacutedotbelow" horiz-adv-x="555" unicode="&#59233;" /><glyph d="M302 791Q334 791 360 802.5Q386 814 393 846H481Q470 780 422 752Q374 724 302 724Q231 724 182.5 752.5Q134 781 124 846H211Q219 814 244.5 802.5Q270 791 302 791ZM521 0H86V678H513V589H200V390H470V301H200V89H521Z" glyph-name="Ebreve" horiz-adv-x="555" unicode="&#276;" /><glyph d="M521 0H86V678H513V589H200V390H470V301H200V89H521ZM139 848H239L303 783L368 848H468L352 730H254Z" glyph-name="Ecaron" horiz-adv-x="555" unicode="&#282;" /><glyph d="M521 0H86V678H513V589H200V390H470V301H200V89H521ZM467 732H367L302 796L238 732H138L253 850H352Z" glyph-name="Ecircumflex" horiz-adv-x="555" unicode="&#202;" /><glyph d="M521 0H86V678H513V589H200V390H470V301H200V89H521ZM461 748H353V843H461ZM253 748H146V843H253Z" glyph-name="Edieresis" horiz-adv-x="555" unicode="&#203;" /><glyph d="M365 749H253V845H365ZM521 0H86V678H513V589H200V390H470V301H200V89H521Z" glyph-name="Edotaccent" horiz-adv-x="555" unicode="&#278;" /><glyph d="M58 846H177L286 733H207ZM221 846H341L450 733H370ZM521 0H86V678H513V589H200V390H470V301H200V89H521Z" glyph-name="Edoublegrave" horiz-adv-x="555" unicode="&#516;" /><glyph d="M135 846H268L378 734H285ZM521 0H86V678H513V589H200V390H470V301H200V89H521Z" glyph-name="Egrave" horiz-adv-x="555" unicode="&#200;" /><glyph d="M368 -189H262V-92H368ZM135 846H268L378 734H285ZM521 0H86V678H513V589H200V390H470V301H200V89H521Z" glyph-name="Egravedotbelow" horiz-adv-x="555" unicode="&#59237;" /><glyph d="M521 0H86V678H513V589H200V390H470V301H200V89H521ZM301 788Q269 788 243.5 776.5Q218 765 210 733H123Q133 798 181.5 826.5Q230 855 301 855Q373 855 421 827Q469 799 480 733H392Q385 765 359 776.5Q333 788 301 788Z" glyph-name="Einvertedbreve" horiz-adv-x="555" unicode="&#518;" /><glyph d="M477 762H131V841H477ZM521 0H86V678H513V589H200V390H470V301H200V89H521Z" glyph-name="Emacron" horiz-adv-x="555" unicode="&#274;" /><glyph d="M639 147Q639 95 635 52Q631 9 621 -28.5Q611 -66 595 -100Q579 -134 555 -168H446Q497 -87 514 2L278 372Q256 406 234.5 443Q213 480 193 516H190Q191 481 192 439.5Q193 398 194 355.5Q195 313 195.5 272Q196 231 196 197V0H86V678H211L446 308Q467 274 489 236.5Q511 199 531 164H534Q533 199 532 240Q531 281 530.5 323Q530 365 529.5 406Q529 447 529 481V678H639Z" glyph-name="Eng" horiz-adv-x="724" unicode="&#330;" /><glyph d="M521 0H520Q489 -17 475.5 -40Q462 -63 462 -81Q462 -116 504 -116Q519 -116 534.5 -114Q550 -112 569 -106V-167Q551 -175 527 -177Q503 -179 486 -179Q430 -179 403.5 -157Q377 -135 377 -100Q377 -71 394 -44Q411 -17 437 0H86V678H513V589H200V390H470V301H200V89H521Z" glyph-name="Eogonek" horiz-adv-x="555" unicode="&#280;" /><glyph d="M544 339Q544 420 529.5 471.5Q515 523 486 552Q464 575 434.5 582Q405 589 369 589H232V390H412V301H232V89H368Q404 89 433 96Q462 103 485 125Q514 154 529 205.5Q544 257 544 339ZM665 339Q665 152 580 69Q542 32 492 16Q442 0 367 0H118V301H16V390H118V678H360Q435 678 490 661Q545 644 583 605Q665 521 665 339Z" glyph-name="Eth" horiz-adv-x="716" unicode="&#208;" /><glyph d="M199 309V260H391L362 195H205Q217 129 252.5 102Q288 75 355 75Q381 75 417 80.5Q453 86 492 98V12Q456 -3 412.5 -8.5Q369 -14 339 -14Q231 -14 169.5 35Q108 84 92 195H8L37 260H86V309H21L49 374H93Q110 472 168 522Q226 572 339 572Q360 572 399.5 568.5Q439 565 478 551V468Q440 480 408 483Q376 486 355 486Q289 486 254.5 460Q220 434 207 374H439L409 309Z" glyph-name="Euro" horiz-adv-x="534" unicode="&#8364;" /><glyph d="M85 320H134V369H63L92 439H140Q157 574 224 633Q291 692 404 692Q415 692 432 691.5Q449 691 469 688.5Q489 686 511 681Q533 676 554 668V579Q516 592 481 596.5Q446 601 425 601Q391 601 363.5 593.5Q336 586 315.5 567.5Q295 549 281.5 517.5Q268 486 261 439H506L476 369H256V320H460L431 250H260Q266 199 279.5 166.5Q293 134 313.5 115.5Q334 97 362 90Q390 83 425 83Q454 83 494.5 89.5Q535 96 568 109V15Q550 7 527.5 1.5Q505 -4 482.5 -7.5Q460 -11 439.5 -12.5Q419 -14 404 -14Q348 -14 302.5 0Q257 14 223 45.5Q189 77 167.5 127.5Q146 178 138 250H56Z" glyph-name="Euro.LP" horiz-adv-x="660" unicode="&#58657;" /><glyph d="M86 0V678H521V589H200V390H470V301H200V0Z" glyph-name="F" horiz-adv-x="524" unicode="F" /><glyph d="M337 390H607V35Q579 21 547 11.5Q515 2 483 -4Q451 -10 420 -12.5Q389 -15 363 -15Q286 -15 228 4Q170 23 131 65Q91 107 71.5 173Q52 239 52 336Q52 436 73 504Q94 572 135.5 614Q177 656 237.5 674Q298 692 378 692Q392 692 414.5 691Q437 690 463 687Q489 684 515.5 679.5Q542 675 565 668V579Q545 584 522.5 588Q500 592 477.5 595Q455 598 435 599.5Q415 601 400 601Q341 601 298.5 590.5Q256 580 228 551Q200 522 186.5 470Q173 418 173 336Q173 255 187.5 204.5Q202 154 228 125Q254 96 288.5 86Q323 76 364 76Q389 76 425.5 78.5Q462 81 492 91V301H337Z" glyph-name="G" horiz-adv-x="678" unicode="G" /><glyph d="M337 390H607V35Q579 21 547 11.5Q515 2 483 -4Q451 -10 420 -12.5Q389 -15 363 -15Q286 -15 228 4Q170 23 131 65Q91 107 71.5 173Q52 239 52 336Q52 436 73 504Q94 572 135.5 614Q177 656 237.5 674Q298 692 378 692Q392 692 414.5 691Q437 690 463 687Q489 684 515.5 679.5Q542 675 565 668V579Q545 584 522.5 588Q500 592 477.5 595Q455 598 435 599.5Q415 601 400 601Q341 601 298.5 590.5Q256 580 228 551Q200 522 186.5 470Q173 418 173 336Q173 255 187.5 204.5Q202 154 228 125Q254 96 288.5 86Q323 76 364 76Q389 76 425.5 78.5Q462 81 492 91V301H337ZM386 734H293L403 846H536Z" glyph-name="Gacute" horiz-adv-x="678" unicode="&#500;" /><glyph d="M350 791Q382 791 408 802.5Q434 814 441 846H529Q518 780 470 752Q422 724 350 724Q279 724 230.5 752.5Q182 781 172 846H259Q267 814 292.5 802.5Q318 791 350 791ZM337 390H607V35Q579 21 547 11.5Q515 2 483 -4Q451 -10 420 -12.5Q389 -15 363 -15Q286 -15 228 4Q170 23 131 65Q91 107 71.5 173Q52 239 52 336Q52 436 73 504Q94 572 135.5 614Q177 656 237.5 674Q298 692 378 692Q392 692 414.5 691Q437 690 463 687Q489 684 515.5 679.5Q542 675 565 668V579Q545 584 522.5 588Q500 592 477.5 595Q455 598 435 599.5Q415 601 400 601Q341 601 298.5 590.5Q256 580 228 551Q200 522 186.5 470Q173 418 173 336Q173 255 187.5 204.5Q202 154 228 125Q254 96 288.5 86Q323 76 364 76Q389 76 425.5 78.5Q462 81 492 91V301H337Z" glyph-name="Gbreve" horiz-adv-x="678" unicode="&#286;" /><glyph d="M337 390H607V35Q579 21 547 11.5Q515 2 483 -4Q451 -10 420 -12.5Q389 -15 363 -15Q286 -15 228 4Q170 23 131 65Q91 107 71.5 173Q52 239 52 336Q52 436 73 504Q94 572 135.5 614Q177 656 237.5 674Q298 692 378 692Q392 692 414.5 691Q437 690 463 687Q489 684 515.5 679.5Q542 675 565 668V579Q545 584 522.5 588Q500 592 477.5 595Q455 598 435 599.5Q415 601 400 601Q341 601 298.5 590.5Q256 580 228 551Q200 522 186.5 470Q173 418 173 336Q173 255 187.5 204.5Q202 154 228 125Q254 96 288.5 86Q323 76 364 76Q389 76 425.5 78.5Q462 81 492 91V301H337ZM192 848H292L356 783L421 848H521L405 730H307Z" glyph-name="Gcaron" horiz-adv-x="678" unicode="&#486;" /><glyph d="M337 390H607V35Q579 21 547 11.5Q515 2 483 -4Q451 -10 420 -12.5Q389 -15 363 -15Q286 -15 228 4Q170 23 131 65Q91 107 71.5 173Q52 239 52 336Q52 436 73 504Q94 572 135.5 614Q177 656 237.5 674Q298 692 378 692Q392 692 414.5 691Q437 690 463 687Q489 684 515.5 679.5Q542 675 565 668V579Q545 584 522.5 588Q500 592 477.5 595Q455 598 435 599.5Q415 601 400 601Q341 601 298.5 590.5Q256 580 228 551Q200 522 186.5 470Q173 418 173 336Q173 255 187.5 204.5Q202 154 228 125Q254 96 288.5 86Q323 76 364 76Q389 76 425.5 78.5Q462 81 492 91V301H337ZM520 732H420L355 796L291 732H191L306 850H405Z" glyph-name="Gcircumflex" horiz-adv-x="678" unicode="&#284;" /><glyph d="M337 390H607V35Q579 21 547 11.5Q515 2 483 -4Q451 -10 420 -12.5Q389 -15 363 -15Q286 -15 228 4Q170 23 131 65Q91 107 71.5 173Q52 239 52 336Q52 436 73 504Q94 572 135.5 614Q177 656 237.5 674Q298 692 378 692Q392 692 414.5 691Q437 690 463 687Q489 684 515.5 679.5Q542 675 565 668V579Q545 584 522.5 588Q500 592 477.5 595Q455 598 435 599.5Q415 601 400 601Q341 601 298.5 590.5Q256 580 228 551Q200 522 186.5 470Q173 418 173 336Q173 255 187.5 204.5Q202 154 228 125Q254 96 288.5 86Q323 76 364 76Q389 76 425.5 78.5Q462 81 492 91V301H337ZM322 -75H432L346 -258H282Z" glyph-name="Gcommaaccent" horiz-adv-x="678" unicode="&#290;" /><glyph d="M337 390H607V35Q579 21 547 11.5Q515 2 483 -4Q451 -10 420 -12.5Q389 -15 363 -15Q286 -15 228 4Q170 23 131 65Q91 107 71.5 173Q52 239 52 336Q52 436 73 504Q94 572 135.5 614Q177 656 237.5 674Q298 692 378 692Q392 692 414.5 691Q437 690 463 687Q489 684 515.5 679.5Q542 675 565 668V579Q545 584 522.5 588Q500 592 477.5 595Q455 598 435 599.5Q415 601 400 601Q341 601 298.5 590.5Q256 580 228 551Q200 522 186.5 470Q173 418 173 336Q173 255 187.5 204.5Q202 154 228 125Q254 96 288.5 86Q323 76 364 76Q389 76 425.5 78.5Q462 81 492 91V301H337ZM711 565H601L687 747H751Z" glyph-name="Gcommaturnedabove" horiz-adv-x="750" unicode="&#57607;" /><glyph d="M409 749H297V845H409ZM337 390H607V35Q579 21 547 11.5Q515 2 483 -4Q451 -10 420 -12.5Q389 -15 363 -15Q286 -15 228 4Q170 23 131 65Q91 107 71.5 173Q52 239 52 336Q52 436 73 504Q94 572 135.5 614Q177 656 237.5 674Q298 692 378 692Q392 692 414.5 691Q437 690 463 687Q489 684 515.5 679.5Q542 675 565 668V579Q545 584 522.5 588Q500 592 477.5 595Q455 598 435 599.5Q415 601 400 601Q341 601 298.5 590.5Q256 580 228 551Q200 522 186.5 470Q173 418 173 336Q173 255 187.5 204.5Q202 154 228 125Q254 96 288.5 86Q323 76 364 76Q389 76 425.5 78.5Q462 81 492 91V301H337Z" glyph-name="Gdotaccent" horiz-adv-x="678" unicode="&#288;" /><glyph d="M337 390H607V237H709V148H607V35Q579 21 547 11.5Q515 2 483 -4Q451 -10 420 -12.5Q389 -15 363 -15Q286 -15 228 4Q170 23 131 65Q91 107 71.5 173Q52 239 52 336Q52 436 73 504Q94 572 135.5 614Q177 656 237.5 674Q298 692 378 692Q392 692 414.5 691Q437 690 463 687Q489 684 515.5 679.5Q542 675 565 668V579Q545 584 522.5 588Q500 592 477.5 595Q455 598 435 599.5Q415 601 400 601Q341 601 298.5 590.5Q256 580 228 551Q200 522 186.5 470Q173 418 173 336Q173 256 187.5 205Q202 154 228 125.5Q254 97 288.5 86.5Q323 76 364 76Q389 76 425.5 78.5Q462 81 492 91V148H313V237H492V301H337Z" glyph-name="Gstroke" horiz-adv-x="678" unicode="&#484;" /><glyph d="M424 826Q447 826 474.5 838Q502 850 522 864V787Q507 774 478.5 762Q450 750 424 750Q402 750 383 755Q364 760 346 766Q328 772 310.5 777Q293 782 275 782Q252 782 223.5 770.5Q195 759 174 745V823Q191 835 220 847.5Q249 860 274 860Q296 860 315 855Q334 850 351.5 843.5Q369 837 386.5 831.5Q404 826 424 826ZM337 390H607V35Q579 21 547 11.5Q515 2 483 -4Q451 -10 420 -12.5Q389 -15 363 -15Q286 -15 228 4Q170 23 131 65Q91 107 71.5 173Q52 239 52 336Q52 436 73 504Q94 572 135.5 614Q177 656 237.5 674Q298 692 378 692Q392 692 414.5 691Q437 690 463 687Q489 684 515.5 679.5Q542 675 565 668V579Q545 584 522.5 588Q500 592 477.5 595Q455 598 435 599.5Q415 601 400 601Q341 601 298.5 590.5Q256 580 228 551Q200 522 186.5 470Q173 418 173 336Q173 255 187.5 204.5Q202 154 228 125Q254 96 288.5 86Q323 76 364 76Q389 76 425.5 78.5Q462 81 492 91V301H337Z" glyph-name="Gtilde" horiz-adv-x="678" unicode="&#57605;" /><glyph d="M621 0H506V301H200V0H86V678H200V390H506V678H621Z" glyph-name="H" horiz-adv-x="706" unicode="H" /><glyph d="M506 390V470H200V390ZM621 0H506V301H200V0H86V678H200V559H506V678H621Z" glyph-name="Hbar" horiz-adv-x="706" unicode="&#294;" /><glyph d="M621 0H506V301H200V0H86V678H200V390H506V678H621ZM189 848H289L353 783L418 848H518L402 730H304Z" glyph-name="Hcaron" horiz-adv-x="706" unicode="&#542;" /><glyph d="M621 0H506V301H200V0H86V678H200V390H506V678H621ZM517 732H417L352 796L288 732H188L303 850H402Z" glyph-name="Hcircumflex" horiz-adv-x="706" unicode="&#292;" /><glyph d="M407 -189H301V-92H407ZM621 0H506V301H200V0H86V678H200V390H506V678H621Z" glyph-name="Hdotbelow" horiz-adv-x="706" unicode="&#7716;" /><glyph d="M526 -153H180V-74H526ZM621 0H506V301H200V0H86V678H200V390H506V678H621Z" glyph-name="Hmacronbelow" horiz-adv-x="706" unicode="&#57609;" /><glyph d="M200 0H86V678H200Z" glyph-name="I" horiz-adv-x="286" unicode="I" /><glyph d="M300 -118Q339 -55 358.5 14.5Q378 84 378 169V678H492V197Q492 145 488 102Q484 59 474.5 21.5Q465 -16 449 -50Q433 -84 409 -118ZM200 0H86V678H200Z" glyph-name="IJ" horiz-adv-x="578" unicode="&#306;" /><glyph d="M190 734H97L207 846H340ZM200 0H86V678H200Z" glyph-name="Iacute" horiz-adv-x="286" unicode="&#205;" /><glyph d="M143 791Q175 791 201 802.5Q227 814 234 846H322Q311 780 263 752Q215 724 143 724Q72 724 23.5 752.5Q-25 781 -35 846H52Q60 814 85.5 802.5Q111 791 143 791ZM200 0H86V678H200Z" glyph-name="Ibreve" horiz-adv-x="286" unicode="&#300;" /><glyph d="M200 0H86V678H200ZM-21 848H79L143 783L208 848H308L192 730H94Z" glyph-name="Icaron" horiz-adv-x="286" unicode="&#463;" /><glyph d="M200 0H86V678H200ZM309 732H209L144 796L80 732H-20L95 850H194Z" glyph-name="Icircumflex" horiz-adv-x="286" unicode="&#206;" /><glyph d="M200 0H86V678H200ZM301 748H193V843H301ZM93 748H-14V843H93Z" glyph-name="Idieresis" horiz-adv-x="286" unicode="&#207;" /><glyph d="M199 749H87V845H199ZM200 0H86V678H200Z" glyph-name="Idotaccent" horiz-adv-x="286" unicode="&#304;" /><glyph d="M196 -189H90V-92H196ZM200 0H86V678H200Z" glyph-name="Idotbelow" horiz-adv-x="286" unicode="&#7882;" /><glyph d="M-121 846H-2L107 733H28ZM42 846H162L271 733H191ZM201 0H87V678H201Z" glyph-name="Idoublegrave" horiz-adv-x="286" unicode="&#520;" /><glyph d="M-54 846H79L189 734H96ZM200 0H86V678H200Z" glyph-name="Igrave" horiz-adv-x="286" unicode="&#204;" /><glyph d="M143 788Q111 788 85.5 776.5Q60 765 52 733H-35Q-25 798 23.5 826.5Q72 855 143 855Q215 855 263 827Q311 799 322 733H234Q227 765 201 776.5Q175 788 143 788ZM200 0H86V678H200Z" glyph-name="Iinvertedbreve" horiz-adv-x="286" unicode="&#522;" /><glyph d="M316 762H-30V841H316ZM200 0H86V678H200Z" glyph-name="Imacron" horiz-adv-x="286" unicode="&#298;" /><glyph d="M87 0V678H201V0Q170 -17 156.5 -40Q143 -63 143 -81Q143 -116 185 -116Q200 -116 215.5 -114Q231 -112 250 -106V-167Q232 -175 208 -177Q184 -179 167 -179Q111 -179 84.5 -157Q58 -135 58 -100Q58 -71 75 -44Q92 -17 118 0Z" glyph-name="Iogonek" horiz-adv-x="286" unicode="&#302;" /><glyph d="M221 826Q244 826 271.5 838Q299 850 319 864V787Q304 774 275.5 762Q247 750 221 750Q199 750 180 755Q161 760 143 766Q125 772 107.5 777Q90 782 72 782Q49 782 20.5 770.5Q-8 759 -29 745V823Q-12 835 17 847.5Q46 860 71 860Q93 860 112 855Q131 850 148.5 843.5Q166 837 183.5 831.5Q201 826 221 826ZM200 0H86V678H200Z" glyph-name="Itilde" horiz-adv-x="286" unicode="&#296;" /><glyph d="M14 -118Q53 -55 72.5 14.5Q92 84 92 169V678H206V197Q206 145 202 102Q198 59 188.5 21.5Q179 -16 163 -50Q147 -84 123 -118Z" glyph-name="J" horiz-adv-x="292" unicode="J" /><glyph d="M14 -118Q53 -55 72.5 14.5Q92 84 92 169V678H206V197Q206 145 202 102Q198 59 188.5 21.5Q179 -16 163 -50Q147 -84 123 -118ZM-15 848H85L149 783L214 848H314L198 730H100Z" glyph-name="Jcaron" horiz-adv-x="292" unicode="&#57611;" /><glyph d="M14 -118Q53 -55 72.5 14.5Q92 84 92 169V678H206V197Q206 145 202 102Q198 59 188.5 21.5Q179 -16 163 -50Q147 -84 123 -118ZM314 732H214L149 796L85 732H-15L100 850H199Z" glyph-name="Jcircumflex" horiz-adv-x="292" unicode="&#308;" /><glyph d="M386 354 624 0H493L289 301H200V0H86V678H200V390H287L476 678H598Z" glyph-name="K" horiz-adv-x="627" unicode="K" /><glyph d="M386 354 624 0H493L289 301H200V0H86V678H200V390H287L476 678H598ZM150 848H250L314 783L379 848H479L363 730H265Z" glyph-name="Kcaron" horiz-adv-x="627" unicode="&#488;" /><glyph d="M307 -36Q343 -38 366 -45.5Q389 -53 402.5 -63Q416 -73 421.5 -85Q427 -97 427 -108Q427 -143 393.5 -161Q360 -179 300 -179Q283 -179 261 -177Q239 -175 213 -167V-106Q235 -114 252.5 -116Q270 -118 284 -118Q305 -118 319 -114Q333 -110 333 -98Q333 -85 318.5 -81Q304 -77 287 -75ZM386 354 624 0H493L289 301H200V0H86V678H200V390H287L476 678H598Z" glyph-name="Kcedilla" horiz-adv-x="627" unicode="&#57613;" /><glyph d="M386 354 624 0H493L289 301H200V0H86V678H200V390H287L476 678H598ZM280 -75H390L304 -258H240Z" glyph-name="Kcommaaccent" horiz-adv-x="627" unicode="&#310;" /><glyph d="M386 354 624 0H493L289 301H200V0H86V678H200V390H287L476 678H598Z" glyph-name="Kgreenlandic" horiz-adv-x="627" unicode="&#59283;" /><glyph d="M497 570Q479 552 464.5 528Q450 504 435.5 478Q421 452 405.5 425.5Q390 399 370 375L624 0H493L391 151L289 301H200V0H86V678H200V390H244Q253 394 265 406Q290 430 308 460.5Q326 491 342.5 522Q359 553 376.5 582.5Q394 612 417 635Q439 657 469.5 671.5Q500 686 551 686Q572 686 591 682Q610 678 623 670V585Q610 591 591 593Q572 595 561 595Q538 595 524 589Q510 583 497 570Z" glyph-name="Khook" horiz-adv-x="627" unicode="&#408;" /><glyph d="M518 0H86V678H200V89H518Z" glyph-name="L" horiz-adv-x="522" unicode="L" /><glyph d="M518 0H86V678H200V89H518ZM189 734H96L206 846H339Z" glyph-name="Lacute" horiz-adv-x="522" unicode="&#313;" /><glyph d="M518 0H86V678H200V89H518ZM388 678H499L413 496H349Z" glyph-name="Lcaron" horiz-adv-x="567" unicode="&#317;" /><glyph d="M518 0H86V678H200V89H518ZM294 -36Q330 -38 353 -45.5Q376 -53 389.5 -63Q403 -73 408.5 -85Q414 -97 414 -108Q414 -143 380.5 -161Q347 -179 287 -179Q270 -179 248 -177Q226 -175 200 -167V-106Q222 -114 239.5 -116Q257 -118 271 -118Q292 -118 306 -114Q320 -110 320 -98Q320 -85 305.5 -81Q291 -77 274 -75Z" glyph-name="Lcedilla" horiz-adv-x="522" unicode="&#57615;" /><glyph d="M518 0H86V678H200V89H518ZM252 -75H362L276 -258H212Z" glyph-name="Lcommaaccent" horiz-adv-x="522" unicode="&#315;" /><glyph d="M477 297H371V394H477ZM518 0H86V678H200V89H518Z" glyph-name="Ldot" horiz-adv-x="537" unicode="&#319;" /><glyph d="M359 -189H253V-92H359ZM518 0H86V678H200V89H518Z" glyph-name="Ldotbelow" horiz-adv-x="522" unicode="&#7734;" /><glyph d="M359 -189H253V-92H359ZM518 0H86V678H200V89H518ZM316 762H-30V841H316Z" glyph-name="Ldotbelowmacron" horiz-adv-x="522" unicode="&#7736;" /><glyph d="M541 0H109V228L4 161V263L109 330V678H223V404L419 530V427L223 301V89H541Z" glyph-name="Lslash" horiz-adv-x="545" unicode="&#321;" /><glyph d="M659 223Q659 268 660 309Q661 350 662 390Q663 430 664.5 470.5Q666 511 668 555H665Q648 507 631.5 467Q615 427 595 386L470 135H386L262 386Q242 427 225.5 467Q209 507 191 555H188Q190 511 191.5 470.5Q193 430 194.5 390Q196 350 196.5 309Q197 268 197 223V0H86V678H235L427 284H430L623 678H772V0H659Z" glyph-name="M" horiz-adv-x="857" unicode="M" /><glyph d="M658 223Q658 268 659 309Q660 350 661 390Q662 430 663.5 470.5Q665 511 667 555H664Q647 507 630.5 467Q614 427 594 386L469 135H385L261 386Q241 427 224.5 467Q208 507 190 555H187Q189 511 190.5 470.5Q192 430 193.5 390Q195 350 195.5 309Q196 268 196 223V0H85V678H234L426 284H429L622 678H771V0H658ZM416 -36Q452 -38 475 -45.5Q498 -53 511.5 -63Q525 -73 530.5 -85Q536 -97 536 -108Q536 -143 502.5 -161Q469 -179 409 -179Q392 -179 370 -177Q348 -175 322 -167V-106Q344 -114 361.5 -116Q379 -118 393 -118Q414 -118 428 -114Q442 -110 442 -98Q442 -85 427.5 -81Q413 -77 396 -75Z" glyph-name="Mcedilla" horiz-adv-x="855" unicode="&#57619;" /><glyph d="M480 -189H374V-92H480ZM658 223Q658 268 659 309Q660 350 661 390Q662 430 663.5 470.5Q665 511 667 555H664Q647 507 630.5 467Q614 427 594 386L469 135H385L261 386Q241 427 224.5 467Q208 507 190 555H187Q189 511 190.5 470.5Q192 430 193.5 390Q195 350 195.5 309Q196 268 196 223V0H85V678H234L426 284H429L622 678H771V0H658Z" glyph-name="Mdotbelow" horiz-adv-x="855" unicode="&#7746;" /><glyph d="M601 762H255V841H601ZM659 223Q659 268 660 309Q661 350 662 390Q663 430 664.5 470.5Q666 511 668 555H665Q648 507 631.5 467Q615 427 595 386L470 135H386L262 386Q242 427 225.5 467Q209 507 191 555H188Q190 511 191.5 470.5Q193 430 194.5 390Q196 350 196.5 309Q197 268 197 223V0H86V678H235L427 284H430L623 678H772V0H659Z" glyph-name="Mmacron" horiz-adv-x="857" unicode="&#57617;" /><glyph d="M446 308Q470 270 491.5 231Q513 192 532 157H535Q534 192 533 234Q532 276 531 319Q530 362 529.5 403.5Q529 445 529 479V678H639V0H515L278 372Q253 410 232.5 447.5Q212 485 193 521H190Q191 486 192 444Q193 402 194 359.5Q195 317 195.5 275.5Q196 234 196 200V0H86V678H212Z" glyph-name="N" horiz-adv-x="724" unicode="N" /><glyph d="M446 308Q470 270 491.5 231Q513 192 532 157H535Q534 192 533 234Q532 276 531 319Q530 362 529.5 403.5Q529 445 529 479V678H639V0H515L278 372Q253 410 232.5 447.5Q212 485 193 521H190Q191 486 192 444Q193 402 194 359.5Q195 317 195.5 275.5Q196 234 196 200V0H86V678H212ZM403 734H310L420 846H553Z" glyph-name="Nacute" horiz-adv-x="724" unicode="&#323;" /><glyph d="M446 308Q470 270 491.5 231Q513 192 532 157H535Q534 192 533 234Q532 276 531 319Q530 362 529.5 403.5Q529 445 529 479V678H639V0H515L278 372Q253 410 232.5 447.5Q212 485 193 521H190Q191 486 192 444Q193 402 194 359.5Q195 317 195.5 275.5Q196 234 196 200V0H86V678H212ZM202 848H302L366 783L431 848H531L415 730H317Z" glyph-name="Ncaron" horiz-adv-x="724" unicode="&#327;" /><glyph d="M446 308Q470 270 491.5 231Q513 192 532 157H535Q534 192 533 234Q532 276 531 319Q530 362 529.5 403.5Q529 445 529 479V678H639V0H515L278 372Q253 410 232.5 447.5Q212 485 193 521H190Q191 486 192 444Q193 402 194 359.5Q195 317 195.5 275.5Q196 234 196 200V0H86V678H212ZM345 -36Q381 -38 404 -45.5Q427 -53 440.5 -63Q454 -73 459.5 -85Q465 -97 465 -108Q465 -143 431.5 -161Q398 -179 338 -179Q321 -179 299 -177Q277 -175 251 -167V-106Q273 -114 290.5 -116Q308 -118 322 -118Q343 -118 357 -114Q371 -110 371 -98Q371 -85 356.5 -81Q342 -77 325 -75Z" glyph-name="Ncedilla" horiz-adv-x="724" unicode="&#57625;" /><glyph d="M446 308Q470 270 491.5 231Q513 192 532 157H535Q534 192 533 234Q532 276 531 319Q530 362 529.5 403.5Q529 445 529 479V678H639V0H515L278 372Q253 410 232.5 447.5Q212 485 193 521H190Q191 486 192 444Q193 402 194 359.5Q195 317 195.5 275.5Q196 234 196 200V0H86V678H212ZM302 -75H412L326 -258H262Z" glyph-name="Ncommaaccent" horiz-adv-x="724" unicode="&#325;" /><glyph d="M446 308Q470 270 491.5 231Q513 192 532 157H535Q534 192 533 234Q532 276 531 319Q530 362 529.5 403.5Q529 445 529 479V678H639V82H728V-118H635V0H515L278 372Q253 410 232.5 447.5Q212 485 193 521H190Q191 486 192 444Q193 402 194 359.5Q195 317 195.5 275.5Q196 234 196 200V0H86V678H212Z" glyph-name="Ndescender" horiz-adv-x="728" unicode="&#59398;" /><glyph d="M446 308Q470 270 491.5 231Q513 192 532 157H535Q534 192 533 234Q532 276 531 319Q530 362 529.5 403.5Q529 445 529 479V678H639V0H515L278 372Q253 410 232.5 447.5Q212 485 193 521H190Q191 486 192 444Q193 402 194 359.5Q195 317 195.5 275.5Q196 234 196 200V0H86V678H212ZM524 748H416V843H524ZM316 748H209V843H316Z" glyph-name="Ndieresis" horiz-adv-x="724" unicode="&#57621;" /><glyph d="M446 308Q470 270 491.5 231Q513 192 532 157H535Q534 192 533 234Q532 276 531 319Q530 362 529.5 403.5Q529 445 529 479V678H639V0H515L278 372Q253 410 232.5 447.5Q212 485 193 521H190Q191 486 192 444Q193 402 194 359.5Q195 317 195.5 275.5Q196 234 196 200V0H86V678H212ZM425 749H313V845H425Z" glyph-name="Ndotaccent" horiz-adv-x="724" unicode="&#7748;" /><glyph d="M408 -189H302V-92H408ZM446 308Q470 270 491.5 231Q513 192 532 157H535Q534 192 533 234Q532 276 531 319Q530 362 529.5 403.5Q529 445 529 479V678H639V0H515L278 372Q253 410 232.5 447.5Q212 485 193 521H190Q191 486 192 444Q193 402 194 359.5Q195 317 195.5 275.5Q196 234 196 200V0H86V678H212Z" glyph-name="Ndotbelow" horiz-adv-x="724" unicode="&#7750;" /><glyph d="M446 308Q470 270 491.5 231Q513 192 532 157H535Q534 192 533 234Q532 276 531 319Q530 362 529.5 403.5Q529 445 529 479V678H639V0H515L278 372Q253 410 232.5 447.5Q212 485 193 521H190Q191 486 192 444Q193 402 194 359.5Q195 317 195.5 275.5Q196 234 196 200V0H86V678H212ZM188 846H321L431 734H338Z" glyph-name="Ngrave" horiz-adv-x="724" unicode="&#504;" /><glyph d="M446 308Q470 270 491.5 231Q513 192 532 157H535Q534 192 533 234Q532 276 531 319Q530 362 529.5 403.5Q529 445 529 479V678H639V0H515L278 372Q253 410 232.5 447.5Q212 485 193 521H190Q191 486 192 444Q193 402 194 359.5Q195 317 195.5 275.5Q196 234 196 200V0H86V678H212ZM539 762H193V841H539Z" glyph-name="Nmacron" horiz-adv-x="724" unicode="&#57623;" /><glyph d="M441 826Q464 826 491.5 838Q519 850 539 864V787Q524 774 495.5 762Q467 750 441 750Q419 750 400 755Q381 760 363 766Q345 772 327.5 777Q310 782 292 782Q269 782 240.5 770.5Q212 759 191 745V823Q208 835 237 847.5Q266 860 291 860Q313 860 332 855Q351 850 368.5 843.5Q386 837 403.5 831.5Q421 826 441 826ZM446 308Q470 270 491.5 231Q513 192 532 157H535Q534 192 533 234Q532 276 531 319Q530 362 529.5 403.5Q529 445 529 479V678H639V0H515L278 372Q253 410 232.5 447.5Q212 485 193 521H190Q191 486 192 444Q193 402 194 359.5Q195 317 195.5 275.5Q196 234 196 200V0H86V678H212Z" glyph-name="Ntilde" horiz-adv-x="724" unicode="&#209;" /><glyph d="M173 339Q173 269 181.5 219.5Q190 170 211 138Q232 106 266.5 91Q301 76 352 76Q403 76 437.5 91Q472 106 493 138Q514 170 522.5 219.5Q531 269 531 339Q531 409 522.5 458.5Q514 508 493 540Q472 572 437.5 587Q403 602 352 602Q301 602 266.5 587Q232 572 211 540Q190 508 181.5 458.5Q173 409 173 339ZM653 339Q653 256 638.5 190.5Q624 125 589.5 79.5Q555 34 497 10Q439 -14 352 -14Q265 -14 207 10Q149 34 114.5 79.5Q80 125 66 190.5Q52 256 52 339Q52 423 66 488.5Q80 554 114.5 599Q149 644 207 668Q265 692 352 692Q439 692 497 668Q555 644 589.5 599Q624 554 638.5 488.5Q653 423 653 339Z" glyph-name="O" horiz-adv-x="704" unicode="O" /><glyph d="M173 339Q173 269 181.5 219.5Q190 170 211 138Q232 106 266.5 91Q301 76 352 76Q403 76 437.5 91Q472 106 493 138Q514 170 522.5 219.5Q531 269 531 339Q531 409 522.5 458.5Q514 508 493 540Q472 572 437.5 587Q403 602 352 602Q301 602 266.5 587Q232 572 211 540Q190 508 181.5 458.5Q173 409 173 339ZM972 0H537V44H535Q508 16 464.5 1Q421 -14 352 -14Q265 -14 207 10Q149 34 114.5 79.5Q80 125 66 190.5Q52 256 52 339Q52 423 66 488.5Q80 554 114.5 599Q149 644 207 668Q265 692 352 692Q420 692 464 677.5Q508 663 535 634H537V678H964V589H651V390H921V301H651V89H972Z" glyph-name="OE" horiz-adv-x="1006" unicode="&#338;" /><glyph d="M173 339Q173 269 181.5 219.5Q190 170 211 138Q232 106 266.5 91Q301 76 352 76Q403 76 437.5 91Q472 106 493 138Q514 170 522.5 219.5Q531 269 531 339Q531 409 522.5 458.5Q514 508 493 540Q472 572 437.5 587Q403 602 352 602Q301 602 266.5 587Q232 572 211 540Q190 508 181.5 458.5Q173 409 173 339ZM653 339Q653 256 638.5 190.5Q624 125 589.5 79.5Q555 34 497 10Q439 -14 352 -14Q265 -14 207 10Q149 34 114.5 79.5Q80 125 66 190.5Q52 256 52 339Q52 423 66 488.5Q80 554 114.5 599Q149 644 207 668Q265 692 352 692Q439 692 497 668Q555 644 589.5 599Q624 554 638.5 488.5Q653 423 653 339ZM387 734H294L404 846H537Z" glyph-name="Oacute" horiz-adv-x="704" unicode="&#211;" /><glyph d="M352 791Q384 791 410 802.5Q436 814 443 846H531Q520 780 472 752Q424 724 352 724Q281 724 232.5 752.5Q184 781 174 846H261Q269 814 294.5 802.5Q320 791 352 791ZM173 339Q173 269 181.5 219.5Q190 170 211 138Q232 106 266.5 91Q301 76 352 76Q403 76 437.5 91Q472 106 493 138Q514 170 522.5 219.5Q531 269 531 339Q531 409 522.5 458.5Q514 508 493 540Q472 572 437.5 587Q403 602 352 602Q301 602 266.5 587Q232 572 211 540Q190 508 181.5 458.5Q173 409 173 339ZM653 339Q653 256 638.5 190.5Q624 125 589.5 79.5Q555 34 497 10Q439 -14 352 -14Q265 -14 207 10Q149 34 114.5 79.5Q80 125 66 190.5Q52 256 52 339Q52 423 66 488.5Q80 554 114.5 599Q149 644 207 668Q265 692 352 692Q439 692 497 668Q555 644 589.5 599Q624 554 638.5 488.5Q653 423 653 339Z" glyph-name="Obreve" horiz-adv-x="704" unicode="&#334;" /><glyph d="M173 339Q173 269 181.5 219.5Q190 170 211 138Q232 106 266.5 91Q301 76 352 76Q403 76 437.5 91Q472 106 493 138Q514 170 522.5 219.5Q531 269 531 339Q531 409 522.5 458.5Q514 508 493 540Q472 572 437.5 587Q403 602 352 602Q301 602 266.5 587Q232 572 211 540Q190 508 181.5 458.5Q173 409 173 339ZM653 339Q653 256 638.5 190.5Q624 125 589.5 79.5Q555 34 497 10Q439 -14 352 -14Q265 -14 207 10Q149 34 114.5 79.5Q80 125 66 190.5Q52 256 52 339Q52 423 66 488.5Q80 554 114.5 599Q149 644 207 668Q265 692 352 692Q439 692 497 668Q555 644 589.5 599Q624 554 638.5 488.5Q653 423 653 339ZM188 848H288L352 783L417 848H517L401 730H303Z" glyph-name="Ocaron" horiz-adv-x="704" unicode="&#465;" /><glyph d="M173 339Q173 269 181.5 219.5Q190 170 211 138Q232 106 266.5 91Q301 76 352 76Q403 76 437.5 91Q472 106 493 138Q514 170 522.5 219.5Q531 269 531 339Q531 409 522.5 458.5Q514 508 493 540Q472 572 437.5 587Q403 602 352 602Q301 602 266.5 587Q232 572 211 540Q190 508 181.5 458.5Q173 409 173 339ZM653 339Q653 261 640.5 199Q628 137 598.5 92Q569 47 519.5 20.5Q470 -6 397 -12L385 -40Q418 -51 432 -67Q446 -83 446 -104Q446 -141 412.5 -160Q379 -179 316 -179Q299 -179 278.5 -177Q258 -175 232 -167V-106Q255 -114 273 -116Q291 -118 303 -118Q352 -118 352 -96Q352 -84 337 -78.5Q322 -73 304 -72L298 -46L313 -12Q238 -7 187.5 19Q137 45 107 90Q77 135 64.5 198Q52 261 52 339Q52 423 66 488.5Q80 554 114.5 599Q149 644 207 668Q265 692 352 692Q439 692 497 668Q555 644 589.5 599Q624 554 638.5 488.5Q653 423 653 339Z" glyph-name="Ocedilla" horiz-adv-x="704" unicode="&#57631;" /><glyph d="M173 339Q173 269 181.5 219.5Q190 170 211 138Q232 106 266.5 91Q301 76 352 76Q403 76 437.5 91Q472 106 493 138Q514 170 522.5 219.5Q531 269 531 339Q531 409 522.5 458.5Q514 508 493 540Q472 572 437.5 587Q403 602 352 602Q301 602 266.5 587Q232 572 211 540Q190 508 181.5 458.5Q173 409 173 339ZM653 339Q653 256 638.5 190.5Q624 125 589.5 79.5Q555 34 497 10Q439 -14 352 -14Q265 -14 207 10Q149 34 114.5 79.5Q80 125 66 190.5Q52 256 52 339Q52 423 66 488.5Q80 554 114.5 599Q149 644 207 668Q265 692 352 692Q439 692 497 668Q555 644 589.5 599Q624 554 638.5 488.5Q653 423 653 339ZM517 732H417L352 796L288 732H188L303 850H402Z" glyph-name="Ocircumflex" horiz-adv-x="704" unicode="&#212;" /><glyph d="M173 339Q173 269 181.5 219.5Q190 170 211 138Q232 106 266.5 91Q301 76 352 76Q403 76 437.5 91Q472 106 493 138Q514 170 522.5 219.5Q531 269 531 339Q531 409 522.5 458.5Q514 508 493 540Q472 572 437.5 587Q403 602 352 602Q301 602 266.5 587Q232 572 211 540Q190 508 181.5 458.5Q173 409 173 339ZM653 339Q653 256 638.5 190.5Q624 125 589.5 79.5Q555 34 497 10Q439 -14 352 -14Q265 -14 207 10Q149 34 114.5 79.5Q80 125 66 190.5Q52 256 52 339Q52 423 66 488.5Q80 554 114.5 599Q149 644 207 668Q265 692 352 692Q439 692 497 668Q555 644 589.5 599Q624 554 638.5 488.5Q653 423 653 339ZM752 565H642L728 747H792Z" glyph-name="Ocommaturnedabove" horiz-adv-x="790" unicode="&#57627;" /><glyph d="M173 339Q173 269 181.5 219.5Q190 170 211 138Q232 106 266.5 91Q301 76 352 76Q403 76 437.5 91Q472 106 493 138Q514 170 522.5 219.5Q531 269 531 339Q531 409 522.5 458.5Q514 508 493 540Q472 572 437.5 587Q403 602 352 602Q301 602 266.5 587Q232 572 211 540Q190 508 181.5 458.5Q173 409 173 339ZM653 339Q653 256 638.5 190.5Q624 125 589.5 79.5Q555 34 497 10Q439 -14 352 -14Q265 -14 207 10Q149 34 114.5 79.5Q80 125 66 190.5Q52 256 52 339Q52 423 66 488.5Q80 554 114.5 599Q149 644 207 668Q265 692 352 692Q439 692 497 668Q555 644 589.5 599Q624 554 638.5 488.5Q653 423 653 339ZM509 748H401V843H509ZM301 748H194V843H301Z" glyph-name="Odieresis" horiz-adv-x="704" unicode="&#214;" /><glyph d="M408 749H296V845H408ZM173 339Q173 269 181.5 219.5Q190 170 211 138Q232 106 266.5 91Q301 76 352 76Q403 76 437.5 91Q472 106 493 138Q514 170 522.5 219.5Q531 269 531 339Q531 409 522.5 458.5Q514 508 493 540Q472 572 437.5 587Q403 602 352 602Q301 602 266.5 587Q232 572 211 540Q190 508 181.5 458.5Q173 409 173 339ZM653 339Q653 256 638.5 190.5Q624 125 589.5 79.5Q555 34 497 10Q439 -14 352 -14Q265 -14 207 10Q149 34 114.5 79.5Q80 125 66 190.5Q52 256 52 339Q52 423 66 488.5Q80 554 114.5 599Q149 644 207 668Q265 692 352 692Q439 692 497 668Q555 644 589.5 599Q624 554 638.5 488.5Q653 423 653 339Z" glyph-name="Odotabove" horiz-adv-x="704" unicode="&#558;" /><glyph d="M409 747H297V844H409ZM525 909H180V988H525ZM173 339Q173 269 181.5 219.5Q190 170 211 138Q232 106 266.5 91Q301 76 352 76Q403 76 437.5 91Q472 106 493 138Q514 170 522.5 219.5Q531 269 531 339Q531 409 522.5 458.5Q514 508 493 540Q472 572 437.5 587Q403 602 352 602Q301 602 266.5 587Q232 572 211 540Q190 508 181.5 458.5Q173 409 173 339ZM653 339Q653 256 638.5 190.5Q624 125 589.5 79.5Q555 34 497 10Q439 -14 352 -14Q265 -14 207 10Q149 34 114.5 79.5Q80 125 66 190.5Q52 256 52 339Q52 423 66 488.5Q80 554 114.5 599Q149 644 207 668Q265 692 352 692Q439 692 497 668Q555 644 589.5 599Q624 554 638.5 488.5Q653 423 653 339Z" glyph-name="Odotabovemacron" horiz-adv-x="704" unicode="&#560;" /><glyph d="M405 -189H299V-92H405ZM173 339Q173 269 181.5 219.5Q190 170 211 138Q232 106 266.5 91Q301 76 352 76Q403 76 437.5 91Q472 106 493 138Q514 170 522.5 219.5Q531 269 531 339Q531 409 522.5 458.5Q514 508 493 540Q472 572 437.5 587Q403 602 352 602Q301 602 266.5 587Q232 572 211 540Q190 508 181.5 458.5Q173 409 173 339ZM653 339Q653 256 638.5 190.5Q624 125 589.5 79.5Q555 34 497 10Q439 -14 352 -14Q265 -14 207 10Q149 34 114.5 79.5Q80 125 66 190.5Q52 256 52 339Q52 423 66 488.5Q80 554 114.5 599Q149 644 207 668Q265 692 352 692Q439 692 497 668Q555 644 589.5 599Q624 554 638.5 488.5Q653 423 653 339Z" glyph-name="Odotbelow" horiz-adv-x="704" unicode="&#7884;" /><glyph d="M173 339Q173 269 181.5 219.5Q190 170 211 138Q232 106 266.5 91Q301 76 352 76Q403 76 437.5 91Q472 106 493 138Q514 170 522.5 219.5Q531 269 531 339Q531 409 522.5 458.5Q514 508 493 540Q472 572 437.5 587Q403 602 352 602Q301 602 266.5 587Q232 572 211 540Q190 508 181.5 458.5Q173 409 173 339ZM653 339Q653 256 638.5 190.5Q624 125 589.5 79.5Q555 34 497 10Q439 -14 352 -14Q265 -14 207 10Q149 34 114.5 79.5Q80 125 66 190.5Q52 256 52 339Q52 423 66 488.5Q80 554 114.5 599Q149 644 207 668Q265 692 352 692Q439 692 497 668Q555 644 589.5 599Q624 554 638.5 488.5Q653 423 653 339ZM93 846H212L321 733H242ZM256 846H376L485 733H405Z" glyph-name="Odoublegrave" horiz-adv-x="704" unicode="&#524;" /><glyph d="M161 846H294L404 734H311ZM173 339Q173 269 181.5 219.5Q190 170 211 138Q232 106 266.5 91Q301 76 352 76Q403 76 437.5 91Q472 106 493 138Q514 170 522.5 219.5Q531 269 531 339Q531 409 522.5 458.5Q514 508 493 540Q472 572 437.5 587Q403 602 352 602Q301 602 266.5 587Q232 572 211 540Q190 508 181.5 458.5Q173 409 173 339ZM653 339Q653 256 638.5 190.5Q624 125 589.5 79.5Q555 34 497 10Q439 -14 352 -14Q265 -14 207 10Q149 34 114.5 79.5Q80 125 66 190.5Q52 256 52 339Q52 423 66 488.5Q80 554 114.5 599Q149 644 207 668Q265 692 352 692Q439 692 497 668Q555 644 589.5 599Q624 554 638.5 488.5Q653 423 653 339Z" glyph-name="Ograve" horiz-adv-x="704" unicode="&#210;" /><glyph d="M173 339Q173 269 181.5 219.5Q190 170 211 138Q232 106 266.5 91Q301 76 352 76Q403 76 437.5 91Q472 106 493 138Q514 170 522.5 219.5Q531 269 531 339Q531 409 522.5 458.5Q514 508 493 540Q472 572 437.5 587Q403 602 352 602Q301 602 266.5 587Q232 572 211 540Q190 508 181.5 458.5Q173 409 173 339ZM653 339Q653 256 638.5 190.5Q624 125 589.5 79.5Q555 34 497 10Q439 -14 352 -14Q265 -14 207 10Q149 34 114.5 79.5Q80 125 66 190.5Q52 256 52 339Q52 423 66 488.5Q80 554 114.5 599Q149 644 207 668Q265 692 352 692Q439 692 497 668Q555 644 589.5 599Q624 554 638.5 488.5Q653 423 653 339ZM459 733H379L488 846H608ZM295 733H216L325 846H444Z" glyph-name="Ohungarumlaut" horiz-adv-x="704" unicode="&#336;" /><glyph d="M173 339Q173 269 181.5 219.5Q190 170 211 138Q232 106 266.5 91Q301 76 352 76Q403 76 437.5 91Q472 106 493 138Q514 170 522.5 219.5Q531 269 531 339Q531 409 522.5 458.5Q514 508 493 540Q472 572 437.5 587Q403 602 352 602Q301 602 266.5 587Q232 572 211 540Q190 508 181.5 458.5Q173 409 173 339ZM653 339Q653 256 638.5 190.5Q624 125 589.5 79.5Q555 34 497 10Q439 -14 352 -14Q265 -14 207 10Q149 34 114.5 79.5Q80 125 66 190.5Q52 256 52 339Q52 423 66 488.5Q80 554 114.5 599Q149 644 207 668Q265 692 352 692Q439 692 497 668Q555 644 589.5 599Q624 554 638.5 488.5Q653 423 653 339ZM352 788Q320 788 294.5 776.5Q269 765 261 733H174Q184 798 232.5 826.5Q281 855 352 855Q424 855 472 827Q520 799 531 733H443Q436 765 410 776.5Q384 788 352 788Z" glyph-name="Oinvertedbreve" horiz-adv-x="704" unicode="&#526;" /><glyph d="M173 339Q173 269 181.5 219.5Q190 170 211 138Q232 106 266.5 91Q301 76 352 76Q403 76 437.5 91Q472 106 493 138Q514 170 522.5 219.5Q531 269 531 339Q531 409 522.5 458.5Q514 508 493 540Q472 572 437.5 587Q403 602 352 602Q301 602 266.5 587Q232 572 211 540Q190 508 181.5 458.5Q173 409 173 339ZM653 339Q653 256 638.5 190.5Q624 125 589.5 79.5Q555 34 497 10Q439 -14 352 -14Q265 -14 207 10Q149 34 114.5 79.5Q80 125 66 190.5Q52 256 52 339Q52 423 66 488.5Q80 554 114.5 599Q149 644 207 668Q265 692 352 692Q439 692 497 668Q555 644 589.5 599Q624 554 638.5 488.5Q653 423 653 339ZM525 762H179V841H525Z" glyph-name="Omacron" horiz-adv-x="704" unicode="&#332;" /><glyph d="M173 339Q173 269 181.5 219.5Q190 170 211 138Q232 106 266.5 91Q301 76 352 76Q403 76 437.5 91Q472 106 493 138Q514 170 522.5 219.5Q531 269 531 339Q531 409 522.5 458.5Q514 508 493 540Q472 572 437.5 587Q403 602 352 602Q301 602 266.5 587Q232 572 211 540Q190 508 181.5 458.5Q173 409 173 339ZM653 339Q653 261 640.5 198.5Q628 136 598.5 91Q569 46 519.5 20Q470 -6 396 -12Q376 -29 366.5 -47.5Q357 -66 357 -81Q357 -116 399 -116Q414 -116 429.5 -114Q445 -112 464 -106V-167Q446 -175 422 -177Q398 -179 381 -179Q325 -179 298.5 -157Q272 -135 272 -100Q272 -76 284 -53Q296 -30 315 -13Q239 -8 188.5 18Q138 44 107.5 89Q77 134 64.5 197Q52 260 52 339Q52 423 66 488.5Q80 554 114.5 599Q149 644 207 668Q265 692 352 692Q439 692 497 668Q555 644 589.5 599Q624 554 638.5 488.5Q653 423 653 339Z" glyph-name="Oogonek" horiz-adv-x="704" unicode="&#490;" /><glyph d="M525 762H179V841H525ZM173 339Q173 269 181.5 219.5Q190 170 211 138Q232 106 266.5 91Q301 76 352 76Q403 76 437.5 91Q472 106 493 138Q514 170 522.5 219.5Q531 269 531 339Q531 409 522.5 458.5Q514 508 493 540Q472 572 437.5 587Q403 602 352 602Q301 602 266.5 587Q232 572 211 540Q190 508 181.5 458.5Q173 409 173 339ZM653 339Q653 261 640.5 198.5Q628 136 598 91Q568 46 518.5 20Q469 -6 395 -12Q375 -29 365.5 -47.5Q356 -66 356 -81Q356 -116 398 -116Q413 -116 428.5 -114Q444 -112 463 -106V-167Q445 -175 421 -177Q397 -179 380 -179Q324 -179 297.5 -157Q271 -135 271 -100Q271 -76 283 -53Q295 -30 314 -13Q238 -8 187.5 18Q137 44 107 89Q77 134 64.5 197Q52 260 52 339Q52 423 66 488.5Q80 554 114.5 599Q149 644 207 668Q265 692 352 692Q439 692 497 668Q555 644 589.5 599Q624 554 638.5 488.5Q653 423 653 339Z" glyph-name="Oogonekmacron" horiz-adv-x="704" unicode="&#492;" /><glyph d="M531 339Q531 420 519.5 473.5Q508 527 479 558L311 78Q321 76 331 76Q341 76 352 76Q403 76 437.5 91Q472 106 493 138Q514 170 522.5 219.5Q531 269 531 339ZM173 339Q173 255 185.5 200Q198 145 229 115L397 598Q386 600 375 601Q364 602 352 602Q301 602 266.5 587Q232 572 211 540Q190 508 181.5 458.5Q173 409 173 339ZM514 660Q592 622 622.5 540.5Q653 459 653 339Q653 256 638.5 190.5Q624 125 589.5 79.5Q555 34 497 10Q439 -14 352 -14Q332 -14 314.5 -12.5Q297 -11 281 -9L254 -86H159L194 16Q114 53 83 136Q52 219 52 339Q52 423 66 488.5Q80 554 114.5 599Q149 644 207 668Q265 692 352 692Q392 692 427 686L454 762H550Z" glyph-name="Oslash" horiz-adv-x="704" unicode="&#216;" /><glyph d="M377 734H284L394 846H527ZM531 339Q531 420 519.5 473.5Q508 527 479 558L311 78Q321 76 331 76Q341 76 352 76Q403 76 437.5 91Q472 106 493 138Q514 170 522.5 219.5Q531 269 531 339ZM173 339Q173 255 185.5 200Q198 145 229 115L397 598Q386 600 375 601Q364 602 352 602Q301 602 266.5 587Q232 572 211 540Q190 508 181.5 458.5Q173 409 173 339ZM514 660Q592 622 622.5 540.5Q653 459 653 339Q653 256 638.5 190.5Q624 125 589.5 79.5Q555 34 497 10Q439 -14 352 -14Q332 -14 314.5 -12.5Q297 -11 281 -9L254 -86H159L194 16Q114 53 83 136Q52 219 52 339Q52 423 66 488.5Q80 554 114.5 599Q149 644 207 668Q265 692 352 692Q392 692 427 686L454 762H550Z" glyph-name="Oslashacute" horiz-adv-x="704" unicode="&#510;" /><glyph d="M428 826Q451 826 478.5 838Q506 850 526 864V787Q511 774 482.5 762Q454 750 428 750Q406 750 387 755Q368 760 350 766Q332 772 314.5 777Q297 782 279 782Q256 782 227.5 770.5Q199 759 178 745V823Q195 835 224 847.5Q253 860 278 860Q300 860 319 855Q338 850 355.5 843.5Q373 837 390.5 831.5Q408 826 428 826ZM173 339Q173 269 181.5 219.5Q190 170 211 138Q232 106 266.5 91Q301 76 352 76Q403 76 437.5 91Q472 106 493 138Q514 170 522.5 219.5Q531 269 531 339Q531 409 522.5 458.5Q514 508 493 540Q472 572 437.5 587Q403 602 352 602Q301 602 266.5 587Q232 572 211 540Q190 508 181.5 458.5Q173 409 173 339ZM653 339Q653 256 638.5 190.5Q624 125 589.5 79.5Q555 34 497 10Q439 -14 352 -14Q265 -14 207 10Q149 34 114.5 79.5Q80 125 66 190.5Q52 256 52 339Q52 423 66 488.5Q80 554 114.5 599Q149 644 207 668Q265 692 352 692Q439 692 497 668Q555 644 589.5 599Q624 554 638.5 488.5Q653 423 653 339Z" glyph-name="Otilde" horiz-adv-x="704" unicode="&#213;" /><glyph d="M429 823Q451 823 479 835Q507 847 527 861V786Q511 774 482.5 761.5Q454 749 428 749Q407 749 388 754Q369 759 351 765Q333 771 315.5 776.5Q298 782 279 782Q256 782 228 770.5Q200 759 179 745V820Q195 832 224.5 844.5Q254 857 279 857Q301 857 319.5 852Q338 847 356 840.5Q374 834 391.5 828.5Q409 823 429 823ZM525 910H180V986H525ZM173 339Q173 269 181.5 219.5Q190 170 211 138Q232 106 266.5 91Q301 76 352 76Q403 76 437.5 91Q472 106 493 138Q514 170 522.5 219.5Q531 269 531 339Q531 409 522.5 458.5Q514 508 493 540Q472 572 437.5 587Q403 602 352 602Q301 602 266.5 587Q232 572 211 540Q190 508 181.5 458.5Q173 409 173 339ZM653 339Q653 256 638.5 190.5Q624 125 589.5 79.5Q555 34 497 10Q439 -14 352 -14Q265 -14 207 10Q149 34 114.5 79.5Q80 125 66 190.5Q52 256 52 339Q52 423 66 488.5Q80 554 114.5 599Q149 644 207 668Q265 692 352 692Q439 692 497 668Q555 644 589.5 599Q624 554 638.5 488.5Q653 423 653 339Z" glyph-name="Otildemacron" horiz-adv-x="704" unicode="&#556;" /><glyph d="M173 339Q173 269 181.5 219.5Q190 170 211 138Q232 106 266.5 91Q301 76 352 76Q403 76 437.5 91Q472 106 493 138Q514 170 522.5 219.5Q531 269 531 339Q531 409 522.5 458.5Q514 508 493 540Q472 572 437.5 587Q403 602 352 602Q301 602 266.5 587Q232 572 211 540Q190 508 181.5 458.5Q173 409 173 339ZM653 339Q653 256 638.5 190.5Q624 125 589.5 79.5Q555 34 497 10Q439 -14 352 -14Q265 -14 207 10Q149 34 114.5 79.5Q80 125 66 190.5Q52 256 52 339Q52 423 66 488.5Q80 554 114.5 599Q149 644 207 668Q265 692 352 692Q439 692 497 668Q555 644 589.5 599Q624 554 638.5 488.5Q653 423 653 339ZM398 -244H307V-75H398Z" glyph-name="Ounderlineaccent" horiz-adv-x="704" unicode="&#57633;" /><glyph d="M200 0H86V678H329Q406 678 455.5 666.5Q505 655 537 623Q563 597 577.5 554Q592 511 592 454Q592 398 577.5 354.5Q563 311 537 285Q505 253 455.5 241.5Q406 230 329 230H200ZM327 319Q370 319 396 322.5Q422 326 441 346Q471 375 471 454Q471 531 439 563Q420 582 395 585.5Q370 589 327 589H200V319Z" glyph-name="P" horiz-adv-x="621" unicode="P" /><glyph d="M477 762H131V841H477ZM200 0H86V678H329Q406 678 455.5 666.5Q505 655 537 623Q563 597 577.5 554Q592 511 592 454Q592 398 577.5 354.5Q563 311 537 285Q505 253 455.5 241.5Q406 230 329 230H200ZM327 319Q370 319 396 322.5Q422 326 441 346Q471 375 471 454Q471 531 439 563Q420 582 395 585.5Q370 589 327 589H200V319Z" glyph-name="Pmacron" horiz-adv-x="621" unicode="&#57635;" /><glyph d="M173 339Q173 269 181.5 219.5Q190 170 211 138Q232 106 266.5 91Q301 76 352 76Q403 76 437.5 91Q472 106 493 138Q514 170 522.5 219.5Q531 269 531 339Q531 409 522.5 458.5Q514 508 493 540Q472 572 437.5 587Q403 602 352 602Q301 602 266.5 587Q232 572 211 540Q190 508 181.5 458.5Q173 409 173 339ZM653 339Q653 225 625.5 146Q598 67 529 26L660 -118H522L420 -9Q404 -12 387 -13Q370 -14 352 -14Q265 -14 207 10Q149 34 114.5 79.5Q80 125 66 190.5Q52 256 52 339Q52 423 66 488.5Q80 554 114.5 599Q149 644 207 668Q265 692 352 692Q439 692 497 668Q555 644 589.5 599Q624 554 638.5 488.5Q653 423 653 339Z" glyph-name="Q" horiz-adv-x="704" unicode="Q" /><glyph d="M200 589V354H342Q380 354 402.5 358Q425 362 442 379Q456 392 464 414.5Q472 437 472 472Q472 507 464 529Q456 551 442 565Q425 582 402.5 585.5Q380 589 342 589ZM347 678Q419 678 463.5 667.5Q508 657 538 627Q563 602 576.5 562.5Q590 523 590 472Q590 370 537 317Q519 299 492.5 286Q466 273 431 268L613 0H481L303 265H200V0H86V678Z" glyph-name="R" horiz-adv-x="639" unicode="R" /><glyph d="M200 589V354H342Q380 354 402.5 358Q425 362 442 379Q456 392 464 414.5Q472 437 472 472Q472 507 464 529Q456 551 442 565Q425 582 402.5 585.5Q380 589 342 589ZM347 678Q419 678 463.5 667.5Q508 657 538 627Q563 602 576.5 562.5Q590 523 590 472Q590 370 537 317Q519 299 492.5 286Q466 273 431 268L613 0H481L303 265H200V0H86V678ZM338 734H245L355 846H488Z" glyph-name="Racute" horiz-adv-x="639" unicode="&#340;" /><glyph d="M200 589V354H342Q380 354 402.5 358Q425 362 442 379Q456 392 464 414.5Q472 437 472 472Q472 507 464 529Q456 551 442 565Q425 582 402.5 585.5Q380 589 342 589ZM347 678Q419 678 463.5 667.5Q508 657 538 627Q563 602 576.5 562.5Q590 523 590 472Q590 370 537 317Q519 299 492.5 286Q466 273 431 268L613 0H481L303 265H200V0H86V678ZM151 848H251L315 783L380 848H480L364 730H266Z" glyph-name="Rcaron" horiz-adv-x="639" unicode="&#344;" /><glyph d="M316 -36Q352 -38 375 -45.5Q398 -53 411.5 -63Q425 -73 430.5 -85Q436 -97 436 -108Q436 -143 402.5 -161Q369 -179 309 -179Q292 -179 270 -177Q248 -175 222 -167V-106Q244 -114 261.5 -116Q279 -118 293 -118Q314 -118 328 -114Q342 -110 342 -98Q342 -85 327.5 -81Q313 -77 296 -75ZM200 589V354H342Q380 354 402.5 358Q425 362 442 379Q456 392 464 414.5Q472 437 472 472Q472 507 464 529Q456 551 442 565Q425 582 402.5 585.5Q380 589 342 589ZM347 678Q419 678 463.5 667.5Q508 657 538 627Q563 602 576.5 562.5Q590 523 590 472Q590 370 537 317Q519 299 492.5 286Q466 273 431 268L613 0H481L303 265H200V0H86V678Z" glyph-name="Rcedilla" horiz-adv-x="639" unicode="&#57639;" /><glyph d="M200 589V354H342Q380 354 402.5 358Q425 362 442 379Q456 392 464 414.5Q472 437 472 472Q472 507 464 529Q456 551 442 565Q425 582 402.5 585.5Q380 589 342 589ZM347 678Q419 678 463.5 667.5Q508 657 538 627Q563 602 576.5 562.5Q590 523 590 472Q590 370 537 317Q519 299 492.5 286Q466 273 431 268L613 0H481L303 265H200V0H86V678ZM278 -75H388L302 -258H238Z" glyph-name="Rcommaaccent" horiz-adv-x="639" unicode="&#342;" /><glyph d="M388 -189H282V-92H388ZM200 589V354H342Q380 354 402.5 358Q425 362 442 379Q456 392 464 414.5Q472 437 472 472Q472 507 464 529Q456 551 442 565Q425 582 402.5 585.5Q380 589 342 589ZM347 678Q419 678 463.5 667.5Q508 657 538 627Q563 602 576.5 562.5Q590 523 590 472Q590 370 537 317Q519 299 492.5 286Q466 273 431 268L613 0H481L303 265H200V0H86V678Z" glyph-name="Rdotbelow" horiz-adv-x="639" unicode="&#7770;" /><glyph d="M388 -189H282V-92H388ZM480 762H134V841H480ZM200 589V354H342Q380 354 402.5 358Q425 362 442 379Q456 392 464 414.5Q472 437 472 472Q472 507 464 529Q456 551 442 565Q425 582 402.5 585.5Q380 589 342 589ZM347 678Q419 678 463.5 667.5Q508 657 538 627Q563 602 576.5 562.5Q590 523 590 472Q590 370 537 317Q519 299 492.5 286Q466 273 431 268L613 0H481L303 265H200V0H86V678Z" glyph-name="Rdotbelowmacron" horiz-adv-x="639" unicode="&#7772;" /><glyph d="M53 846H172L281 733H202ZM216 846H336L445 733H365ZM200 589V354H342Q380 354 402.5 358Q425 362 442 379Q456 392 464 414.5Q472 437 472 472Q472 507 464 529Q456 551 442 565Q425 582 402.5 585.5Q380 589 342 589ZM347 678Q419 678 463.5 667.5Q508 657 538 627Q563 602 576.5 562.5Q590 523 590 472Q590 370 537 317Q519 299 492.5 286Q466 273 431 268L613 0H481L303 265H200V0H86V678Z" glyph-name="Rdoublegrave" horiz-adv-x="639" unicode="&#57637;" /><glyph d="M200 589V354H342Q380 354 402.5 358Q425 362 442 379Q456 392 464 414.5Q472 437 472 472Q472 507 464 529Q456 551 442 565Q425 582 402.5 585.5Q380 589 342 589ZM347 678Q419 678 463.5 667.5Q508 657 538 627Q563 602 576.5 562.5Q590 523 590 472Q590 370 537 317Q519 299 492.5 286Q466 273 431 268L613 0H481L303 265H200V0H86V678ZM307 788Q275 788 249.5 776.5Q224 765 216 733H129Q139 798 187.5 826.5Q236 855 307 855Q379 855 427 827Q475 799 486 733H398Q391 765 365 776.5Q339 788 307 788Z" glyph-name="Rinvertedbreve" horiz-adv-x="639" unicode="&#530;" /><glyph d="M272 83Q319 83 351 91Q383 99 403 113Q423 127 432 147Q441 167 441 191Q441 226 430 246.5Q419 267 398 277.5Q377 288 347.5 291.5Q318 295 282 297Q235 299 194 308Q153 317 123 339Q93 361 75.5 398Q58 435 58 492Q58 548 79 586.5Q100 625 137 648.5Q174 672 223 682Q272 692 329 692Q342 692 363 691Q384 690 409 687Q434 684 459 679.5Q484 675 505 668V579Q455 593 407 597Q359 601 330 601Q176 601 176 502Q176 468 187.5 449Q199 430 219.5 421Q240 412 269 409.5Q298 407 333 405Q378 403 419 394Q460 385 491.5 362.5Q523 340 541.5 301.5Q560 263 560 201Q560 142 537 101.5Q514 61 475 35Q436 9 383.5 -2.5Q331 -14 272 -14Q259 -14 235 -13Q211 -12 182.5 -9Q154 -6 123.5 0Q93 6 68 15V109Q93 101 122.5 96Q152 91 180 88Q208 85 232 84Q256 83 272 83Z" glyph-name="S" horiz-adv-x="598" unicode="S" /><glyph d="M272 83Q319 83 351 91Q383 99 403 113Q423 127 432 147Q441 167 441 191Q441 226 430 246.5Q419 267 398 277.5Q377 288 347.5 291.5Q318 295 282 297Q235 299 194 308Q153 317 123 339Q93 361 75.5 398Q58 435 58 492Q58 548 79 586.5Q100 625 137 648.5Q174 672 223 682Q272 692 329 692Q342 692 363 691Q384 690 409 687Q434 684 459 679.5Q484 675 505 668V579Q455 593 407 597Q359 601 330 601Q176 601 176 502Q176 468 187.5 449Q199 430 219.5 421Q240 412 269 409.5Q298 407 333 405Q378 403 419 394Q460 385 491.5 362.5Q523 340 541.5 301.5Q560 263 560 201Q560 142 537 101.5Q514 61 475 35Q436 9 383.5 -2.5Q331 -14 272 -14Q259 -14 235 -13Q211 -12 182.5 -9Q154 -6 123.5 0Q93 6 68 15V109Q93 101 122.5 96Q152 91 180 88Q208 85 232 84Q256 83 272 83ZM338 734H245L355 846H488Z" glyph-name="Sacute" horiz-adv-x="598" unicode="&#346;" /><glyph d="M272 83Q319 83 351 91Q383 99 403 113Q423 127 432 147Q441 167 441 191Q441 226 430 246.5Q419 267 398 277.5Q377 288 347.5 291.5Q318 295 282 297Q235 299 194 308Q153 317 123 339Q93 361 75.5 398Q58 435 58 492Q58 548 79 586.5Q100 625 137 648.5Q174 672 223 682Q272 692 329 692Q342 692 363 691Q384 690 409 687Q434 684 459 679.5Q484 675 505 668V579Q455 593 407 597Q359 601 330 601Q176 601 176 502Q176 468 187.5 449Q199 430 219.5 421Q240 412 269 409.5Q298 407 333 405Q378 403 419 394Q460 385 491.5 362.5Q523 340 541.5 301.5Q560 263 560 201Q560 142 537 101.5Q514 61 475 35Q436 9 383.5 -2.5Q331 -14 272 -14Q259 -14 235 -13Q211 -12 182.5 -9Q154 -6 123.5 0Q93 6 68 15V109Q93 101 122.5 96Q152 91 180 88Q208 85 232 84Q256 83 272 83ZM137 848H237L301 783L366 848H466L350 730H252Z" glyph-name="Scaron" horiz-adv-x="598" unicode="&#352;" /><glyph d="M262 -14Q247 -14 223.5 -12.5Q200 -11 173 -8Q146 -5 118.5 0.5Q91 6 68 15V109Q93 101 122.5 96Q152 91 180 88Q208 85 232 84Q256 83 272 83Q319 83 351 91Q383 99 403 113Q423 127 432 147Q441 167 441 191Q441 226 430 246.5Q419 267 398 277.5Q377 288 347.5 291.5Q318 295 282 297Q235 299 194 308Q153 317 123 339Q93 361 75.5 398Q58 435 58 492Q58 548 79 586.5Q100 625 137 648.5Q174 672 223 682Q272 692 329 692Q342 692 363 691Q384 690 409 687Q434 684 459 679.5Q484 675 505 668V579Q455 593 407 597Q359 601 330 601Q176 601 176 502Q176 468 187.5 449Q199 430 219.5 421Q240 412 269 409.5Q298 407 333 405Q378 403 419 394Q460 385 491.5 362.5Q523 340 541.5 301.5Q560 263 560 201Q560 152 544 115.5Q528 79 499.5 53.5Q471 28 432 12.5Q393 -3 348 -9L335 -40Q368 -51 382 -67Q396 -83 396 -104Q396 -141 362.5 -160Q329 -179 266 -179Q249 -179 228.5 -177Q208 -175 182 -167V-106Q205 -114 223 -116Q241 -118 253 -118Q302 -118 302 -96Q302 -84 287 -78.5Q272 -73 254 -72L248 -46Z" glyph-name="Scedilla" horiz-adv-x="598" unicode="&#350;" /><glyph d="M327 76Q363 76 398.5 85.5Q434 95 458 119Q481 143 493.5 180Q506 217 511 275H167Q166 266 166 257Q166 248 166 240Q166 202 174.5 170Q183 138 206 115Q227 94 258 85Q289 76 327 76ZM513 364Q511 431 500.5 475.5Q490 520 460 550Q410 601 286 601Q266 601 241.5 599.5Q217 598 190 594.5Q163 591 135.5 585.5Q108 580 83 572V662Q108 671 137 676.5Q166 682 195.5 685.5Q225 689 254 690.5Q283 692 307 692Q395 692 457 671Q519 650 558.5 607Q598 564 616 498Q634 432 634 341Q634 240 610.5 172Q587 104 545.5 63Q504 22 448 4Q392 -14 327 -14Q183 -14 117.5 57Q52 128 52 270Q52 283 53.5 312Q55 341 57 364Z" glyph-name="Schwa" horiz-adv-x="686" unicode="&#399;" /><glyph d="M272 83Q319 83 351 91Q383 99 403 113Q423 127 432 147Q441 167 441 191Q441 226 430 246.5Q419 267 398 277.5Q377 288 347.5 291.5Q318 295 282 297Q235 299 194 308Q153 317 123 339Q93 361 75.5 398Q58 435 58 492Q58 548 79 586.5Q100 625 137 648.5Q174 672 223 682Q272 692 329 692Q342 692 363 691Q384 690 409 687Q434 684 459 679.5Q484 675 505 668V579Q455 593 407 597Q359 601 330 601Q176 601 176 502Q176 468 187.5 449Q199 430 219.5 421Q240 412 269 409.5Q298 407 333 405Q378 403 419 394Q460 385 491.5 362.5Q523 340 541.5 301.5Q560 263 560 201Q560 142 537 101.5Q514 61 475 35Q436 9 383.5 -2.5Q331 -14 272 -14Q259 -14 235 -13Q211 -12 182.5 -9Q154 -6 123.5 0Q93 6 68 15V109Q93 101 122.5 96Q152 91 180 88Q208 85 232 84Q256 83 272 83ZM465 732H365L300 796L236 732H136L251 850H350Z" glyph-name="Scircumflex" horiz-adv-x="598" unicode="&#348;" /><glyph d="M272 83Q319 83 351 91Q383 99 403 113Q423 127 432 147Q441 167 441 191Q441 226 430 246.5Q419 267 398 277.5Q377 288 347.5 291.5Q318 295 282 297Q235 299 194 308Q153 317 123 339Q93 361 75.5 398Q58 435 58 492Q58 548 79 586.5Q100 625 137 648.5Q174 672 223 682Q272 692 329 692Q342 692 363 691Q384 690 409 687Q434 684 459 679.5Q484 675 505 668V579Q455 593 407 597Q359 601 330 601Q176 601 176 502Q176 468 187.5 449Q199 430 219.5 421Q240 412 269 409.5Q298 407 333 405Q378 403 419 394Q460 385 491.5 362.5Q523 340 541.5 301.5Q560 263 560 201Q560 142 537 101.5Q514 61 475 35Q436 9 383.5 -2.5Q331 -14 272 -14Q259 -14 235 -13Q211 -12 182.5 -9Q154 -6 123.5 0Q93 6 68 15V109Q93 101 122.5 96Q152 91 180 88Q208 85 232 84Q256 83 272 83ZM256 -75H366L280 -258H216Z" glyph-name="Scommaaccent" horiz-adv-x="598" unicode="&#536;" /><glyph d="M357 -189H251V-92H357ZM272 83Q319 83 351 91Q383 99 403 113Q423 127 432 147Q441 167 441 191Q441 226 430 246.5Q419 267 398 277.5Q377 288 347.5 291.5Q318 295 282 297Q235 299 194 308Q153 317 123 339Q93 361 75.5 398Q58 435 58 492Q58 548 79 586.5Q100 625 137 648.5Q174 672 223 682Q272 692 329 692Q342 692 363 691Q384 690 409 687Q434 684 459 679.5Q484 675 505 668V579Q455 593 407 597Q359 601 330 601Q176 601 176 502Q176 468 187.5 449Q199 430 219.5 421Q240 412 269 409.5Q298 407 333 405Q378 403 419 394Q460 385 491.5 362.5Q523 340 541.5 301.5Q560 263 560 201Q560 142 537 101.5Q514 61 475 35Q436 9 383.5 -2.5Q331 -14 272 -14Q259 -14 235 -13Q211 -12 182.5 -9Q154 -6 123.5 0Q93 6 68 15V109Q93 101 122.5 96Q152 91 180 88Q208 85 232 84Q256 83 272 83Z" glyph-name="Sdotbelow" horiz-adv-x="598" unicode="&#7778;" /><glyph d="M321 0H206V589H11V678H516V589H321Z" glyph-name="T" horiz-adv-x="527" unicode="T" /><glyph d="M321 390H461V301H321V0H206V301H65V390H206V589H11V678H516V589H321Z" glyph-name="Tbar" horiz-adv-x="527" unicode="&#358;" /><glyph d="M321 0H206V589H11V678H516V589H321ZM99 848H199L263 783L328 848H428L312 730H214Z" glyph-name="Tcaron" horiz-adv-x="527" unicode="&#356;" /><glyph d="M321 0H206V589H11V678H516V589H321ZM246 -36Q282 -38 305 -45.5Q328 -53 341.5 -63Q355 -73 360.5 -85Q366 -97 366 -108Q366 -143 332.5 -161Q299 -179 239 -179Q222 -179 200 -177Q178 -175 152 -167V-106Q174 -114 191.5 -116Q209 -118 223 -118Q244 -118 258 -114Q272 -110 272 -98Q272 -85 257.5 -81Q243 -77 226 -75Z" glyph-name="Tcedilla" horiz-adv-x="527" unicode="&#57641;" /><glyph d="M321 0H206V589H11V678H516V589H321ZM208 -75H318L232 -258H168Z" glyph-name="Tcommaaccent" horiz-adv-x="527" unicode="&#354;" /><glyph d="M317 -189H211V-92H317ZM321 0H206V589H11V678H516V589H321Z" glyph-name="Tdotbelow" horiz-adv-x="527" unicode="&#7788;" /><glyph d="M200 0H86V678H201V561H329Q406 561 455.5 549.5Q505 538 537 506Q563 479 577.5 436Q592 393 592 337Q592 280 577.5 237Q563 194 537 167Q505 135 455.5 123.5Q406 112 329 112H200ZM327 202Q370 202 396 205.5Q422 209 441 228Q471 258 471 337Q471 415 439 445Q420 465 395 468.5Q370 472 327 472H200V202Z" glyph-name="Thorn" horiz-adv-x="626" unicode="&#222;" /><glyph d="M339 -14Q264 -14 213.5 1.5Q163 17 129 51Q94 86 82.5 131.5Q71 177 71 231V678H185V213Q185 190 191 162Q197 134 219 112Q238 93 265.5 83.5Q293 74 339 74Q385 74 413 83.5Q441 93 460 112Q482 134 488 162Q494 190 494 213V678H608V231Q608 177 596.5 131.5Q585 86 550 51Q516 17 465.5 1.5Q415 -14 339 -14Z" glyph-name="U" horiz-adv-x="679" unicode="U" /><glyph d="M928 0H455Q431 -8 402 -11Q373 -14 339 -14Q264 -14 213.5 1.5Q163 17 129 51Q94 86 82.5 131.5Q71 177 71 231V678H185V213Q185 190 191 162Q197 134 219 112Q238 93 265.5 83.5Q293 74 339 74Q382 74 410.5 83Q439 92 459 112Q477 130 485.5 154.5Q494 179 494 206V678H921V589H608V390H878V301H608V89H928Z" glyph-name="UE" horiz-adv-x="963" unicode="&#59481;" /><glyph d="M339 -14Q264 -14 213.5 1.5Q163 17 129 51Q94 86 82.5 131.5Q71 177 71 231V678H185V213Q185 190 191 162Q197 134 219 112Q238 93 265.5 83.5Q293 74 339 74Q385 74 413 83.5Q441 93 460 112Q482 134 488 162Q494 190 494 213V678H608V231Q608 177 596.5 131.5Q585 86 550 51Q516 17 465.5 1.5Q415 -14 339 -14ZM377 734H284L394 846H527Z" glyph-name="Uacute" horiz-adv-x="679" unicode="&#218;" /><glyph d="M339 791Q371 791 397 802.5Q423 814 430 846H518Q507 780 459 752Q411 724 339 724Q268 724 219.5 752.5Q171 781 161 846H248Q256 814 281.5 802.5Q307 791 339 791ZM339 -14Q264 -14 213.5 1.5Q163 17 129 51Q94 86 82.5 131.5Q71 177 71 231V678H185V213Q185 190 191 162Q197 134 219 112Q238 93 265.5 83.5Q293 74 339 74Q385 74 413 83.5Q441 93 460 112Q482 134 488 162Q494 190 494 213V678H608V231Q608 177 596.5 131.5Q585 86 550 51Q516 17 465.5 1.5Q415 -14 339 -14Z" glyph-name="Ubreve" horiz-adv-x="679" unicode="&#364;" /><glyph d="M339 -14Q264 -14 213.5 1.5Q163 17 129 51Q94 86 82.5 131.5Q71 177 71 231V678H185V213Q185 190 191 162Q197 134 219 112Q238 93 265.5 83.5Q293 74 339 74Q385 74 413 83.5Q441 93 460 112Q482 134 488 162Q494 190 494 213V678H608V231Q608 177 596.5 131.5Q585 86 550 51Q516 17 465.5 1.5Q415 -14 339 -14ZM175 848H275L339 783L404 848H504L388 730H290Z" glyph-name="Ucaron" horiz-adv-x="679" unicode="&#467;" /><glyph d="M339 -14Q264 -14 213.5 1.5Q163 17 129 51Q94 86 82.5 131.5Q71 177 71 231V678H185V213Q185 190 191 162Q197 134 219 112Q238 93 265.5 83.5Q293 74 339 74Q385 74 413 83.5Q441 93 460 112Q482 134 488 162Q494 190 494 213V678H608V231Q608 177 596.5 131.5Q585 86 550 51Q516 17 465.5 1.5Q415 -14 339 -14ZM504 732H404L339 796L275 732H175L290 850H389Z" glyph-name="Ucircumflex" horiz-adv-x="679" unicode="&#219;" /><glyph d="M339 -14Q264 -14 213.5 1.5Q163 17 129 51Q94 86 82.5 131.5Q71 177 71 231V678H185V213Q185 190 191 162Q197 134 219 112Q238 93 265.5 83.5Q293 74 339 74Q385 74 413 83.5Q441 93 460 112Q482 134 488 162Q494 190 494 213V678H608V231Q608 177 596.5 131.5Q585 86 550 51Q516 17 465.5 1.5Q415 -14 339 -14ZM497 748H389V843H497ZM289 748H182V843H289Z" glyph-name="Udieresis" horiz-adv-x="679" unicode="&#220;" /><glyph d="M393 -189H287V-92H393ZM339 -14Q264 -14 213.5 1.5Q163 17 129 51Q94 86 82.5 131.5Q71 177 71 231V678H185V213Q185 190 191 162Q197 134 219 112Q238 93 265.5 83.5Q293 74 339 74Q385 74 413 83.5Q441 93 460 112Q482 134 488 162Q494 190 494 213V678H608V231Q608 177 596.5 131.5Q585 86 550 51Q516 17 465.5 1.5Q415 -14 339 -14Z" glyph-name="Udotbelow" horiz-adv-x="679" unicode="&#7908;" /><glyph d="M85 846H204L313 733H234ZM248 846H368L477 733H397ZM339 -14Q264 -14 213.5 1.5Q163 17 129 51Q94 86 82.5 131.5Q71 177 71 231V678H185V213Q185 190 191 162Q197 134 219 112Q238 93 265.5 83.5Q293 74 339 74Q385 74 413 83.5Q441 93 460 112Q482 134 488 162Q494 190 494 213V678H608V231Q608 177 596.5 131.5Q585 86 550 51Q516 17 465.5 1.5Q415 -14 339 -14Z" glyph-name="Udoublegrave" horiz-adv-x="679" unicode="&#532;" /><glyph d="M157 846H290L400 734H307ZM339 -14Q264 -14 213.5 1.5Q163 17 129 51Q94 86 82.5 131.5Q71 177 71 231V678H185V213Q185 190 191 162Q197 134 219 112Q238 93 265.5 83.5Q293 74 339 74Q385 74 413 83.5Q441 93 460 112Q482 134 488 162Q494 190 494 213V678H608V231Q608 177 596.5 131.5Q585 86 550 51Q516 17 465.5 1.5Q415 -14 339 -14Z" glyph-name="Ugrave" horiz-adv-x="679" unicode="&#217;" /><glyph d="M445 733H365L474 846H594ZM281 733H202L311 846H430ZM339 -14Q264 -14 213.5 1.5Q163 17 129 51Q94 86 82.5 131.5Q71 177 71 231V678H185V213Q185 190 191 162Q197 134 219 112Q238 93 265.5 83.5Q293 74 339 74Q385 74 413 83.5Q441 93 460 112Q482 134 488 162Q494 190 494 213V678H608V231Q608 177 596.5 131.5Q585 86 550 51Q516 17 465.5 1.5Q415 -14 339 -14Z" glyph-name="Uhungarumlaut" horiz-adv-x="679" unicode="&#368;" /><glyph d="M339 -14Q264 -14 213.5 1.5Q163 17 129 51Q94 86 82.5 131.5Q71 177 71 231V678H185V213Q185 190 191 162Q197 134 219 112Q238 93 265.5 83.5Q293 74 339 74Q385 74 413 83.5Q441 93 460 112Q482 134 488 162Q494 190 494 213V678H608V231Q608 177 596.5 131.5Q585 86 550 51Q516 17 465.5 1.5Q415 -14 339 -14ZM339 788Q307 788 281.5 776.5Q256 765 248 733H161Q171 798 219.5 826.5Q268 855 339 855Q411 855 459 827Q507 799 518 733H430Q423 765 397 776.5Q371 788 339 788Z" glyph-name="Uinvertedbreve" horiz-adv-x="679" unicode="&#534;" /><glyph d="M512 762H166V841H512ZM339 -14Q264 -14 213.5 1.5Q163 17 129 51Q94 86 82.5 131.5Q71 177 71 231V678H185V213Q185 190 191 162Q197 134 219 112Q238 93 265.5 83.5Q293 74 339 74Q385 74 413 83.5Q441 93 460 112Q482 134 488 162Q494 190 494 213V678H608V231Q608 177 596.5 131.5Q585 86 550 51Q516 17 465.5 1.5Q415 -14 339 -14Z" glyph-name="Umacron" horiz-adv-x="679" unicode="&#362;" /><glyph d="M512 -162H166V-83H512ZM339 -14Q264 -14 213.5 1.5Q163 17 129 51Q94 86 82.5 131.5Q71 177 71 231V678H185V213Q185 190 191 162Q197 134 219 112Q238 93 265.5 83.5Q293 74 339 74Q385 74 413 83.5Q441 93 460 112Q482 134 488 162Q494 190 494 213V678H608V231Q608 177 596.5 131.5Q585 86 550 51Q516 17 465.5 1.5Q415 -14 339 -14Z" glyph-name="Umacronbelow" horiz-adv-x="679" unicode="&#57643;" /><glyph d="M259 -100Q259 -76 271 -53Q283 -30 302 -13Q242 -9 200 6Q158 21 129 51Q94 86 82.5 131.5Q71 177 71 231V678H185V213Q185 190 191 162Q197 134 219 112Q238 93 265.5 83.5Q293 74 339 74Q385 74 413 83.5Q441 93 460 112Q482 134 488 162Q494 190 494 213V678H608V231Q608 177 596.5 131.5Q585 86 550 51Q521 22 480.5 7Q440 -8 383 -12Q362 -29 353 -47.5Q344 -66 344 -81Q344 -116 386 -116Q401 -116 416.5 -114Q432 -112 451 -106V-167Q433 -175 409 -177Q385 -179 368 -179Q312 -179 285.5 -157Q259 -135 259 -100Z" glyph-name="Uogonek" horiz-adv-x="679" unicode="&#370;" /><glyph d="M339 -14Q264 -14 213.5 1.5Q163 17 129 51Q94 86 82.5 131.5Q71 177 71 231V678H185V213Q185 190 191 162Q197 134 219 112Q238 93 265.5 83.5Q293 74 339 74Q385 74 413 83.5Q441 93 460 112Q482 134 488 162Q494 190 494 213V678H608V231Q608 177 596.5 131.5Q585 86 550 51Q516 17 465.5 1.5Q415 -14 339 -14ZM436 805Q436 763 411.5 745.5Q387 728 340 728Q294 728 268.5 745.5Q243 763 243 805Q243 846 268.5 863.5Q294 881 340 881Q387 881 411.5 863.5Q436 846 436 805ZM375 805Q375 837 340 837Q304 837 304 805Q304 774 340 774Q375 774 375 805Z" glyph-name="Uring" horiz-adv-x="679" unicode="&#366;" /><glyph d="M415 826Q438 826 465.5 838Q493 850 513 864V787Q498 774 469.5 762Q441 750 415 750Q393 750 374 755Q355 760 337 766Q319 772 301.5 777Q284 782 266 782Q243 782 214.5 770.5Q186 759 165 745V823Q182 835 211 847.5Q240 860 265 860Q287 860 306 855Q325 850 342.5 843.5Q360 837 377.5 831.5Q395 826 415 826ZM339 -14Q264 -14 213.5 1.5Q163 17 129 51Q94 86 82.5 131.5Q71 177 71 231V678H185V213Q185 190 191 162Q197 134 219 112Q238 93 265.5 83.5Q293 74 339 74Q385 74 413 83.5Q441 93 460 112Q482 134 488 162Q494 190 494 213V678H608V231Q608 177 596.5 131.5Q585 86 550 51Q516 17 465.5 1.5Q415 -14 339 -14Z" glyph-name="Utilde" horiz-adv-x="679" unicode="&#360;" /><glyph d="M616 678 382 0H238L5 678H127L243 330Q260 277 278 219Q296 161 311 110H314Q329 161 347.5 219Q366 277 383 330L499 678Z" glyph-name="V" horiz-adv-x="620" unicode="V" /><glyph d="M476 429Q470 411 462.5 387.5Q455 364 447 339.5Q439 315 430 290Q421 265 414 244L328 0H199L10 678H126L211 355Q227 297 241.5 237Q256 177 268 119H272Q289 176 308 233.5Q327 291 346 347L422 568L383 678H499L607 361Q627 301 647 240.5Q667 180 684 120H688Q702 180 717 242Q732 304 749 368L831 678H944L755 0H626L542 244Q534 265 526 290Q518 315 509.5 339.5Q501 364 493 387.5Q485 411 479 429Z" glyph-name="W" horiz-adv-x="954" unicode="W" /><glyph d="M476 429Q470 411 462.5 387.5Q455 364 447 339.5Q439 315 430 290Q421 265 414 244L328 0H199L10 678H126L211 355Q227 297 241.5 237Q256 177 268 119H272Q289 176 308 233.5Q327 291 346 347L422 568L383 678H499L607 361Q627 301 647 240.5Q667 180 684 120H688Q702 180 717 242Q732 304 749 368L831 678H944L755 0H626L542 244Q534 265 526 290Q518 315 509.5 339.5Q501 364 493 387.5Q485 411 479 429ZM485 734H392L502 846H635Z" glyph-name="Wacute" horiz-adv-x="954" unicode="&#7810;" /><glyph d="M476 429Q470 411 462.5 387.5Q455 364 447 339.5Q439 315 430 290Q421 265 414 244L328 0H199L10 678H126L211 355Q227 297 241.5 237Q256 177 268 119H272Q289 176 308 233.5Q327 291 346 347L422 568L383 678H499L607 361Q627 301 647 240.5Q667 180 684 120H688Q702 180 717 242Q732 304 749 368L831 678H944L755 0H626L542 244Q534 265 526 290Q518 315 509.5 339.5Q501 364 493 387.5Q485 411 479 429ZM639 732H539L474 796L410 732H310L425 850H524Z" glyph-name="Wcircumflex" horiz-adv-x="954" unicode="&#372;" /><glyph d="M476 429Q470 411 462.5 387.5Q455 364 447 339.5Q439 315 430 290Q421 265 414 244L328 0H199L10 678H126L211 355Q227 297 241.5 237Q256 177 268 119H272Q289 176 308 233.5Q327 291 346 347L422 568L383 678H499L607 361Q627 301 647 240.5Q667 180 684 120H688Q702 180 717 242Q732 304 749 368L831 678H944L755 0H626L542 244Q534 265 526 290Q518 315 509.5 339.5Q501 364 493 387.5Q485 411 479 429ZM630 748H522V843H630ZM422 748H315V843H422Z" glyph-name="Wdieresis" horiz-adv-x="954" unicode="&#7812;" /><glyph d="M239 846H372L482 734H389ZM476 429Q470 411 462.5 387.5Q455 364 447 339.5Q439 315 430 290Q421 265 414 244L328 0H199L10 678H126L211 355Q227 297 241.5 237Q256 177 268 119H272Q289 176 308 233.5Q327 291 346 347L422 568L383 678H499L607 361Q627 301 647 240.5Q667 180 684 120H688Q702 180 717 242Q732 304 749 368L831 678H944L755 0H626L542 244Q534 265 526 290Q518 315 509.5 339.5Q501 364 493 387.5Q485 411 479 429Z" glyph-name="Wgrave" horiz-adv-x="954" unicode="&#7808;" /><glyph d="M136 678 291 438 446 678H574L354 347L582 0H450L288 252L127 0H-1L225 343L4 678Z" glyph-name="X" horiz-adv-x="582" unicode="X" /><glyph d="M300 356H302L479 678H598L355 256V0H241V255L-1 678H125Z" glyph-name="Y" horiz-adv-x="598" unicode="Y" /><glyph d="M337 734H244L354 846H487ZM300 356H302L479 678H598L355 256V0H241V255L-1 678H125Z" glyph-name="Yacute" horiz-adv-x="598" unicode="&#221;" /><glyph d="M467 732H367L302 796L238 732H138L253 850H352ZM300 356H302L479 678H598L355 256V0H241V255L-1 678H125Z" glyph-name="Ycircumflex" horiz-adv-x="598" unicode="&#374;" /><glyph d="M460 748H352V843H460ZM252 748H145V843H252ZM300 356H302L479 678H598L355 256V0H241V255L-1 678H125Z" glyph-name="Ydieresis" horiz-adv-x="598" unicode="&#376;" /><glyph d="M114 846H247L357 734H264ZM300 356H302L479 678H598L355 256V0H241V255L-1 678H125Z" glyph-name="Ygrave" horiz-adv-x="598" unicode="&#7922;" /><glyph d="M474 762H128V841H474ZM300 356H302L479 678H598L355 256V0H241V255L-1 678H125Z" glyph-name="Ymacron" horiz-adv-x="598" unicode="&#562;" /><glyph d="M8 -7Q34 -15 62.5 -20.5Q91 -26 118 -29Q145 -32 168.5 -33.5Q192 -35 208 -35Q301 -35 346 4Q391 43 391 102Q391 145 377.5 173Q364 201 338.5 217.5Q313 234 277.5 241Q242 248 199 248Q170 248 133 245L128 325L345 587V589H29V678H482V592L275 344Q323 340 366 324.5Q409 309 441 280.5Q473 252 491.5 209.5Q510 167 510 108Q510 42 485 -3.5Q460 -49 418 -77.5Q376 -106 321.5 -119Q267 -132 208 -132Q189 -132 164 -130.5Q139 -129 112 -125.5Q85 -122 58 -116.5Q31 -111 8 -103Z" glyph-name="Yogh" horiz-adv-x="557" unicode="&#439;" /><glyph d="M8 -7Q34 -15 62.5 -20.5Q91 -26 118 -29Q145 -32 168.5 -33.5Q192 -35 208 -35Q301 -35 346 4Q391 43 391 102Q391 145 377.5 173Q364 201 338.5 217.5Q313 234 277.5 241Q242 248 199 248Q170 248 133 245L128 325L345 587V589H29V678H482V592L275 344Q323 340 366 324.5Q409 309 441 280.5Q473 252 491.5 209.5Q510 167 510 108Q510 42 485 -3.5Q460 -49 418 -77.5Q376 -106 321.5 -119Q267 -132 208 -132Q189 -132 164 -130.5Q139 -129 112 -125.5Q85 -122 58 -116.5Q31 -111 8 -103ZM104 848H204L268 783L333 848H433L317 730H219Z" glyph-name="Yoghcaron" horiz-adv-x="553" unicode="&#59526;" /><glyph d="M378 832Q401 832 428.5 844Q456 856 476 870V793Q461 780 432.5 768Q404 756 378 756Q356 756 337 761Q318 766 300 772Q282 778 264.5 783Q247 788 229 788Q206 788 177.5 776.5Q149 765 128 751V829Q145 841 174 853.5Q203 866 228 866Q250 866 269 861Q288 856 305.5 849.5Q323 843 340.5 837.5Q358 832 378 832ZM300 356H302L479 678H598L355 256V0H241V255L-1 678H125Z" glyph-name="Ytilde" horiz-adv-x="598" unicode="&#7928;" /><glyph d="M511 596 173 91V89H513V0H37V81L375 588V589H58V678H511Z" glyph-name="Z" horiz-adv-x="550" unicode="Z" /><glyph d="M511 596 173 91V89H513V0H37V81L375 588V589H58V678H511ZM310 734H217L327 846H460Z" glyph-name="Zacute" horiz-adv-x="550" unicode="&#377;" /><glyph d="M511 596 173 91V89H513V0H37V81L375 588V589H58V678H511ZM122 848H222L286 783L351 848H451L335 730H237Z" glyph-name="Zcaron" horiz-adv-x="550" unicode="&#381;" /><glyph d="M343 749H231V845H343ZM511 596 173 91V89H513V0H37V81L375 588V589H58V678H511Z" glyph-name="Zdotaccent" horiz-adv-x="550" unicode="&#379;" /><glyph d="M369 232Q343 234 320 235Q297 236 286 236Q236 236 212 229.5Q188 223 172 207Q164 199 159.5 186Q155 173 155 150Q155 127 162 113Q169 99 182 91Q195 83 212.5 80Q230 77 250 77Q297 77 324.5 92.5Q352 108 369 133ZM280 311Q295 311 319 310.5Q343 310 369 308V363Q369 386 365 401Q361 416 348 425Q335 434 310 437.5Q285 441 243 441Q217 441 175.5 437Q134 433 85 422V505Q106 511 130.5 514.5Q155 518 180 520Q205 522 226.5 523Q248 524 263 524Q319 524 359 517Q399 510 425 492Q451 474 463 443Q475 412 475 363V0H401L386 53H385Q357 23 316.5 6.5Q276 -10 229 -10Q187 -10 149.5 0.5Q112 11 86 36Q66 56 55.5 85Q45 114 45 148Q45 221 84 259Q100 275 122.5 285Q145 295 170.5 301Q196 307 224 309Q252 311 280 311Z" glyph-name="a" horiz-adv-x="546" unicode="a" /><glyph d="M416 400Q405 409 389 417Q375 423 354 428.5Q333 434 304 434Q229 434 197 391Q165 348 165 254Q165 160 194 118.5Q223 77 289 77Q316 77 337.5 85Q359 93 375 104.5Q391 116 401 127Q411 138 416 144ZM453 510H523V0H447L435 58H434Q423 48 408.5 36Q394 24 374.5 13.5Q355 3 330 -4Q305 -11 274 -11Q227 -11 186.5 1.5Q146 14 116 45Q86 76 68.5 127Q51 178 51 255Q51 330 70.5 381Q90 432 123.5 463Q157 494 201 507.5Q245 521 294 521Q328 521 353.5 515Q379 509 396.5 501Q414 493 424.5 486Q435 479 438 476H440Z" glyph-name="a.hist" horiz-adv-x="603" unicode="&#59153;" /><glyph d="M188 207H350L300 351Q292 375 283.5 401Q275 427 270 451H268Q263 428 254.5 401.5Q246 375 238 351ZM379 127H158L113 0H3L209 541H330L537 0H425Z" glyph-name="a.small" horiz-adv-x="539" unicode="&#63329;" /><glyph d="M223 426Q219 426 212.5 426.5Q206 427 199.5 427Q193 427 187.5 427Q182 427 181 427Q154 427 141 423Q128 419 119 410Q109 400 109 376Q109 351 123 343Q137 335 159 335Q184 335 199 342.5Q214 350 223 364ZM177 481Q178 481 183.5 481Q189 481 196.5 481Q204 481 211 480.5Q218 480 223 480V508Q223 521 221 529.5Q219 538 211.5 542.5Q204 547 190.5 549Q177 551 155 551Q138 551 111.5 548.5Q85 546 50 538V599Q65 603 81.5 605.5Q98 608 114 609.5Q130 611 143.5 612Q157 613 166 613Q239 613 272 592Q305 571 305 509V279H244L237 308H236Q224 294 198.5 283.5Q173 273 146 273Q118 273 93.5 279.5Q69 286 53 302Q25 330 25 375Q25 421 51 447Q72 468 106.5 474.5Q141 481 177 481Z" glyph-name="a.superior" horiz-adv-x="354" unicode="&#58209;" /><glyph d="M300 566H207L317 678H450ZM369 232Q343 234 320 235Q297 236 286 236Q236 236 212 229.5Q188 223 172 207Q164 199 159.5 186Q155 173 155 150Q155 127 162 113Q169 99 182 91Q195 83 212.5 80Q230 77 250 77Q297 77 324.5 92.5Q352 108 369 133ZM280 311Q295 311 319 310.5Q343 310 369 308V363Q369 386 365 401Q361 416 348 425Q335 434 310 437.5Q285 441 243 441Q217 441 175.5 437Q134 433 85 422V505Q106 511 130.5 514.5Q155 518 180 520Q205 522 226.5 523Q248 524 263 524Q319 524 359 517Q399 510 425 492Q451 474 463 443Q475 412 475 363V0H401L386 53H385Q357 23 316.5 6.5Q276 -10 229 -10Q187 -10 149.5 0.5Q112 11 86 36Q66 56 55.5 85Q45 114 45 148Q45 221 84 259Q100 275 122.5 285Q145 295 170.5 301Q196 307 224 309Q252 311 280 311Z" glyph-name="aacute" horiz-adv-x="546" unicode="&#225;" /><glyph d="M416 400Q405 409 389 417Q375 423 354 428.5Q333 434 304 434Q229 434 197 391Q165 348 165 254Q165 160 194 118.5Q223 77 289 77Q316 77 337.5 85Q359 93 375 104.5Q391 116 401 127Q411 138 416 144ZM453 510H523V0H447L435 58H434Q423 48 408.5 36Q394 24 374.5 13.5Q355 3 330 -4Q305 -11 274 -11Q227 -11 186.5 1.5Q146 14 116 45Q86 76 68.5 127Q51 178 51 255Q51 330 70.5 381Q90 432 123.5 463Q157 494 201 507.5Q245 521 294 521Q328 521 353.5 515Q379 509 396.5 501Q414 493 424.5 486Q435 479 438 476H440ZM328 566H235L345 678H478Z" glyph-name="aacute.hist" horiz-adv-x="603" unicode="&#59154;" /><glyph d="M188 207H350L300 351Q292 375 283.5 401Q275 427 270 451H268Q263 428 254.5 401.5Q246 375 238 351ZM379 127H158L113 0H3L209 541H330L537 0H425ZM317 598H224L334 710H467Z" glyph-name="aacute.small" horiz-adv-x="539" unicode="&#63457;" /><glyph d="M273 623Q305 623 331 634.5Q357 646 364 678H452Q441 612 393 584Q345 556 273 556Q202 556 153.5 584.5Q105 613 95 678H182Q190 646 215.5 634.5Q241 623 273 623ZM369 232Q343 234 320 235Q297 236 286 236Q236 236 212 229.5Q188 223 172 207Q164 199 159.5 186Q155 173 155 150Q155 127 162 113Q169 99 182 91Q195 83 212.5 80Q230 77 250 77Q297 77 324.5 92.5Q352 108 369 133ZM280 311Q295 311 319 310.5Q343 310 369 308V363Q369 386 365 401Q361 416 348 425Q335 434 310 437.5Q285 441 243 441Q217 441 175.5 437Q134 433 85 422V505Q106 511 130.5 514.5Q155 518 180 520Q205 522 226.5 523Q248 524 263 524Q319 524 359 517Q399 510 425 492Q451 474 463 443Q475 412 475 363V0H401L386 53H385Q357 23 316.5 6.5Q276 -10 229 -10Q187 -10 149.5 0.5Q112 11 86 36Q66 56 55.5 85Q45 114 45 148Q45 221 84 259Q100 275 122.5 285Q145 295 170.5 301Q196 307 224 309Q252 311 280 311Z" glyph-name="abreve" horiz-adv-x="546" unicode="&#259;" /><glyph d="M301 623Q333 623 359 634.5Q385 646 392 678H480Q469 612 421 584Q373 556 301 556Q230 556 181.5 584.5Q133 613 123 678H210Q218 646 243.5 634.5Q269 623 301 623ZM416 400Q405 409 389 417Q375 423 354 428.5Q333 434 304 434Q229 434 197 391Q165 348 165 254Q165 160 194 118.5Q223 77 289 77Q316 77 337.5 85Q359 93 375 104.5Q391 116 401 127Q411 138 416 144ZM453 510H523V0H447L435 58H434Q423 48 408.5 36Q394 24 374.5 13.5Q355 3 330 -4Q305 -11 274 -11Q227 -11 186.5 1.5Q146 14 116 45Q86 76 68.5 127Q51 178 51 255Q51 330 70.5 381Q90 432 123.5 463Q157 494 201 507.5Q245 521 294 521Q328 521 353.5 515Q379 509 396.5 501Q414 493 424.5 486Q435 479 438 476H440Z" glyph-name="abreve.hist" horiz-adv-x="603" unicode="&#59155;" /><glyph d="M268 655Q300 655 326 666.5Q352 678 359 710H447Q436 644 388 616Q340 588 268 588Q197 588 148.5 616.5Q100 645 90 710H177Q185 678 210.5 666.5Q236 655 268 655ZM188 207H350L300 351Q292 375 283.5 401Q275 427 270 451H268Q263 428 254.5 401.5Q246 375 238 351ZM379 127H158L113 0H3L209 541H330L537 0H425Z" glyph-name="abreve.small" horiz-adv-x="539" unicode="&#63040;" /><glyph d="M107 680H207L271 615L336 680H436L320 562H222ZM369 232Q343 234 320 235Q297 236 286 236Q236 236 212 229.5Q188 223 172 207Q164 199 159.5 186Q155 173 155 150Q155 127 162 113Q169 99 182 91Q195 83 212.5 80Q230 77 250 77Q297 77 324.5 92.5Q352 108 369 133ZM280 311Q295 311 319 310.5Q343 310 369 308V363Q369 386 365 401Q361 416 348 425Q335 434 310 437.5Q285 441 243 441Q217 441 175.5 437Q134 433 85 422V505Q106 511 130.5 514.5Q155 518 180 520Q205 522 226.5 523Q248 524 263 524Q319 524 359 517Q399 510 425 492Q451 474 463 443Q475 412 475 363V0H401L386 53H385Q357 23 316.5 6.5Q276 -10 229 -10Q187 -10 149.5 0.5Q112 11 86 36Q66 56 55.5 85Q45 114 45 148Q45 221 84 259Q100 275 122.5 285Q145 295 170.5 301Q196 307 224 309Q252 311 280 311Z" glyph-name="acaron" horiz-adv-x="546" unicode="&#462;" /><glyph d="M416 400Q405 409 389 417Q375 423 354 428.5Q333 434 304 434Q229 434 197 391Q165 348 165 254Q165 160 194 118.5Q223 77 289 77Q316 77 337.5 85Q359 93 375 104.5Q391 116 401 127Q411 138 416 144ZM453 510H523V0H447L435 58H434Q423 48 408.5 36Q394 24 374.5 13.5Q355 3 330 -4Q305 -11 274 -11Q227 -11 186.5 1.5Q146 14 116 45Q86 76 68.5 127Q51 178 51 255Q51 330 70.5 381Q90 432 123.5 463Q157 494 201 507.5Q245 521 294 521Q328 521 353.5 515Q379 509 396.5 501Q414 493 424.5 486Q435 479 438 476H440ZM135 680H235L299 615L364 680H464L348 562H250Z" glyph-name="acaron.hist" horiz-adv-x="603" unicode="&#59156;" /><glyph d="M188 207H350L300 351Q292 375 283.5 401Q275 427 270 451H268Q263 428 254.5 401.5Q246 375 238 351ZM379 127H158L113 0H3L209 541H330L537 0H425ZM105 712H205L269 647L334 712H434L318 594H220Z" glyph-name="acaron.small" horiz-adv-x="539" unicode="&#59157;" /><glyph d="M439 564H339L274 628L210 564H110L225 682H324ZM369 232Q343 234 320 235Q297 236 286 236Q236 236 212 229.5Q188 223 172 207Q164 199 159.5 186Q155 173 155 150Q155 127 162 113Q169 99 182 91Q195 83 212.5 80Q230 77 250 77Q297 77 324.5 92.5Q352 108 369 133ZM280 311Q295 311 319 310.5Q343 310 369 308V363Q369 386 365 401Q361 416 348 425Q335 434 310 437.5Q285 441 243 441Q217 441 175.5 437Q134 433 85 422V505Q106 511 130.5 514.5Q155 518 180 520Q205 522 226.5 523Q248 524 263 524Q319 524 359 517Q399 510 425 492Q451 474 463 443Q475 412 475 363V0H401L386 53H385Q357 23 316.5 6.5Q276 -10 229 -10Q187 -10 149.5 0.5Q112 11 86 36Q66 56 55.5 85Q45 114 45 148Q45 221 84 259Q100 275 122.5 285Q145 295 170.5 301Q196 307 224 309Q252 311 280 311Z" glyph-name="acircumflex" horiz-adv-x="546" unicode="&#226;" /><glyph d="M416 400Q405 409 389 417Q375 423 354 428.5Q333 434 304 434Q229 434 197 391Q165 348 165 254Q165 160 194 118.5Q223 77 289 77Q316 77 337.5 85Q359 93 375 104.5Q391 116 401 127Q411 138 416 144ZM453 510H523V0H447L435 58H434Q423 48 408.5 36Q394 24 374.5 13.5Q355 3 330 -4Q305 -11 274 -11Q227 -11 186.5 1.5Q146 14 116 45Q86 76 68.5 127Q51 178 51 255Q51 330 70.5 381Q90 432 123.5 463Q157 494 201 507.5Q245 521 294 521Q328 521 353.5 515Q379 509 396.5 501Q414 493 424.5 486Q435 479 438 476H440ZM461 564H361L296 628L232 564H132L247 682H346Z" glyph-name="acircumflex.hist" horiz-adv-x="603" unicode="&#59158;" /><glyph d="M435 594H335L270 658L206 594H105L221 712H320ZM188 207H350L300 351Q292 375 283.5 401Q275 427 270 451H268Q263 428 254.5 401.5Q246 375 238 351ZM379 127H158L113 0H3L209 541H330L537 0H425Z" glyph-name="acircumflex.small" horiz-adv-x="539" unicode="&#63458;" /><glyph d="M336 566H243L353 678H486Z" glyph-name="acute" horiz-adv-x="600" unicode="&#180;" /><glyph d="M326 734H233L343 846H476Z" glyph-name="acute.cap" horiz-adv-x="600" unicode="&#58402;" /><glyph d="M326 598H233L343 710H476Z" glyph-name="acute.small" horiz-adv-x="600" unicode="&#63412;" /><glyph d="M427 580H319V675H427ZM219 580H112V675H219ZM369 232Q343 234 320 235Q297 236 286 236Q236 236 212 229.5Q188 223 172 207Q164 199 159.5 186Q155 173 155 150Q155 127 162 113Q169 99 182 91Q195 83 212.5 80Q230 77 250 77Q297 77 324.5 92.5Q352 108 369 133ZM280 311Q295 311 319 310.5Q343 310 369 308V363Q369 386 365 401Q361 416 348 425Q335 434 310 437.5Q285 441 243 441Q217 441 175.5 437Q134 433 85 422V505Q106 511 130.5 514.5Q155 518 180 520Q205 522 226.5 523Q248 524 263 524Q319 524 359 517Q399 510 425 492Q451 474 463 443Q475 412 475 363V0H401L386 53H385Q357 23 316.5 6.5Q276 -10 229 -10Q187 -10 149.5 0.5Q112 11 86 36Q66 56 55.5 85Q45 114 45 148Q45 221 84 259Q100 275 122.5 285Q145 295 170.5 301Q196 307 224 309Q252 311 280 311Z" glyph-name="adieresis" horiz-adv-x="546" unicode="&#228;" /><glyph d="M416 400Q405 409 389 417Q375 423 354 428.5Q333 434 304 434Q229 434 197 391Q165 348 165 254Q165 160 194 118.5Q223 77 289 77Q316 77 337.5 85Q359 93 375 104.5Q391 116 401 127Q411 138 416 144ZM453 510H523V0H447L435 58H434Q423 48 408.5 36Q394 24 374.5 13.5Q355 3 330 -4Q305 -11 274 -11Q227 -11 186.5 1.5Q146 14 116 45Q86 76 68.5 127Q51 178 51 255Q51 330 70.5 381Q90 432 123.5 463Q157 494 201 507.5Q245 521 294 521Q328 521 353.5 515Q379 509 396.5 501Q414 493 424.5 486Q435 479 438 476H440ZM458 580H350V675H458ZM250 580H143V675H250Z" glyph-name="adieresis.hist" horiz-adv-x="603" unicode="&#59159;" /><glyph d="M188 207H350L300 351Q292 375 283.5 401Q275 427 270 451H268Q263 428 254.5 401.5Q246 375 238 351ZM379 127H158L113 0H3L209 541H330L537 0H425ZM428 612H320V707H428ZM220 612H113V707H220Z" glyph-name="adieresis.small" horiz-adv-x="539" unicode="&#63460;" /><glyph d="M220 579H111V676H220ZM428 579H318V676H428ZM442 741H96V820H442ZM369 232Q343 234 320 235Q297 236 286 236Q236 236 212 229.5Q188 223 172 207Q164 199 159.5 186Q155 173 155 150Q155 127 162 113Q169 99 182 91Q195 83 212.5 80Q230 77 250 77Q297 77 324.5 92.5Q352 108 369 133ZM280 311Q295 311 319 310.5Q343 310 369 308V363Q369 386 365 401Q361 416 348 425Q335 434 310 437.5Q285 441 243 441Q217 441 175.5 437Q134 433 85 422V505Q106 511 130.5 514.5Q155 518 180 520Q205 522 226.5 523Q248 524 263 524Q319 524 359 517Q399 510 425 492Q451 474 463 443Q475 412 475 363V0H401L386 53H385Q357 23 316.5 6.5Q276 -10 229 -10Q187 -10 149.5 0.5Q112 11 86 36Q66 56 55.5 85Q45 114 45 148Q45 221 84 259Q100 275 122.5 285Q145 295 170.5 301Q196 307 224 309Q252 311 280 311Z" glyph-name="adieresismacron" horiz-adv-x="546" unicode="&#479;" /><glyph d="M254 579H145V676H254ZM462 579H352V676H462ZM476 741H130V820H476ZM416 400Q405 409 389 417Q375 423 354 428.5Q333 434 304 434Q229 434 197 391Q165 348 165 254Q165 160 194 118.5Q223 77 289 77Q316 77 337.5 85Q359 93 375 104.5Q391 116 401 127Q411 138 416 144ZM453 510H523V0H447L435 58H434Q423 48 408.5 36Q394 24 374.5 13.5Q355 3 330 -4Q305 -11 274 -11Q227 -11 186.5 1.5Q146 14 116 45Q86 76 68.5 127Q51 178 51 255Q51 330 70.5 381Q90 432 123.5 463Q157 494 201 507.5Q245 521 294 521Q328 521 353.5 515Q379 509 396.5 501Q414 493 424.5 486Q435 479 438 476H440Z" glyph-name="adieresismacron.hist" horiz-adv-x="603" unicode="&#59160;" /><glyph d="M220 611H112V706H220ZM427 611H320V706H427ZM442 773H96V852H442ZM188 207H350L300 351Q292 375 283.5 401Q275 427 270 451H268Q263 428 254.5 401.5Q246 375 238 351ZM379 127H158L113 0H3L209 541H330L537 0H425Z" glyph-name="adieresismacron.small" horiz-adv-x="539" unicode="&#59161;" /><glyph d="M324 581H212V677H324ZM369 232Q343 234 320 235Q297 236 286 236Q236 236 212 229.5Q188 223 172 207Q164 199 159.5 186Q155 173 155 150Q155 127 162 113Q169 99 182 91Q195 83 212.5 80Q230 77 250 77Q297 77 324.5 92.5Q352 108 369 133ZM280 311Q295 311 319 310.5Q343 310 369 308V363Q369 386 365 401Q361 416 348 425Q335 434 310 437.5Q285 441 243 441Q217 441 175.5 437Q134 433 85 422V505Q106 511 130.5 514.5Q155 518 180 520Q205 522 226.5 523Q248 524 263 524Q319 524 359 517Q399 510 425 492Q451 474 463 443Q475 412 475 363V0H401L386 53H385Q357 23 316.5 6.5Q276 -10 229 -10Q187 -10 149.5 0.5Q112 11 86 36Q66 56 55.5 85Q45 114 45 148Q45 221 84 259Q100 275 122.5 285Q145 295 170.5 301Q196 307 224 309Q252 311 280 311Z" glyph-name="adotabove" horiz-adv-x="546" unicode="&#551;" /><glyph d="M416 400Q405 409 389 417Q375 423 354 428.5Q333 434 304 434Q229 434 197 391Q165 348 165 254Q165 160 194 118.5Q223 77 289 77Q316 77 337.5 85Q359 93 375 104.5Q391 116 401 127Q411 138 416 144ZM453 510H523V0H447L435 58H434Q423 48 408.5 36Q394 24 374.5 13.5Q355 3 330 -4Q305 -11 274 -11Q227 -11 186.5 1.5Q146 14 116 45Q86 76 68.5 127Q51 178 51 255Q51 330 70.5 381Q90 432 123.5 463Q157 494 201 507.5Q245 521 294 521Q328 521 353.5 515Q379 509 396.5 501Q414 493 424.5 486Q435 479 438 476H440ZM350 581H238V677H350Z" glyph-name="adotabove.hist" horiz-adv-x="603" unicode="&#59168;" /><glyph d="M325 613H213V709H325ZM188 207H350L300 351Q292 375 283.5 401Q275 427 270 451H268Q263 428 254.5 401.5Q246 375 238 351ZM379 127H158L113 0H3L209 541H330L537 0H425Z" glyph-name="adotabove.small" horiz-adv-x="539" unicode="&#59169;" /><glyph d="M16 678H135L244 565H165ZM179 678H299L408 565H328ZM369 232Q343 234 320 235Q297 236 286 236Q236 236 212 229.5Q188 223 172 207Q164 199 159.5 186Q155 173 155 150Q155 127 162 113Q169 99 182 91Q195 83 212.5 80Q230 77 250 77Q297 77 324.5 92.5Q352 108 369 133ZM280 311Q295 311 319 310.5Q343 310 369 308V363Q369 386 365 401Q361 416 348 425Q335 434 310 437.5Q285 441 243 441Q217 441 175.5 437Q134 433 85 422V505Q106 511 130.5 514.5Q155 518 180 520Q205 522 226.5 523Q248 524 263 524Q319 524 359 517Q399 510 425 492Q451 474 463 443Q475 412 475 363V0H401L386 53H385Q357 23 316.5 6.5Q276 -10 229 -10Q187 -10 149.5 0.5Q112 11 86 36Q66 56 55.5 85Q45 114 45 148Q45 221 84 259Q100 275 122.5 285Q145 295 170.5 301Q196 307 224 309Q252 311 280 311Z" glyph-name="adoublegrave" horiz-adv-x="546" unicode="&#59170;" /><glyph d="M416 400Q405 409 389 417Q375 423 354 428.5Q333 434 304 434Q229 434 197 391Q165 348 165 254Q165 160 194 118.5Q223 77 289 77Q316 77 337.5 85Q359 93 375 104.5Q391 116 401 127Q411 138 416 144ZM453 510H523V0H447L435 58H434Q423 48 408.5 36Q394 24 374.5 13.5Q355 3 330 -4Q305 -11 274 -11Q227 -11 186.5 1.5Q146 14 116 45Q86 76 68.5 127Q51 178 51 255Q51 330 70.5 381Q90 432 123.5 463Q157 494 201 507.5Q245 521 294 521Q328 521 353.5 515Q379 509 396.5 501Q414 493 424.5 486Q435 479 438 476H440ZM60 678H179L288 565H209ZM223 678H343L452 565H372Z" glyph-name="adoublegrave.hist" horiz-adv-x="603" unicode="&#59171;" /><glyph d="M6 710H125L234 597H155ZM169 710H289L398 597H318ZM188 207H350L300 351Q292 375 283.5 401Q275 427 270 451H268Q263 428 254.5 401.5Q246 375 238 351ZM379 127H158L113 0H3L209 541H330L537 0H425Z" glyph-name="adoublegrave.small" horiz-adv-x="539" unicode="&#59172;" /><glyph d="M608 441Q584 441 561 435Q538 429 521 412Q491 382 485 311H714Q715 321 715 325.5Q715 330 715 332Q715 359 709.5 380Q704 401 690 415Q676 429 655 435Q634 441 608 441ZM250 77Q292 77 326.5 95.5Q361 114 380 142V143Q375 162 372.5 183.5Q370 205 368 229V231Q342 233 319 234.5Q296 236 286 236Q236 236 212 229.5Q188 223 172 207Q164 199 159.5 186Q155 173 155 150Q155 127 162 113Q169 99 182 91Q195 83 212.5 80Q230 77 250 77ZM483 232Q484 191 491.5 159.5Q499 128 520 107Q539 88 568 80Q597 72 641 72Q671 72 714.5 76.5Q758 81 796 94V11Q777 5 754.5 0Q732 -5 709 -8Q686 -11 663 -12.5Q640 -14 621 -14Q546 -14 495.5 5.5Q445 25 415 67Q395 45 372 30.5Q349 16 324.5 7Q300 -2 275.5 -6Q251 -10 229 -10Q187 -10 149.5 0.5Q112 11 86 36Q66 56 55.5 85Q45 114 45 148Q45 221 84 259Q100 275 122.5 285Q145 295 170.5 301Q196 307 224 309Q252 311 280 311Q295 311 319 310.5Q343 310 369 308V363Q369 386 365 401Q361 416 348 425Q335 434 310 437.5Q285 441 243 441Q217 441 175.5 437Q134 433 85 422V505Q106 511 130.5 514.5Q155 518 180 520Q205 522 226.5 523Q248 524 263 524Q339 524 380.5 511.5Q422 499 444 467Q476 498 516 511Q556 524 606 524Q718 524 768 470Q818 416 818 308Q818 297 816.5 273Q815 249 813 232Z" glyph-name="ae" horiz-adv-x="869" unicode="&#230;" /><glyph d="M218 207H396Q396 224 396 257.5Q396 291 396.5 328.5Q397 366 397 399.5Q397 433 397 450H395Q378 422 361 397Q344 372 324 346ZM769 0H396V127H157L58 0H-73L358 541H763V460H503V318H727V234H503V83H769Z" glyph-name="ae.small" horiz-adv-x="806" unicode="&#63462;" /><glyph d="M608 441Q584 441 561 435Q538 429 521 412Q491 382 485 311H714Q715 321 715 325.5Q715 330 715 332Q715 359 709.5 380Q704 401 690 415Q676 429 655 435Q634 441 608 441ZM250 77Q292 77 326.5 95.5Q361 114 380 142V143Q375 162 372.5 183.5Q370 205 368 229V231Q342 233 319 234.5Q296 236 286 236Q236 236 212 229.5Q188 223 172 207Q164 199 159.5 186Q155 173 155 150Q155 127 162 113Q169 99 182 91Q195 83 212.5 80Q230 77 250 77ZM483 232Q484 191 491.5 159.5Q499 128 520 107Q539 88 568 80Q597 72 641 72Q671 72 714.5 76.5Q758 81 796 94V11Q777 5 754.5 0Q732 -5 709 -8Q686 -11 663 -12.5Q640 -14 621 -14Q546 -14 495.5 5.5Q445 25 415 67Q395 45 372 30.5Q349 16 324.5 7Q300 -2 275.5 -6Q251 -10 229 -10Q187 -10 149.5 0.5Q112 11 86 36Q66 56 55.5 85Q45 114 45 148Q45 221 84 259Q100 275 122.5 285Q145 295 170.5 301Q196 307 224 309Q252 311 280 311Q295 311 319 310.5Q343 310 369 308V363Q369 386 365 401Q361 416 348 425Q335 434 310 437.5Q285 441 243 441Q217 441 175.5 437Q134 433 85 422V505Q106 511 130.5 514.5Q155 518 180 520Q205 522 226.5 523Q248 524 263 524Q339 524 380.5 511.5Q422 499 444 467Q476 498 516 511Q556 524 606 524Q718 524 768 470Q818 416 818 308Q818 297 816.5 273Q815 249 813 232ZM485 569H392L502 681H635Z" glyph-name="aeacute" horiz-adv-x="869" unicode="&#509;" /><glyph d="M525 598H432L542 710H675ZM218 207H396Q396 224 396 257.5Q396 291 396.5 328.5Q397 366 397 399.5Q397 433 397 450H395Q378 422 361 397Q344 372 324 346ZM769 0H396V127H157L58 0H-73L358 541H763V460H503V318H727V234H503V83H769Z" glyph-name="aeacute.small" horiz-adv-x="806" unicode="&#63012;" /><glyph d="M621 594H275V673H621ZM608 441Q584 441 561 435Q538 429 521 412Q491 382 485 311H714Q715 321 715 325.5Q715 330 715 332Q715 359 709.5 380Q704 401 690 415Q676 429 655 435Q634 441 608 441ZM250 77Q292 77 326.5 95.5Q361 114 380 142V143Q375 162 372.5 183.5Q370 205 368 229V231Q342 233 319 234.5Q296 236 286 236Q236 236 212 229.5Q188 223 172 207Q164 199 159.5 186Q155 173 155 150Q155 127 162 113Q169 99 182 91Q195 83 212.5 80Q230 77 250 77ZM483 232Q484 191 491.5 159.5Q499 128 520 107Q539 88 568 80Q597 72 641 72Q671 72 714.5 76.5Q758 81 796 94V11Q777 5 754.5 0Q732 -5 709 -8Q686 -11 663 -12.5Q640 -14 621 -14Q546 -14 495.5 5.5Q445 25 415 67Q395 45 372 30.5Q349 16 324.5 7Q300 -2 275.5 -6Q251 -10 229 -10Q187 -10 149.5 0.5Q112 11 86 36Q66 56 55.5 85Q45 114 45 148Q45 221 84 259Q100 275 122.5 285Q145 295 170.5 301Q196 307 224 309Q252 311 280 311Q295 311 319 310.5Q343 310 369 308V363Q369 386 365 401Q361 416 348 425Q335 434 310 437.5Q285 441 243 441Q217 441 175.5 437Q134 433 85 422V505Q106 511 130.5 514.5Q155 518 180 520Q205 522 226.5 523Q248 524 263 524Q339 524 380.5 511.5Q422 499 444 467Q476 498 516 511Q556 524 606 524Q718 524 768 470Q818 416 818 308Q818 297 816.5 273Q815 249 813 232Z" glyph-name="aemacron" horiz-adv-x="869" unicode="&#483;" /><glyph d="M629 626H283V705H629ZM218 207H396Q396 224 396 257.5Q396 291 396.5 328.5Q397 366 397 399.5Q397 433 397 450H395Q378 422 361 397Q344 372 324 346ZM769 0H396V127H157L58 0H-73L358 541H763V460H503V318H727V234H503V83H769Z" glyph-name="aemacron.small" horiz-adv-x="806" unicode="&#59173;" /><glyph d="M216 358Q239 396 256.5 452Q274 508 274 563Q274 585 269 597Q264 609 250 609Q233 609 224.5 581.5Q216 554 216 482ZM59 225Q71 230 87.5 239Q104 248 115 258V489Q115 549 125 588Q135 627 152.5 650Q170 673 194.5 682.5Q219 692 248 692Q305 692 336.5 656.5Q368 621 368 558Q368 509 353.5 461Q339 413 317.5 370.5Q296 328 269.5 292Q243 256 219 231V141Q219 106 227.5 91.5Q236 77 262 77Q273 77 289 79Q305 81 319 86V2Q301 -4 281 -6.5Q261 -9 246 -9Q216 -9 192 -3Q168 3 151.5 18Q135 33 125.5 59Q116 85 116 126V158Q106 153 91 146Q76 139 59 132Z" glyph-name="afii61289" horiz-adv-x="415" unicode="&#8467;" /><glyph d="M96 678H229L339 566H246ZM369 232Q343 234 320 235Q297 236 286 236Q236 236 212 229.5Q188 223 172 207Q164 199 159.5 186Q155 173 155 150Q155 127 162 113Q169 99 182 91Q195 83 212.5 80Q230 77 250 77Q297 77 324.5 92.5Q352 108 369 133ZM280 311Q295 311 319 310.5Q343 310 369 308V363Q369 386 365 401Q361 416 348 425Q335 434 310 437.5Q285 441 243 441Q217 441 175.5 437Q134 433 85 422V505Q106 511 130.5 514.5Q155 518 180 520Q205 522 226.5 523Q248 524 263 524Q319 524 359 517Q399 510 425 492Q451 474 463 443Q475 412 475 363V0H401L386 53H385Q357 23 316.5 6.5Q276 -10 229 -10Q187 -10 149.5 0.5Q112 11 86 36Q66 56 55.5 85Q45 114 45 148Q45 221 84 259Q100 275 122.5 285Q145 295 170.5 301Q196 307 224 309Q252 311 280 311Z" glyph-name="agrave" horiz-adv-x="546" unicode="&#224;" /><glyph d="M416 400Q405 409 389 417Q375 423 354 428.5Q333 434 304 434Q229 434 197 391Q165 348 165 254Q165 160 194 118.5Q223 77 289 77Q316 77 337.5 85Q359 93 375 104.5Q391 116 401 127Q411 138 416 144ZM453 510H523V0H447L435 58H434Q423 48 408.5 36Q394 24 374.5 13.5Q355 3 330 -4Q305 -11 274 -11Q227 -11 186.5 1.5Q146 14 116 45Q86 76 68.5 127Q51 178 51 255Q51 330 70.5 381Q90 432 123.5 463Q157 494 201 507.5Q245 521 294 521Q328 521 353.5 515Q379 509 396.5 501Q414 493 424.5 486Q435 479 438 476H440ZM107 678H240L350 566H257Z" glyph-name="agrave.hist" horiz-adv-x="603" unicode="&#59174;" /><glyph d="M71 710H204L314 598H221ZM188 207H350L300 351Q292 375 283.5 401Q275 427 270 451H268Q263 428 254.5 401.5Q246 375 238 351ZM379 127H158L113 0H3L209 541H330L537 0H425Z" glyph-name="agrave.small" horiz-adv-x="539" unicode="&#63456;" /><glyph d="M270 620Q238 620 212.5 608.5Q187 597 179 565H92Q102 630 150.5 658.5Q199 687 270 687Q342 687 390 659Q438 631 449 565H361Q354 597 328 608.5Q302 620 270 620ZM369 232Q343 234 320 235Q297 236 286 236Q236 236 212 229.5Q188 223 172 207Q164 199 159.5 186Q155 173 155 150Q155 127 162 113Q169 99 182 91Q195 83 212.5 80Q230 77 250 77Q297 77 324.5 92.5Q352 108 369 133ZM280 311Q295 311 319 310.5Q343 310 369 308V363Q369 386 365 401Q361 416 348 425Q335 434 310 437.5Q285 441 243 441Q217 441 175.5 437Q134 433 85 422V505Q106 511 130.5 514.5Q155 518 180 520Q205 522 226.5 523Q248 524 263 524Q319 524 359 517Q399 510 425 492Q451 474 463 443Q475 412 475 363V0H401L386 53H385Q357 23 316.5 6.5Q276 -10 229 -10Q187 -10 149.5 0.5Q112 11 86 36Q66 56 55.5 85Q45 114 45 148Q45 221 84 259Q100 275 122.5 285Q145 295 170.5 301Q196 307 224 309Q252 311 280 311Z" glyph-name="ainvertedbreve" horiz-adv-x="546" unicode="&#515;" /><glyph d="M416 400Q405 409 389 417Q375 423 354 428.5Q333 434 304 434Q229 434 197 391Q165 348 165 254Q165 160 194 118.5Q223 77 289 77Q316 77 337.5 85Q359 93 375 104.5Q391 116 401 127Q411 138 416 144ZM453 510H523V0H447L435 58H434Q423 48 408.5 36Q394 24 374.5 13.5Q355 3 330 -4Q305 -11 274 -11Q227 -11 186.5 1.5Q146 14 116 45Q86 76 68.5 127Q51 178 51 255Q51 330 70.5 381Q90 432 123.5 463Q157 494 201 507.5Q245 521 294 521Q328 521 353.5 515Q379 509 396.5 501Q414 493 424.5 486Q435 479 438 476H440ZM297 620Q265 620 239.5 608.5Q214 597 206 565H119Q129 630 177.5 658.5Q226 687 297 687Q369 687 417 659Q465 631 476 565H388Q381 597 355 608.5Q329 620 297 620Z" glyph-name="ainvertedbreve.hist" horiz-adv-x="603" unicode="&#59175;" /><glyph d="M188 207H350L300 351Q292 375 283.5 401Q275 427 270 451H268Q263 428 254.5 401.5Q246 375 238 351ZM379 127H158L113 0H3L209 541H330L537 0H425ZM269 652Q237 652 211.5 640.5Q186 629 178 597H91Q101 662 149.5 690.5Q198 719 269 719Q341 719 389 691Q437 663 448 597H360Q353 629 327 640.5Q301 652 269 652Z" glyph-name="ainvertedbreve.small" horiz-adv-x="539" unicode="&#59176;" /><glyph d="M289 -36Q325 -38 348 -45.5Q371 -53 384.5 -63Q398 -73 403.5 -85Q409 -97 409 -108Q409 -143 375.5 -161Q342 -179 282 -179Q265 -179 243 -177Q221 -175 195 -167V-106Q217 -114 234.5 -116Q252 -118 266 -118Q287 -118 301 -114Q315 -110 315 -98Q315 -85 300.5 -81Q286 -77 269 -75Z" glyph-name="altcedilla" horiz-adv-x="600" unicode="&#58390;" /><glyph d="M445 594H99V673H445ZM369 232Q343 234 320 235Q297 236 286 236Q236 236 212 229.5Q188 223 172 207Q164 199 159.5 186Q155 173 155 150Q155 127 162 113Q169 99 182 91Q195 83 212.5 80Q230 77 250 77Q297 77 324.5 92.5Q352 108 369 133ZM280 311Q295 311 319 310.5Q343 310 369 308V363Q369 386 365 401Q361 416 348 425Q335 434 310 437.5Q285 441 243 441Q217 441 175.5 437Q134 433 85 422V505Q106 511 130.5 514.5Q155 518 180 520Q205 522 226.5 523Q248 524 263 524Q319 524 359 517Q399 510 425 492Q451 474 463 443Q475 412 475 363V0H401L386 53H385Q357 23 316.5 6.5Q276 -10 229 -10Q187 -10 149.5 0.5Q112 11 86 36Q66 56 55.5 85Q45 114 45 148Q45 221 84 259Q100 275 122.5 285Q145 295 170.5 301Q196 307 224 309Q252 311 280 311Z" glyph-name="amacron" horiz-adv-x="546" unicode="&#257;" /><glyph d="M416 400Q405 409 389 417Q375 423 354 428.5Q333 434 304 434Q229 434 197 391Q165 348 165 254Q165 160 194 118.5Q223 77 289 77Q316 77 337.5 85Q359 93 375 104.5Q391 116 401 127Q411 138 416 144ZM453 510H523V0H447L435 58H434Q423 48 408.5 36Q394 24 374.5 13.5Q355 3 330 -4Q305 -11 274 -11Q227 -11 186.5 1.5Q146 14 116 45Q86 76 68.5 127Q51 178 51 255Q51 330 70.5 381Q90 432 123.5 463Q157 494 201 507.5Q245 521 294 521Q328 521 353.5 515Q379 509 396.5 501Q414 493 424.5 486Q435 479 438 476H440ZM471 594H125V673H471Z" glyph-name="amacron.hist" horiz-adv-x="603" unicode="&#59177;" /><glyph d="M188 207H350L300 351Q292 375 283.5 401Q275 427 270 451H268Q263 428 254.5 401.5Q246 375 238 351ZM379 127H158L113 0H3L209 541H330L537 0H425ZM443 626H97V705H443Z" glyph-name="amacron.small" horiz-adv-x="539" unicode="&#63041;" /><glyph d="M474 52Q445 24 397 5Q349 -14 296 -14Q254 -14 213 -3.5Q172 7 139.5 30.5Q107 54 87 90.5Q67 127 67 180Q67 213 76.5 240Q86 267 102 288Q118 309 138.5 324Q159 339 180 348V350Q136 374 109.5 415Q83 456 83 514Q83 604 145.5 647.5Q208 691 315 692Q326 692 342.5 691Q359 690 377.5 688Q396 686 413.5 683Q431 680 444 677V588Q415 596 385 599Q355 602 333 602Q291 602 265.5 594Q240 586 226 571.5Q212 557 207 538.5Q202 520 202 499Q202 476 211 456.5Q220 437 234 423Q252 405 276.5 397Q301 389 335 389H463L490 484H559V389H682V302H559V154Q559 131 562.5 116Q566 101 575.5 92.5Q585 84 601 81Q617 78 642 78Q668 78 702 86V3Q679 -5 655.5 -7Q632 -9 609 -9Q552 -9 521 8.5Q490 26 476 52ZM452 302H331Q294 302 267 294.5Q240 287 218 264Q204 250 195 230.5Q186 211 186 186Q186 130 218 105Q250 80 310 80Q357 80 395 99Q433 118 452 147Z" glyph-name="ampersand" horiz-adv-x="737" unicode="&amp;" /><glyph d="M263 418Q252 380 240 342.5Q228 305 214 268L119 0H10L201 511H334L526 0H411L314 268Q300 305 288.5 342.5Q277 380 265 418Z" glyph-name="anocross" horiz-adv-x="535" unicode="&#59184;" /><glyph d="M114 0H3L209 541H330L537 0H423L323 281Q309 318 294.5 364Q280 410 269 444H267Q256 410 242.5 364Q229 318 215 281Z" glyph-name="anocross.small" horiz-adv-x="539" unicode="&#59186;" /><glyph d="M369 232Q343 234 320 235Q297 236 286 236Q236 236 212 229.5Q188 223 172 207Q164 199 159.5 186Q155 173 155 150Q155 127 162 113Q169 99 182 91Q195 83 212.5 80Q230 77 250 77Q297 77 324.5 92.5Q352 108 369 133ZM280 311Q295 311 319 310.5Q343 310 369 308V363Q369 386 365 401Q361 416 348 425Q335 434 310 437.5Q285 441 243 441Q217 441 175.5 437Q134 433 85 422V505Q106 511 130.5 514.5Q155 518 180 520Q205 522 226.5 523Q248 524 263 524Q319 524 359 517Q399 510 425 492Q451 474 463 443Q475 412 475 363V0Q443 -17 429.5 -40Q416 -63 416 -81Q416 -116 458 -116Q474 -116 489.5 -114Q505 -112 524 -106V-167Q506 -175 482 -177Q458 -179 441 -179Q384 -179 357.5 -157Q331 -135 331 -100Q331 -72 349.5 -43Q368 -14 399 6L386 53H385Q357 23 316.5 6.5Q276 -10 229 -10Q187 -10 149.5 0.5Q112 11 86 36Q66 56 55.5 85Q45 114 45 148Q45 221 84 259Q100 275 122.5 285Q145 295 170.5 301Q196 307 224 309Q252 311 280 311Z" glyph-name="aogonek" horiz-adv-x="546" unicode="&#261;" /><glyph d="M416 400Q405 409 389 417Q375 423 354 428.5Q333 434 304 434Q229 434 197 391Q165 348 165 254Q165 160 194 118.5Q223 77 289 77Q316 77 337.5 85Q359 93 375 104.5Q391 116 401 127Q411 138 416 144ZM453 510H523V0Q491 -17 477.5 -40Q464 -63 464 -81Q464 -116 506 -116Q522 -116 537.5 -114Q553 -112 572 -106V-167Q554 -175 530 -177Q506 -179 489 -179Q432 -179 405.5 -157Q379 -135 379 -100Q379 -72 397 -43.5Q415 -15 446 5L435 58H434Q423 48 408.5 36Q394 24 374.5 13.5Q355 3 330 -4Q305 -11 274 -11Q227 -11 186.5 1.5Q146 14 116 45Q86 76 68.5 127Q51 178 51 255Q51 330 70.5 381Q90 432 123.5 463Q157 494 201 507.5Q245 521 294 521Q328 521 353.5 515Q379 509 396.5 501Q414 493 424.5 486Q435 479 438 476H440Z" glyph-name="aogonek.hist" horiz-adv-x="603" unicode="&#59187;" /><glyph d="M188 207H350L300 351Q292 375 283.5 401Q275 427 270 451H268Q263 428 254.5 401.5Q246 375 238 351ZM379 127H158L113 0H3L209 541H330L537 0H536Q505 -17 491.5 -40Q478 -63 478 -81Q478 -116 520 -116Q535 -116 550.5 -114Q566 -112 585 -106V-167Q567 -175 543 -177Q519 -179 502 -179Q446 -179 419.5 -157Q393 -135 393 -100Q393 -71 410 -44Q427 -17 453 0H425Z" glyph-name="aogonek.small" horiz-adv-x="539" unicode="&#63042;" /><glyph d="M430 190Q466 190 506 201.5Q546 213 583 233V142Q554 126 515.5 113.5Q477 101 431 101Q402 101 373 108Q344 115 315.5 123.5Q287 132 258.5 139Q230 146 203 146Q168 146 128.5 134.5Q89 123 52 103V193Q80 209 119 222Q158 235 203 235Q231 235 260 228Q289 221 317.5 212.5Q346 204 374 197Q402 190 430 190ZM430 398Q466 398 506 409.5Q546 421 583 441V350Q554 334 515.5 321.5Q477 309 431 309Q402 309 373 316Q344 323 315.5 332Q287 341 258.5 348Q230 355 203 355Q168 355 128.5 343.5Q89 332 52 312V402Q80 418 119 431Q158 444 203 444Q231 444 260 437Q289 430 317.5 421Q346 412 374 405Q402 398 430 398Z" glyph-name="approxequal" horiz-adv-x="635" unicode="&#8776;" /><glyph d="M370 637Q370 595 345.5 577.5Q321 560 274 560Q228 560 202.5 577.5Q177 595 177 637Q177 678 202.5 695.5Q228 713 274 713Q321 713 345.5 695.5Q370 678 370 637ZM309 637Q309 669 274 669Q238 669 238 637Q238 606 274 606Q309 606 309 637ZM369 232Q343 234 320 235Q297 236 286 236Q236 236 212 229.5Q188 223 172 207Q164 199 159.5 186Q155 173 155 150Q155 127 162 113Q169 99 182 91Q195 83 212.5 80Q230 77 250 77Q297 77 324.5 92.5Q352 108 369 133ZM280 311Q295 311 319 310.5Q343 310 369 308V363Q369 386 365 401Q361 416 348 425Q335 434 310 437.5Q285 441 243 441Q217 441 175.5 437Q134 433 85 422V505Q106 511 130.5 514.5Q155 518 180 520Q205 522 226.5 523Q248 524 263 524Q319 524 359 517Q399 510 425 492Q451 474 463 443Q475 412 475 363V0H401L386 53H385Q357 23 316.5 6.5Q276 -10 229 -10Q187 -10 149.5 0.5Q112 11 86 36Q66 56 55.5 85Q45 114 45 148Q45 221 84 259Q100 275 122.5 285Q145 295 170.5 301Q196 307 224 309Q252 311 280 311Z" glyph-name="aring" horiz-adv-x="546" unicode="&#229;" /><glyph d="M416 400Q405 409 389 417Q375 423 354 428.5Q333 434 304 434Q229 434 197 391Q165 348 165 254Q165 160 194 118.5Q223 77 289 77Q316 77 337.5 85Q359 93 375 104.5Q391 116 401 127Q411 138 416 144ZM453 510H523V0H447L435 58H434Q423 48 408.5 36Q394 24 374.5 13.5Q355 3 330 -4Q305 -11 274 -11Q227 -11 186.5 1.5Q146 14 116 45Q86 76 68.5 127Q51 178 51 255Q51 330 70.5 381Q90 432 123.5 463Q157 494 201 507.5Q245 521 294 521Q328 521 353.5 515Q379 509 396.5 501Q414 493 424.5 486Q435 479 438 476H440ZM386 637Q386 595 361.5 577.5Q337 560 290 560Q244 560 218.5 577.5Q193 595 193 637Q193 678 218.5 695.5Q244 713 290 713Q337 713 361.5 695.5Q386 678 386 637ZM325 637Q325 669 290 669Q254 669 254 637Q254 606 290 606Q325 606 325 637Z" glyph-name="aring.hist" horiz-adv-x="603" unicode="&#59188;" /><glyph d="M188 207H350L300 351Q292 375 283.5 401Q275 427 270 451H268Q263 428 254.5 401.5Q246 375 238 351ZM379 127H158L113 0H3L209 541H330L537 0H425ZM366 669Q366 627 341.5 609.5Q317 592 270 592Q224 592 198.5 609.5Q173 627 173 669Q173 710 198.5 727.5Q224 745 270 745Q317 745 341.5 727.5Q366 710 366 669ZM305 669Q305 701 270 701Q234 701 234 669Q234 638 270 638Q305 638 305 669Z" glyph-name="aring.small" horiz-adv-x="539" unicode="&#63461;" /><glyph d="M317 635Q317 668 282 668Q246 668 246 635Q246 604 282 604Q317 604 317 635ZM378 637Q378 595 353 577.5Q328 560 282 560Q237 560 211 577.5Q185 595 185 637Q185 657 197 674.5Q209 692 228 712L306 789H380L301 710Q335 709 356.5 690Q378 671 378 637ZM369 232Q343 234 320 235Q297 236 286 236Q236 236 212 229.5Q188 223 172 207Q164 199 159.5 186Q155 173 155 150Q155 127 162 113Q169 99 182 91Q195 83 212.5 80Q230 77 250 77Q297 77 324.5 92.5Q352 108 369 133ZM280 311Q295 311 319 310.5Q343 310 369 308V363Q369 386 365 401Q361 416 348 425Q335 434 310 437.5Q285 441 243 441Q217 441 175.5 437Q134 433 85 422V505Q106 511 130.5 514.5Q155 518 180 520Q205 522 226.5 523Q248 524 263 524Q319 524 359 517Q399 510 425 492Q451 474 463 443Q475 412 475 363V0H401L386 53H385Q357 23 316.5 6.5Q276 -10 229 -10Q187 -10 149.5 0.5Q112 11 86 36Q66 56 55.5 85Q45 114 45 148Q45 221 84 259Q100 275 122.5 285Q145 295 170.5 301Q196 307 224 309Q252 311 280 311Z" glyph-name="aringacute" horiz-adv-x="546" unicode="&#507;" /><glyph d="M327 635Q327 668 292 668Q272 668 264 659.5Q256 651 256 635Q256 619 264 611.5Q272 604 292 604Q327 604 327 635ZM388 637Q388 595 362.5 577.5Q337 560 292 560Q246 560 220.5 577.5Q195 595 195 637Q195 657 207 674.5Q219 692 238 712L315 789H389L310 710Q344 709 366 690Q388 671 388 637ZM416 400Q405 409 389 417Q375 423 354 428.5Q333 434 304 434Q229 434 197 391Q165 348 165 254Q165 160 194 118.5Q223 77 289 77Q316 77 337.5 85Q359 93 375 104.5Q391 116 401 127Q411 138 416 144ZM453 510H523V0H447L435 58H434Q423 48 408.5 36Q394 24 374.5 13.5Q355 3 330 -4Q305 -11 274 -11Q227 -11 186.5 1.5Q146 14 116 45Q86 76 68.5 127Q51 178 51 255Q51 330 70.5 381Q90 432 123.5 463Q157 494 201 507.5Q245 521 294 521Q328 521 353.5 515Q379 509 396.5 501Q414 493 424.5 486Q435 479 438 476H440Z" glyph-name="aringacute.hist" horiz-adv-x="603" unicode="&#59189;" /><glyph d="M308 667Q308 700 273 700Q237 700 237 667Q237 636 273 636Q308 636 308 667ZM369 669Q369 627 344 609.5Q319 592 273 592Q228 592 202 609.5Q176 627 176 669Q176 689 188 706.5Q200 724 219 744L297 821H371L292 742Q326 741 347.5 722Q369 703 369 669ZM188 207H350L300 351Q292 375 283.5 401Q275 427 270 451H268Q263 428 254.5 401.5Q246 375 238 351ZM379 127H158L113 0H3L209 541H330L537 0H425Z" glyph-name="aringacute.small" horiz-adv-x="539" unicode="&#63013;" /><glyph d="M540 678V147L828 422V310L518 0H473L163 310V422L451 148V678Z" glyph-name="arrowdown" horiz-adv-x="990" unicode="&#8595;" /><glyph d="M840 301H309L584 13H472L162 323V368L472 678H584L310 390H840Z" glyph-name="arrowleft" horiz-adv-x="990" unicode="&#8592;" /><glyph d="M150 390H680L406 678H518L828 368V323L518 13H406L681 301H150Z" glyph-name="arrowright" horiz-adv-x="990" unicode="&#8594;" /><glyph d="M451 0V530L163 256V368L473 678H518L828 368V256L540 531V0Z" glyph-name="arrowup" horiz-adv-x="990" unicode="&#8593;" /><glyph d="M257 599 131 382H46L221 678H290L465 382H378Z" glyph-name="asciicircum" horiz-adv-x="511" unicode="^" /><glyph d="M430 366Q466 366 506 377.5Q546 389 583 409V320Q554 304 515.5 291.5Q477 279 431 279Q402 279 373 286Q344 293 315.5 301.5Q287 310 258.5 317Q230 324 203 324Q168 324 128.5 312.5Q89 301 52 281V369Q80 385 119 398Q158 411 203 411Q231 411 260 404Q289 397 317.5 388.5Q346 380 374 373Q402 366 430 366Z" glyph-name="asciitilde" horiz-adv-x="635" unicode="~" /><glyph d="M268 730H334L336 593L465 633L485 569L357 525L435 415L381 376L301 482L221 377L167 416L244 525L116 569L137 633L265 593Z" glyph-name="asterisk" horiz-adv-x="600" unicode="*" /><glyph d="M472 116Q459 96 444 84.5Q429 73 414 67Q399 61 386 59.5Q373 58 364 58Q313 58 280.5 93Q248 128 248 190Q248 230 260 264.5Q272 299 296 324.5Q320 350 355.5 364.5Q391 379 438 379Q476 379 508.5 373Q541 367 566 359L540 212Q537 197 537 181.5Q537 166 542.5 153.5Q548 141 559.5 132.5Q571 124 592 124Q631 124 654.5 154Q678 184 678 245Q678 303 661.5 350.5Q645 398 613 431.5Q581 465 533 483.5Q485 502 422 502Q357 502 306 480.5Q255 459 220 421Q185 383 166.5 331Q148 279 148 218Q148 155 165.5 104Q183 53 217.5 17Q252 -19 302.5 -38Q353 -57 418 -57Q443 -57 481 -50.5Q519 -44 547 -31V-107Q524 -118 489 -124.5Q454 -131 418 -131Q335 -131 269 -108Q203 -85 157 -40.5Q111 4 87 69Q63 134 63 218Q63 299 87.5 364.5Q112 430 158 477Q204 524 270.5 549.5Q337 575 422 575Q505 575 567.5 550.5Q630 526 672 482.5Q714 439 735 379Q756 319 756 247Q756 198 743.5 161.5Q731 125 709 101Q687 77 657 65.5Q627 54 592 54Q549 54 518.5 69Q488 84 474 116ZM471 307Q462 309 452.5 309.5Q443 310 436 310Q412 310 393 300Q374 290 361.5 273Q349 256 342 234.5Q335 213 335 190Q335 135 380 135Q389 135 399.5 138.5Q410 142 420 150Q430 158 438 171.5Q446 185 450 205Z" glyph-name="at" horiz-adv-x="813" unicode="@" /><glyph d="M472 233Q459 213 444 201.5Q429 190 414 184Q399 178 386 176.5Q373 175 364 175Q313 175 280.5 210Q248 245 248 307Q248 347 260 381.5Q272 416 296 441.5Q320 467 355.5 481.5Q391 496 438 496Q476 496 508.5 490Q541 484 566 476L540 329Q537 314 537 298.5Q537 283 542.5 270.5Q548 258 559.5 249.5Q571 241 592 241Q631 241 654.5 271Q678 301 678 362Q678 420 661.5 467.5Q645 515 613 548.5Q581 582 533 600.5Q485 619 422 619Q357 619 306 597.5Q255 576 220 538Q185 500 166.5 448Q148 396 148 335Q148 272 165.5 221Q183 170 217.5 134Q252 98 302.5 79Q353 60 418 60Q443 60 481 66.5Q519 73 547 86V10Q524 -1 489 -7.5Q454 -14 418 -14Q335 -14 269 9Q203 32 157 76.5Q111 121 87 186Q63 251 63 335Q63 416 87.5 481.5Q112 547 158 594Q204 641 270.5 666.5Q337 692 422 692Q505 692 567.5 667.5Q630 643 672 599.5Q714 556 735 496Q756 436 756 364Q756 315 743.5 278.5Q731 242 709 218Q687 194 657 182.5Q627 171 592 171Q549 171 518.5 186Q488 201 474 233ZM471 424Q462 426 452.5 426.5Q443 427 436 427Q412 427 393 417Q374 407 361.5 390Q349 373 342 351.5Q335 330 335 307Q335 252 380 252Q389 252 399.5 255.5Q410 259 420 267Q430 275 438 288.5Q446 302 450 322Z" glyph-name="at.cap" horiz-adv-x="813" unicode="&#58643;" /><glyph d="M348 658Q371 658 398.5 670Q426 682 446 696V619Q431 606 402.5 594Q374 582 348 582Q326 582 307 587Q288 592 270 598Q252 604 234.5 609Q217 614 199 614Q176 614 147.5 602.5Q119 591 98 577V655Q115 667 144 679.5Q173 692 198 692Q220 692 239 687Q258 682 275.5 675.5Q293 669 310.5 663.5Q328 658 348 658ZM369 232Q343 234 320 235Q297 236 286 236Q236 236 212 229.5Q188 223 172 207Q164 199 159.5 186Q155 173 155 150Q155 127 162 113Q169 99 182 91Q195 83 212.5 80Q230 77 250 77Q297 77 324.5 92.5Q352 108 369 133ZM280 311Q295 311 319 310.5Q343 310 369 308V363Q369 386 365 401Q361 416 348 425Q335 434 310 437.5Q285 441 243 441Q217 441 175.5 437Q134 433 85 422V505Q106 511 130.5 514.5Q155 518 180 520Q205 522 226.5 523Q248 524 263 524Q319 524 359 517Q399 510 425 492Q451 474 463 443Q475 412 475 363V0H401L386 53H385Q357 23 316.5 6.5Q276 -10 229 -10Q187 -10 149.5 0.5Q112 11 86 36Q66 56 55.5 85Q45 114 45 148Q45 221 84 259Q100 275 122.5 285Q145 295 170.5 301Q196 307 224 309Q252 311 280 311Z" glyph-name="atilde" horiz-adv-x="546" unicode="&#227;" /><glyph d="M370 658Q393 658 420.5 670Q448 682 468 696V619Q453 606 424.5 594Q396 582 370 582Q348 582 329 587Q310 592 292 598Q274 604 256.5 609Q239 614 221 614Q198 614 169.5 602.5Q141 591 120 577V655Q137 667 166 679.5Q195 692 220 692Q242 692 261 687Q280 682 297.5 675.5Q315 669 332.5 663.5Q350 658 370 658ZM416 400Q405 409 389 417Q375 423 354 428.5Q333 434 304 434Q229 434 197 391Q165 348 165 254Q165 160 194 118.5Q223 77 289 77Q316 77 337.5 85Q359 93 375 104.5Q391 116 401 127Q411 138 416 144ZM453 510H523V0H447L435 58H434Q423 48 408.5 36Q394 24 374.5 13.5Q355 3 330 -4Q305 -11 274 -11Q227 -11 186.5 1.5Q146 14 116 45Q86 76 68.5 127Q51 178 51 255Q51 330 70.5 381Q90 432 123.5 463Q157 494 201 507.5Q245 521 294 521Q328 521 353.5 515Q379 509 396.5 501Q414 493 424.5 486Q435 479 438 476H440Z" glyph-name="atilde.hist" horiz-adv-x="603" unicode="&#59190;" /><glyph d="M346 690Q369 690 396.5 702Q424 714 444 728V651Q429 638 400.5 626Q372 614 346 614Q324 614 305 619Q286 624 268 630Q250 636 232.5 641Q215 646 197 646Q174 646 145.5 634.5Q117 623 96 609V687Q113 699 142 711.5Q171 724 196 724Q218 724 237 719Q256 714 273.5 707.5Q291 701 308.5 695.5Q326 690 346 690ZM188 207H350L300 351Q292 375 283.5 401Q275 427 270 451H268Q263 428 254.5 401.5Q246 375 238 351ZM379 127H158L113 0H3L209 541H330L537 0H425Z" glyph-name="atilde.small" horiz-adv-x="539" unicode="&#63459;" /><glyph d="M188 115Q211 94 240.5 85.5Q270 77 300 77Q374 77 406.5 120Q439 163 439 255Q439 306 431 340Q423 374 407.5 394.5Q392 415 368 424Q344 433 311 433Q276 433 244.5 415.5Q213 398 188 366ZM163 35 150 0H81V678H188V467H190Q222 496 256.5 508.5Q291 521 328 521Q440 521 496.5 458Q553 395 553 257Q553 123 489 56Q425 -11 310 -11Q280 -11 239 -0.5Q198 10 165 35Z" glyph-name="b" horiz-adv-x="603" unicode="b" /><glyph d="M426 280Q440 273 454.5 262.5Q469 252 481 236Q493 220 500.5 199.5Q508 179 508 153Q508 115 497 88.5Q486 62 466 42Q440 15 394 7.5Q348 0 291 0H79V541H284Q340 541 383.5 533.5Q427 526 453 500Q470 483 480.5 458Q491 433 491 400Q491 350 470.5 323.5Q450 297 426 282ZM288 316Q314 316 332 318Q350 320 364 334Q380 350 380 389Q380 427 364 443Q351 456 333.5 459Q316 462 288 462H186V316ZM300 80Q327 80 347 83.5Q367 87 380 99Q389 108 393 123.5Q397 139 397 159Q397 199 379 217Q366 230 346.5 233.5Q327 237 300 237H186V80Z" glyph-name="b.small" horiz-adv-x="547" unicode="&#63330;" /><glyph d="M134 355Q148 346 164 341.5Q180 337 196 337Q238 337 256 362Q274 387 274 442Q274 502 256.5 524.5Q239 547 202 547Q183 547 165.5 538Q148 529 134 512ZM202 272Q184 272 160 278Q136 284 116 297L110 279H53V708H134V584H135Q154 598 174.5 604.5Q195 611 215 611Q287 611 323.5 571Q360 531 360 443Q360 358 318.5 315Q277 272 202 272Z" glyph-name="b.superior" horiz-adv-x="389" unicode="&#58210;" /><glyph d="M-16 763H83L376 -85H278Z" glyph-name="backslash" horiz-adv-x="360" unicode="\" /><glyph d="M304 -85H214V763H304Z" glyph-name="bar" horiz-adv-x="518" unicode="|" /><glyph d="M352 76Q399 76 431.5 88.5Q464 101 485 127Q506 153 516.5 194.5Q527 236 530 293H174Q177 236 187.5 194.5Q198 153 219 127Q240 101 272.5 88.5Q305 76 352 76ZM352 602Q304 602 271 589Q238 576 217 548.5Q196 521 185.5 478Q175 435 173 375H530Q528 435 518 478Q508 521 487 548.5Q466 576 433 589Q400 602 352 602ZM653 339Q653 256 638.5 190.5Q624 125 589.5 79.5Q555 34 497 10Q439 -14 352 -14Q265 -14 207 10Q149 34 114.5 79.5Q80 125 66 190.5Q52 256 52 339Q52 423 66 488.5Q80 554 114.5 599Q149 644 207 668Q265 692 352 692Q439 692 497 668Q555 644 589.5 599Q624 554 638.5 488.5Q653 423 653 339Z" glyph-name="barredO" horiz-adv-x="704" unicode="&#59192;" /><glyph d="M395 101Q412 118 421.5 146Q431 174 434 216H165Q168 174 178 146Q188 118 205 101Q222 84 246 76.5Q270 69 300 69Q330 69 353.5 76.5Q377 84 395 101ZM205 409Q169 375 165 291H434Q428 374 395 409Q377 427 353.5 434Q330 441 300 441Q270 441 246 434Q222 427 205 409ZM549 255Q549 177 530.5 125.5Q512 74 478 43Q445 12 399.5 -1Q354 -14 300 -14Q245 -14 199.5 -1Q154 12 121 43Q88 74 69.5 125.5Q51 177 51 255Q51 333 69.5 384.5Q88 436 121 467Q154 499 199.5 511.5Q245 524 300 524Q354 524 399.5 511.5Q445 499 478 467Q512 436 530.5 384.5Q549 333 549 255Z" glyph-name="barredo" horiz-adv-x="599" unicode="&#59191;" /><glyph d="M304 71Q377 71 408.5 108.5Q440 146 445 230H163Q165 188 173.5 158Q182 128 199 108.5Q216 89 241.5 80Q267 71 304 71ZM304 471Q228 471 197 431Q166 391 162 302H445Q441 391 410 431Q379 471 304 471ZM559 271Q559 204 547 151.5Q535 99 505.5 62.5Q476 26 427 6.5Q378 -13 304 -13Q230 -13 181 6.5Q132 26 102.5 62.5Q73 99 61 151.5Q49 204 49 271Q49 337 61 389.5Q73 442 102.5 478.5Q132 515 181 534.5Q230 554 304 554Q378 554 427 534.5Q476 515 505.5 478.5Q535 442 547 389.5Q559 337 559 271Z" glyph-name="barredo.small" horiz-adv-x="607" unicode="&#59193;" /><glyph d="M495 693Q568 693 632.5 665Q697 637 745 589Q793 541 821 476.5Q849 412 849 339Q849 266 821 201.5Q793 137 745 89Q697 41 632.5 13Q568 -15 495 -15Q422 -15 357.5 13Q293 41 245 89Q197 137 169 201.5Q141 266 141 339Q141 412 169 476.5Q197 541 245 589Q293 637 357.5 665Q422 693 495 693Z" glyph-name="blackcircle" horiz-adv-x="990" unicode="&#9679;" /><glyph d="M240 510H750V0H240Z" glyph-name="blacksmallsquare" horiz-adv-x="990" unicode="&#9642;" /><glyph d="M156 678H834V0H156Z" glyph-name="blacksquare" horiz-adv-x="990" unicode="&#59200;" /><glyph d="M64 306V326L121 387Q119 411 116 435.5Q113 460 110 484Q107 508 105 530Q103 552 103 570Q103 609 109.5 639Q116 669 134 689.5Q152 710 183 720Q214 730 262 730Q270 730 283 730Q296 730 304 728V648Q294 649 289 649Q284 649 279 649Q254 649 239.5 644.5Q225 640 217.5 631Q210 622 208 608.5Q206 595 206 577Q206 556 208.5 532Q211 508 213.5 485Q216 462 218.5 441Q221 420 221 404Q221 379 215.5 356.5Q210 334 197 316Q211 295 216 272Q221 249 221 226Q221 209 218.5 185.5Q216 162 213.5 136.5Q211 111 208.5 85Q206 59 206 38Q206 19 208 5Q210 -9 217.5 -18.5Q225 -28 239.5 -32.5Q254 -37 279 -37Q284 -37 289 -37Q294 -37 304 -36V-116Q296 -118 283 -118Q270 -118 262 -118Q214 -118 183 -107.5Q152 -97 134 -76.5Q116 -56 109.5 -25.5Q103 5 103 45Q103 63 105.5 87.5Q108 112 111 139.5Q114 167 117 194.5Q120 222 121 245Z" glyph-name="braceleft" horiz-adv-x="344" unicode="{" /><glyph d="M64 339V359L121 420Q119 444 116 468.5Q113 493 110 517Q107 541 105 563Q103 585 103 603Q103 642 109.5 672Q116 702 134 722.5Q152 743 183 753Q214 763 262 763Q270 763 283 763Q296 763 304 761V681Q294 682 289 682Q284 682 279 682Q254 682 239.5 677.5Q225 673 217.5 664Q210 655 208 641.5Q206 628 206 610Q206 589 208.5 565Q211 541 213.5 518Q216 495 218.5 474Q221 453 221 437Q221 412 215.5 389.5Q210 367 197 349Q211 328 216 305Q221 282 221 259Q221 242 218.5 218.5Q216 195 213.5 169.5Q211 144 208.5 118Q206 92 206 71Q206 52 208 38Q210 24 217.5 14.5Q225 5 239.5 0.5Q254 -4 279 -4Q284 -4 289 -4Q294 -4 304 -3V-83Q296 -85 283 -85Q270 -85 262 -85Q214 -85 183 -74.5Q152 -64 134 -43.5Q116 -23 109.5 7.5Q103 38 103 78Q103 96 105.5 120.5Q108 145 111 172.5Q114 200 117 227.5Q120 255 121 278Z" glyph-name="braceleft.cap" horiz-adv-x="344" unicode="&#58517;" /><glyph d="M280 306 223 245Q224 222 227 194.5Q230 167 233 139.5Q236 112 238.5 87.5Q241 63 241 45Q241 5 234.5 -25.5Q228 -56 210 -76.5Q192 -97 161 -107.5Q130 -118 82 -118Q74 -118 61 -118Q48 -118 40 -116V-36Q50 -37 55 -37Q60 -37 65 -37Q90 -37 104.5 -32.5Q119 -28 126.5 -18.5Q134 -9 136 5Q138 19 138 38Q138 59 135.5 85Q133 111 130.5 136.5Q128 162 125.5 185.5Q123 209 123 226Q123 250 128 272.5Q133 295 147 316Q134 334 128.5 356Q123 378 123 404Q123 420 125.5 441Q128 462 130.5 485Q133 508 135.5 532Q138 556 138 577Q138 595 136 608.5Q134 622 126.5 631Q119 640 104.5 644.5Q90 649 65 649Q60 649 55 649Q50 649 40 648V728Q48 730 61 730Q74 730 82 730Q130 730 161 720Q192 710 210 689.5Q228 669 234.5 639Q241 609 241 570Q241 552 238.5 530Q236 508 233 484Q230 460 227 435.5Q224 411 223 387L280 326Z" glyph-name="braceright" horiz-adv-x="344" unicode="}" /><glyph d="M280 339 223 278Q224 255 227 227.5Q230 200 233 172.5Q236 145 238.5 120.5Q241 96 241 78Q241 38 234.5 7.5Q228 -23 210 -43.5Q192 -64 161 -74.5Q130 -85 82 -85Q74 -85 61 -85Q48 -85 40 -83V-3Q50 -4 55 -4Q60 -4 65 -4Q90 -4 104.5 0.5Q119 5 126.5 14.5Q134 24 136 38Q138 52 138 71Q138 92 135.5 118Q133 144 130.5 169.5Q128 195 125.5 218.5Q123 242 123 259Q123 283 128 305.5Q133 328 147 349Q134 367 128.5 389Q123 411 123 437Q123 453 125.5 474Q128 495 130.5 518Q133 541 135.5 565Q138 589 138 610Q138 628 136 641.5Q134 655 126.5 664Q119 673 104.5 677.5Q90 682 65 682Q60 682 55 682Q50 682 40 681V761Q48 763 61 763Q74 763 82 763Q130 763 161 753Q192 743 210 722.5Q228 702 234.5 672Q241 642 241 603Q241 585 238.5 563Q236 541 233 517Q230 493 227 468.5Q224 444 223 420L280 359Z" glyph-name="braceright.cap" horiz-adv-x="344" unicode="&#58518;" /><glyph d="M302 -118H98V730H302V649H205V-37H302Z" glyph-name="bracketleft" horiz-adv-x="342" unicode="[" /><glyph d="M302 -85H98V763H302V682H205V-4H302Z" glyph-name="bracketleft.cap" horiz-adv-x="342" unicode="&#58515;" /><glyph d="M40 -37H137V649H40V730H244V-118H40Z" glyph-name="bracketright" horiz-adv-x="342" unicode="]" /><glyph d="M40 -4H137V682H40V763H244V-85H40Z" glyph-name="bracketright.cap" horiz-adv-x="342" unicode="&#58516;" /><glyph d="M300 623Q332 623 358 634.5Q384 646 391 678H479Q468 612 420 584Q372 556 300 556Q229 556 180.5 584.5Q132 613 122 678H209Q217 646 242.5 634.5Q268 623 300 623Z" glyph-name="breve" horiz-adv-x="600" unicode="&#728;" /><glyph d="M300 791Q332 791 358 802.5Q384 814 391 846H479Q468 780 420 752Q372 724 300 724Q229 724 180.5 752.5Q132 781 122 846H209Q217 814 242.5 802.5Q268 791 300 791Z" glyph-name="breve.cap" horiz-adv-x="600" unicode="&#58406;" /><glyph d="M300 655Q332 655 358 666.5Q384 678 391 710H479Q468 644 420 616Q372 588 300 588Q229 588 180.5 616.5Q132 645 122 710H209Q217 678 242.5 666.5Q268 655 300 655Z" glyph-name="breve.small" horiz-adv-x="600" unicode="&#63220;" /><glyph d="M214 390V763H304V390ZM304 302V-85H214V302Z" glyph-name="brokenbar" horiz-adv-x="518" unicode="&#166;" /><glyph d="M159 343Q159 372 170 398Q181 424 200 443Q219 462 245 473Q271 484 300 484Q329 484 355 473Q381 462 400 443Q419 424 430 398Q441 372 441 343Q441 314 430 288Q419 262 400 243Q381 224 355 213Q329 202 300 202Q271 202 245 213Q219 224 200 243Q181 262 170 288Q159 314 159 343Z" glyph-name="bullet" horiz-adv-x="600" unicode="&#8226;" /><glyph d="M447 11Q405 -3 368.5 -8.5Q332 -14 301 -14Q169 -14 110 51Q51 116 51 255Q51 312 61.5 361Q72 410 100 446Q128 482 177.5 503Q227 524 305 524Q330 524 364.5 520.5Q399 517 434 505V422Q404 432 372.5 435.5Q341 439 317 439Q279 439 251.5 431.5Q224 424 205 405Q185 385 175 345.5Q165 306 165 255Q165 203 174.5 167Q184 131 206 109Q225 90 252 83.5Q279 77 317 77Q339 77 374.5 81.5Q410 86 447 99Z" glyph-name="c" horiz-adv-x="482" unicode="c" /><glyph d="M49 270Q49 422 111.5 488.5Q174 555 299 555Q309 555 325.5 554.5Q342 554 362 552Q382 550 403.5 546Q425 542 445 536V454Q406 465 370.5 468Q335 471 318 471Q279 471 249.5 462Q220 453 200.5 430.5Q181 408 171.5 369.5Q162 331 162 272Q162 212 171.5 173.5Q181 135 200 113.5Q219 92 248 84Q277 76 315 76Q342 76 382 81.5Q422 87 457 98V11Q439 3 417 -1.5Q395 -6 373.5 -9Q352 -12 332 -13Q312 -14 299 -14Q239 -14 192 1.5Q145 17 113.5 51Q82 85 65.5 139Q49 193 49 270Z" glyph-name="c.small" horiz-adv-x="492" unicode="&#63331;" /><glyph d="M290 287Q261 277 236.5 273.5Q212 270 192 270Q106 270 68 311.5Q30 353 30 441Q30 477 37 508.5Q44 540 62 563Q80 586 112 599.5Q144 613 194 613Q210 613 233 610.5Q256 608 282 599V537Q258 545 237 547.5Q216 550 203 550Q180 550 164.5 545.5Q149 541 138 530Q127 519 121.5 496Q116 473 116 441Q116 410 121 389Q126 368 139 355Q158 336 203 336Q215 336 238 339Q261 342 290 353Z" glyph-name="c.superior" horiz-adv-x="311" unicode="&#58211;" /><glyph d="M447 11Q405 -3 368.5 -8.5Q332 -14 301 -14Q169 -14 110 51Q51 116 51 255Q51 312 61.5 361Q72 410 100 446Q128 482 177.5 503Q227 524 305 524Q330 524 364.5 520.5Q399 517 434 505V422Q404 432 372.5 435.5Q341 439 317 439Q279 439 251.5 431.5Q224 424 205 405Q185 385 175 345.5Q165 306 165 255Q165 203 174.5 167Q184 131 206 109Q225 90 252 83.5Q279 77 317 77Q339 77 374.5 81.5Q410 86 447 99ZM304 566H211L321 678H454Z" glyph-name="cacute" horiz-adv-x="482" unicode="&#263;" /><glyph d="M49 270Q49 422 111.5 488.5Q174 555 299 555Q309 555 325.5 554.5Q342 554 362 552Q382 550 403.5 546Q425 542 445 536V454Q406 465 370.5 468Q335 471 318 471Q279 471 249.5 462Q220 453 200.5 430.5Q181 408 171.5 369.5Q162 331 162 272Q162 212 171.5 173.5Q181 135 200 113.5Q219 92 248 84Q277 76 315 76Q342 76 382 81.5Q422 87 457 98V11Q439 3 417 -1.5Q395 -6 373.5 -9Q352 -12 332 -13Q312 -14 299 -14Q239 -14 192 1.5Q145 17 113.5 51Q82 85 65.5 139Q49 193 49 270ZM313 598H220L330 710H463Z" glyph-name="cacute.small" horiz-adv-x="492" unicode="&#63043;" /><glyph d="M139 680H239L303 615L368 680H468L352 562H254Z" glyph-name="caron" horiz-adv-x="600" unicode="&#711;" /><glyph d="M139 848H239L303 783L368 848H468L352 730H254Z" glyph-name="caron.cap" horiz-adv-x="600" unicode="&#58413;" /><glyph d="M139 712H239L303 647L368 712H468L352 594H254Z" glyph-name="caron.small" horiz-adv-x="600" unicode="&#63221;" /><glyph d="M386 678H497L411 496H347Z" glyph-name="caronSlovak" horiz-adv-x="600" unicode="&#58387;" /><glyph d="M447 11Q405 -3 368.5 -8.5Q332 -14 301 -14Q169 -14 110 51Q51 116 51 255Q51 312 61.5 361Q72 410 100 446Q128 482 177.5 503Q227 524 305 524Q330 524 364.5 520.5Q399 517 434 505V422Q404 432 372.5 435.5Q341 439 317 439Q279 439 251.5 431.5Q224 424 205 405Q185 385 175 345.5Q165 306 165 255Q165 203 174.5 167Q184 131 206 109Q225 90 252 83.5Q279 77 317 77Q339 77 374.5 81.5Q410 86 447 99ZM104 680H204L268 615L333 680H433L317 562H219Z" glyph-name="ccaron" horiz-adv-x="482" unicode="&#269;" /><glyph d="M49 270Q49 422 111.5 488.5Q174 555 299 555Q309 555 325.5 554.5Q342 554 362 552Q382 550 403.5 546Q425 542 445 536V454Q406 465 370.5 468Q335 471 318 471Q279 471 249.5 462Q220 453 200.5 430.5Q181 408 171.5 369.5Q162 331 162 272Q162 212 171.5 173.5Q181 135 200 113.5Q219 92 248 84Q277 76 315 76Q342 76 382 81.5Q422 87 457 98V11Q439 3 417 -1.5Q395 -6 373.5 -9Q352 -12 332 -13Q312 -14 299 -14Q239 -14 192 1.5Q145 17 113.5 51Q82 85 65.5 139Q49 193 49 270ZM107 712H207L271 647L336 712H436L320 594H222Z" glyph-name="ccaron.small" horiz-adv-x="492" unicode="&#63044;" /><glyph d="M248 -11Q145 1 98 66Q51 131 51 255Q51 312 61.5 361Q72 410 100 446Q128 482 177.5 503Q227 524 305 524Q330 524 364.5 520.5Q399 517 434 505V422Q404 432 372.5 435.5Q341 439 317 439Q279 439 251.5 431.5Q224 424 205 405Q185 385 175 345.5Q165 306 165 255Q165 203 174.5 167Q184 131 206 109Q225 90 252 83.5Q279 77 317 77Q339 77 374.5 81.5Q410 86 447 99V11Q415 0 385.5 -5.5Q356 -11 330 -13L319 -40Q352 -51 366 -67Q380 -83 380 -104Q380 -141 346.5 -160Q313 -179 250 -179Q233 -179 212.5 -177Q192 -175 166 -167V-106Q189 -114 207 -116Q225 -118 237 -118Q286 -118 286 -96Q286 -84 271 -78.5Q256 -73 238 -72L232 -46Z" glyph-name="ccedilla" horiz-adv-x="482" unicode="&#231;" /><glyph d="M249 -11Q151 0 100 66Q49 132 49 270Q49 422 111.5 488.5Q174 555 299 555Q309 555 325.5 554.5Q342 554 362 552Q382 550 403.5 546Q425 542 445 536V454Q406 465 370.5 468Q335 471 318 471Q279 471 249.5 462Q220 453 200.5 430.5Q181 408 171.5 369.5Q162 331 162 272Q162 212 171.5 173.5Q181 135 200 113.5Q219 92 248 84Q277 76 315 76Q342 76 382 81.5Q422 87 457 98V11Q430 0 395 -5.5Q360 -11 331 -13L320 -40Q353 -51 367 -67Q381 -83 381 -104Q381 -141 347.5 -160Q314 -179 251 -179Q234 -179 213.5 -177Q193 -175 167 -167V-106Q190 -114 208 -116Q226 -118 238 -118Q287 -118 287 -96Q287 -84 272 -78.5Q257 -73 239 -72L233 -46Z" glyph-name="ccedilla.small" horiz-adv-x="492" unicode="&#63463;" /><glyph d="M447 11Q405 -3 368.5 -8.5Q332 -14 301 -14Q169 -14 110 51Q51 116 51 255Q51 312 61.5 361Q72 410 100 446Q128 482 177.5 503Q227 524 305 524Q330 524 364.5 520.5Q399 517 434 505V422Q404 432 372.5 435.5Q341 439 317 439Q279 439 251.5 431.5Q224 424 205 405Q185 385 175 345.5Q165 306 165 255Q165 203 174.5 167Q184 131 206 109Q225 90 252 83.5Q279 77 317 77Q339 77 374.5 81.5Q410 86 447 99ZM438 564H338L273 628L209 564H109L224 682H323Z" glyph-name="ccircumflex" horiz-adv-x="482" unicode="&#265;" /><glyph d="M440 594H340L275 658L211 594H110L226 712H325ZM49 270Q49 422 111.5 488.5Q174 555 299 555Q309 555 325.5 554.5Q342 554 362 552Q382 550 403.5 546Q425 542 445 536V454Q406 465 370.5 468Q335 471 318 471Q279 471 249.5 462Q220 453 200.5 430.5Q181 408 171.5 369.5Q162 331 162 272Q162 212 171.5 173.5Q181 135 200 113.5Q219 92 248 84Q277 76 315 76Q342 76 382 81.5Q422 87 457 98V11Q439 3 417 -1.5Q395 -6 373.5 -9Q352 -12 332 -13Q312 -14 299 -14Q239 -14 192 1.5Q145 17 113.5 51Q82 85 65.5 139Q49 193 49 270Z" glyph-name="ccircumflex.small" horiz-adv-x="492" unicode="&#63016;" /><glyph d="M326 581H214V677H326ZM447 11Q405 -3 368.5 -8.5Q332 -14 301 -14Q169 -14 110 51Q51 116 51 255Q51 312 61.5 361Q72 410 100 446Q128 482 177.5 503Q227 524 305 524Q330 524 364.5 520.5Q399 517 434 505V422Q404 432 372.5 435.5Q341 439 317 439Q279 439 251.5 431.5Q224 424 205 405Q185 385 175 345.5Q165 306 165 255Q165 203 174.5 167Q184 131 206 109Q225 90 252 83.5Q279 77 317 77Q339 77 374.5 81.5Q410 86 447 99Z" glyph-name="cdotaccent" horiz-adv-x="482" unicode="&#267;" /><glyph d="M331 613H219V709H331ZM49 270Q49 422 111.5 488.5Q174 555 299 555Q309 555 325.5 554.5Q342 554 362 552Q382 550 403.5 546Q425 542 445 536V454Q406 465 370.5 468Q335 471 318 471Q279 471 249.5 462Q220 453 200.5 430.5Q181 408 171.5 369.5Q162 331 162 272Q162 212 171.5 173.5Q181 135 200 113.5Q219 92 248 84Q277 76 315 76Q342 76 382 81.5Q422 87 457 98V11Q439 3 417 -1.5Q395 -6 373.5 -9Q352 -12 332 -13Q312 -14 299 -14Q239 -14 192 1.5Q145 17 113.5 51Q82 85 65.5 139Q49 193 49 270Z" glyph-name="cdotaccent.small" horiz-adv-x="492" unicode="&#63017;" /><glyph d="M282 0H365L348 -40Q381 -51 395 -67Q409 -83 409 -104Q409 -141 375.5 -160Q342 -179 279 -179Q262 -179 241.5 -177Q221 -175 195 -167V-106Q218 -114 236 -116Q254 -118 266 -118Q315 -118 315 -96Q315 -84 300 -78.5Q285 -73 267 -72L261 -46Z" glyph-name="cedilla" horiz-adv-x="600" unicode="&#184;" /><glyph d="M383 567Q398 565 414 561Q430 557 447 551V468Q416 479 385 482.5Q354 486 330 486Q281 486 251.5 472.5Q222 459 205.5 433Q189 407 183.5 368Q178 329 178 278Q178 228 184.5 190Q191 152 208 127Q225 102 254.5 89.5Q284 77 330 77Q352 77 387.5 81.5Q423 86 460 99V11Q421 -3 383 -8.5Q345 -14 314 -14Q303 -14 292.5 -13.5Q282 -13 271 -12L245 -118H150L183 11Q121 41 92.5 106.5Q64 172 64 278Q64 337 73.5 388.5Q83 440 108 479Q133 518 177 542.5Q221 567 290 571L316 678H410Z" glyph-name="cent" horiz-adv-x="505" unicode="&#162;" /><glyph d="M454 636Q469 634 485 630Q501 626 518 620V537Q487 548 456 551.5Q425 555 401 555Q352 555 322.5 541.5Q293 528 276.5 501.5Q260 475 254.5 436Q249 397 249 347Q249 298 255.5 260.5Q262 223 279 197.5Q296 172 325.5 159Q355 146 401 146Q423 146 458.5 150.5Q494 155 531 168V80Q492 66 454 60.5Q416 55 385 55Q374 55 363.5 55.5Q353 56 342 57L316 -49H221L254 80Q192 110 163.5 175.5Q135 241 135 347Q135 406 144.5 457.5Q154 509 179 548Q204 587 248 611.5Q292 636 361 640L387 747H481Z" glyph-name="cent.LP" horiz-adv-x="660" unicode="&#58659;" /><glyph d="M495 525Q551 525 600 503.5Q649 482 686 445.5Q723 409 744 359.5Q765 310 765 254Q765 198 744 149Q723 100 686 63Q649 26 600 5Q551 -16 495 -16Q439 -16 390 5Q341 26 304 63Q267 100 246 149Q225 198 225 254Q225 310 246 359.5Q267 409 304 445.5Q341 482 390 503.5Q439 525 495 525Z" glyph-name="circle" horiz-adv-x="990" unicode="&#59201;" /><glyph d="M468 564H368L303 628L239 564H139L254 682H353Z" glyph-name="circumflex" horiz-adv-x="600" unicode="&#710;" /><glyph d="M468 732H368L303 796L239 732H139L254 850H353Z" glyph-name="circumflex.cap" horiz-adv-x="600" unicode="&#58403;" /><glyph d="M471 594H371L306 658L242 594H141L257 712H356Z" glyph-name="circumflex.small" horiz-adv-x="600" unicode="&#63222;" /><glyph d="M209 0H79V122H209ZM209 388H79V510H209Z" glyph-name="colon" horiz-adv-x="288" unicode=":" /><glyph d="M102 136H236L123 -129H40Z" glyph-name="comma" horiz-adv-x="288" unicode="," /><glyph d="M317 678H427L341 496H277Z" glyph-name="commaabovecmb" horiz-adv-x="600" unicode="&#787;" /><glyph d="M247 -75H357L271 -258H207Z" glyph-name="commaaccent" horiz-adv-x="600" unicode="&#63171;" /><glyph d="M580 565H470L556 747H620Z" glyph-name="commaturnedabove" horiz-adv-x="700" unicode="&#59202;" /><glyph d="M290 342Q290 440 330 483Q370 526 450 526Q468 526 491.5 523Q515 520 540 512V451Q522 457 500.5 460Q479 463 462 463Q415 463 395 437.5Q375 412 375 342Q375 307 379.5 284Q384 261 394.5 247Q405 233 421.5 227.5Q438 222 462 222Q478 222 498.5 224.5Q519 227 537 232V171Q513 163 490.5 160.5Q468 158 450 158Q370 158 330 201.5Q290 245 290 342ZM151 338Q151 208 221 133.5Q291 59 435 59Q579 59 649 132.5Q719 206 719 338Q719 470 649 544.5Q579 619 435 619Q362 619 308.5 599.5Q255 580 220 543.5Q185 507 168 455Q151 403 151 338ZM805 338Q805 169 708.5 77.5Q612 -14 435 -14Q347 -14 278.5 10Q210 34 162.5 79Q115 124 90.5 189.5Q66 255 66 338Q66 421 90.5 487Q115 553 162 598.5Q209 644 277.5 668Q346 692 435 692Q523 692 592 668.5Q661 645 708 599.5Q755 554 780 488Q805 422 805 338Z" glyph-name="copyright" horiz-adv-x="870" unicode="&#169;" /><glyph d="M346 291Q312 280 283 276Q254 272 230 272Q130 272 84 320.5Q38 369 38 474Q38 517 46 554Q54 591 75.5 618.5Q97 646 135 661.5Q173 677 233 677Q252 677 279.5 674Q307 671 337 660V587Q308 596 283.5 599.5Q259 603 242 603Q216 603 197.5 598Q179 593 166 580Q152 566 145.5 539Q139 512 139 474Q139 437 145 411.5Q151 386 167 371Q179 358 198 353.5Q217 349 242 349Q258 349 285.5 352.5Q313 356 346 368Z" glyph-name="cordinal" horiz-adv-x="371" unicode="&#57729;" /><glyph d="M37 485Q37 600 84.5 649.5Q132 699 228 699Q244 699 276.5 697Q309 695 345 682V609Q311 621 282.5 623.5Q254 626 241 626Q215 626 195.5 619.5Q176 613 163.5 597.5Q151 582 144.5 555Q138 528 138 487Q138 444 144.5 417Q151 390 163.5 375Q176 360 195.5 354.5Q215 349 241 349Q259 349 291 353Q323 357 353 367V293Q338 287 320.5 283Q303 279 285.5 277Q268 275 253 274Q238 273 228 273Q182 273 146.5 284.5Q111 296 86.5 321Q62 346 49.5 386.5Q37 427 37 485Z" glyph-name="cordinal.small" horiz-adv-x="379" unicode="&#59203;" /><glyph d="M427 137Q463 137 497 147Q531 157 557.5 180.5Q584 204 600.5 243Q617 282 617 340Q617 398 600.5 437Q584 476 557.5 499Q531 522 497 532Q463 542 427 542Q392 542 358 532Q324 522 297.5 499Q271 476 254.5 437Q238 398 238 340Q238 282 254.5 243Q271 204 297.5 180.5Q324 157 358 147Q392 137 427 137ZM178 159Q154 194 140.5 238Q127 282 127 341Q127 398 140.5 442Q154 486 177 520L80 618L148 685L247 585Q285 609 331.5 620.5Q378 632 427 632Q477 632 523.5 620.5Q570 609 608 585L708 685L776 618L678 520Q702 486 715 442Q728 398 728 341Q728 283 714.5 238.5Q701 194 678 160L776 62L708 -6L608 95Q569 71 523 59.5Q477 48 427 48Q378 48 332 59.5Q286 71 248 94L148 -6L80 62Z" glyph-name="currency" horiz-adv-x="856" unicode="&#164;" /><glyph d="M434 58Q399 23 358 6Q317 -11 275 -11Q163 -11 107 53Q51 117 51 255Q51 389 114.5 455Q178 521 293 521Q317 521 353 515.5Q389 510 416 493V678H523V0H447L435 58ZM416 400Q396 419 364 426Q332 433 303 433Q229 433 197 390.5Q165 348 165 255Q165 205 173 171Q181 137 197 116Q213 95 237 86Q261 77 294 77Q329 77 359.5 95Q390 113 416 144Z" glyph-name="d" horiz-adv-x="603" unicode="d" /><glyph d="M545 271Q545 196 527.5 144Q510 92 474 56Q444 26 399.5 13Q355 0 293 0H79V541H287Q350 541 397 528Q444 515 476 483Q511 448 528 397Q545 346 545 271ZM432 271Q432 332 420.5 370.5Q409 409 386 432Q368 450 345.5 455Q323 460 293 460H186V82H292Q321 82 344.5 87Q368 92 385 108Q408 131 420 169.5Q432 208 432 271Z" glyph-name="d.small" horiz-adv-x="594" unicode="&#63332;" /><glyph d="M269 309H268Q248 290 223.5 281Q199 272 176 272Q103 272 66.5 312.5Q30 353 30 441Q30 527 71 569Q112 611 187 611Q201 611 219.5 608Q238 605 255 597V708H337V279H275ZM255 530Q243 538 225.5 542.5Q208 547 194 547Q152 547 134 521.5Q116 496 116 441Q116 381 133.5 358.5Q151 336 188 336Q228 336 255 372Z" glyph-name="d.superior" horiz-adv-x="389" unicode="&#58212;" /><glyph d="M253 -85H187L178 397L29 386V480L178 470L168 678H272L262 470L411 480V386L262 396Z" glyph-name="dagger" horiz-adv-x="440" unicode="&#8224;" /><glyph d="M259 263 383 272V192L258 200L253 -85H187L181 200L57 192V272L180 263L178 397L29 386V480L178 470L168 678H272L262 470L411 480V386L262 396Z" glyph-name="daggerdbl" horiz-adv-x="440" unicode="&#8225;" /><glyph d="M434 58Q399 23 358 6Q317 -11 275 -11Q163 -11 107 53Q51 117 51 255Q51 389 114.5 455Q178 521 293 521Q317 521 353 515.5Q389 510 416 493V678H523V0H447L435 58ZM416 400Q396 419 364 426Q332 433 303 433Q229 433 197 390.5Q165 348 165 255Q165 205 173 171Q181 137 197 116Q213 95 237 86Q261 77 294 77Q329 77 359.5 95Q390 113 416 144ZM638 678H749L663 496H599Z" glyph-name="dcaron" horiz-adv-x="742" unicode="&#271;" /><glyph d="M122 712H222L286 647L351 712H451L335 594H237ZM545 271Q545 196 527.5 144Q510 92 474 56Q444 26 399.5 13Q355 0 293 0H79V541H287Q350 541 397 528Q444 515 476 483Q511 448 528 397Q545 346 545 271ZM432 271Q432 332 420.5 370.5Q409 409 386 432Q368 450 345.5 455Q323 460 293 460H186V82H292Q321 82 344.5 87Q368 92 385 108Q408 131 420 169.5Q432 208 432 271Z" glyph-name="dcaron.small" horiz-adv-x="594" unicode="&#63045;" /><glyph d="M434 58Q399 23 358 6Q317 -11 275 -11Q163 -11 107 53Q51 117 51 255Q51 389 114.5 455Q178 521 293 521Q317 521 353 515.5Q389 510 416 493V678H523V0H447L435 58ZM416 400Q396 419 364 426Q332 433 303 433Q229 433 197 390.5Q165 348 165 255Q165 205 173 171Q181 137 197 116Q213 95 237 86Q261 77 294 77Q329 77 359.5 95Q390 113 416 144ZM281 -36Q317 -38 340 -45.5Q363 -53 376.5 -63Q390 -73 395.5 -85Q401 -97 401 -108Q401 -143 367.5 -161Q334 -179 274 -179Q257 -179 235 -177Q213 -175 187 -167V-106Q209 -114 226.5 -116Q244 -118 258 -118Q279 -118 293 -114Q307 -110 307 -98Q307 -85 292.5 -81Q278 -77 261 -75Z" glyph-name="dcedilla" horiz-adv-x="603" unicode="&#7697;" /><glyph d="M269 -36Q305 -38 328 -45.5Q351 -53 364.5 -63Q378 -73 383.5 -85Q389 -97 389 -108Q389 -143 355.5 -161Q322 -179 262 -179Q245 -179 223 -177Q201 -175 175 -167V-106Q197 -114 214.5 -116Q232 -118 246 -118Q267 -118 281 -114Q295 -110 295 -98Q295 -85 280.5 -81Q266 -77 249 -75ZM545 271Q545 196 527.5 144Q510 92 474 56Q444 26 399.5 13Q355 0 293 0H79V541H287Q350 541 397 528Q444 515 476 483Q511 448 528 397Q545 346 545 271ZM432 271Q432 332 420.5 370.5Q409 409 386 432Q368 450 345.5 455Q323 460 293 460H186V82H292Q321 82 344.5 87Q368 92 385 108Q408 131 420 169.5Q432 208 432 271Z" glyph-name="dcedilla.small" horiz-adv-x="594" unicode="&#59207;" /><glyph d="M416 400Q396 419 364 426Q332 433 303 433Q229 433 197 390.5Q165 348 165 255Q165 205 173 171Q181 137 197 116Q213 95 237 86Q261 77 294 77Q329 77 359.5 95Q390 113 416 144ZM625 552H523V0H447L435 58H434Q399 23 358 6Q317 -11 275 -11Q163 -11 107 53Q51 117 51 255Q51 389 114.5 455Q178 521 293 521Q317 521 353 515.5Q389 510 416 493V552H281V627H416V678H523V627H625Z" glyph-name="dcroat" horiz-adv-x="603" unicode="&#273;" /><glyph d="M445 271Q445 332 433.5 370.5Q422 409 399 432Q381 450 358.5 455Q336 460 306 460H199V312H357V239H199V82H305Q334 82 357.5 87Q381 92 398 108Q421 131 433 169.5Q445 208 445 271ZM558 271Q558 196 540.5 144Q523 92 487 56Q457 26 412.5 13Q368 0 306 0H92V239H10V312H92V541H300Q363 541 410 528Q457 515 489 483Q524 448 541 397Q558 346 558 271Z" glyph-name="dcroat.small" horiz-adv-x="607" unicode="&#63046;" /><glyph d="M352 -189H246V-92H352ZM434 58Q399 23 358 6Q317 -11 275 -11Q163 -11 107 53Q51 117 51 255Q51 389 114.5 455Q178 521 293 521Q317 521 353 515.5Q389 510 416 493V678H523V0H447L435 58ZM416 400Q396 419 364 426Q332 433 303 433Q229 433 197 390.5Q165 348 165 255Q165 205 173 171Q181 137 197 116Q213 95 237 86Q261 77 294 77Q329 77 359.5 95Q390 113 416 144Z" glyph-name="ddotbelow" horiz-adv-x="603" unicode="&#7693;" /><glyph d="M334 -189H228V-92H334ZM545 271Q545 196 527.5 144Q510 92 474 56Q444 26 399.5 13Q355 0 293 0H79V541H287Q350 541 397 528Q444 515 476 483Q511 448 528 397Q545 346 545 271ZM432 271Q432 332 420.5 370.5Q409 409 386 432Q368 450 345.5 455Q323 460 293 460H186V82H292Q321 82 344.5 87Q368 92 385 108Q408 131 420 169.5Q432 208 432 271Z" glyph-name="ddotbelow.small" horiz-adv-x="594" unicode="&#59208;" /><glyph d="M222 364Q183 364 149 374Q115 384 90 404.5Q65 425 51 455.5Q37 486 37 528Q37 570 51 601Q65 632 90 652.5Q115 673 149 683Q183 693 222 693Q262 693 296 683Q330 673 355 652.5Q380 632 394 601Q408 570 408 528Q408 486 394 455.5Q380 425 355 404.5Q330 384 296 374Q262 364 222 364ZM222 438Q267 438 293.5 459.5Q320 481 320 528Q320 576 293.5 598Q267 620 222 620Q177 620 151 598Q125 576 125 528Q125 481 151 459.5Q177 438 222 438Z" glyph-name="degree" horiz-adv-x="444" unicode="&#176;" /><glyph d="M466 580H358V675H466ZM258 580H151V675H258Z" glyph-name="dieresis" horiz-adv-x="600" unicode="&#168;" /><glyph d="M466 748H358V843H466ZM258 748H151V843H258Z" glyph-name="dieresis.cap" horiz-adv-x="600" unicode="&#58409;" /><glyph d="M466 612H358V707H466ZM258 612H151V707H258Z" glyph-name="dieresis.small" horiz-adv-x="600" unicode="&#63400;" /><glyph d="M216 579H107V676H216ZM424 579H314V676H424ZM438 741H92V820H438Z" glyph-name="dieresismacron" horiz-adv-x="0" unicode="&#59209;" /><glyph d="M269 747H160V844H269ZM477 747H367V844H477ZM491 909H145V988H491Z" glyph-name="dieresismacron.cap" horiz-adv-x="0" unicode="&#59216;" /><glyph d="M359 39H247V142H359ZM554 226H52V315H554ZM359 400H247V503H359Z" glyph-name="divide" horiz-adv-x="605" unicode="&#247;" /><glyph d="M375 113H263V216H375ZM584 301H52V390H584ZM375 474H263V577H375Z" glyph-name="divide.cap" horiz-adv-x="636" unicode="&#58772;" /><glyph d="M354 565Q372 562 390 558.5Q408 555 423 550V467Q381 479 339.5 482.5Q298 486 274 486Q218 486 189 467.5Q160 449 160 405Q160 381 169 367.5Q178 354 193 347Q208 340 228 338.5Q248 337 270 336Q302 334 337 329Q372 324 400.5 307.5Q429 291 447.5 260Q466 229 466 176Q466 127 448.5 92Q431 57 400 33.5Q369 10 326.5 -1Q284 -12 235 -13H232L206 -118H111L140 -6Q119 -3 98 1.5Q77 6 59 12V99Q80 93 104 88.5Q128 84 151 81.5Q174 79 193.5 77.5Q213 76 226 76Q298 76 328 98Q358 120 358 162Q358 187 349.5 201.5Q341 216 326 223.5Q311 231 290 233Q269 235 245 236Q214 237 180 242.5Q146 248 117.5 264.5Q89 281 70.5 312Q52 343 52 395Q52 443 69 476Q86 509 114.5 529.5Q143 550 181 560Q219 570 261 571L288 678H382Z" glyph-name="dollar" horiz-adv-x="512" unicode="$" /><glyph d="M287 -118H188L223 22Q197 25 171 31Q145 37 123 46V140Q146 132 172.5 126.5Q199 121 224.5 118Q250 115 271.5 114Q293 113 307 113Q348 113 376 120Q404 127 421 139Q438 151 445.5 167.5Q453 184 453 204Q453 231 444 247.5Q435 264 418 274Q401 284 376.5 287.5Q352 291 322 293Q281 294 243.5 302.5Q206 311 177 331Q148 351 130.5 385.5Q113 420 113 475Q113 520 130 554Q147 588 177.5 611Q208 634 249.5 646Q291 658 339 661L373 795H472L437 656Q458 654 480 649.5Q502 645 519 638V549Q475 563 433.5 566.5Q392 570 366 570Q232 570 232 482Q232 454 242.5 439Q253 424 271 416.5Q289 409 313.5 406.5Q338 404 365 402Q402 399 439.5 391.5Q477 384 506.5 363.5Q536 343 554.5 307Q573 271 573 212Q573 163 553.5 127Q534 91 500 67Q466 43 420 30.5Q374 18 321 17Z" glyph-name="dollar.LP" horiz-adv-x="660" unicode="&#58658;" /><glyph d="M356 581H244V677H356ZM473 737H127V816H473Z" glyph-name="dotabovemacron" horiz-adv-x="0" unicode="&#59218;" /><glyph d="M416 749H304V845H416ZM532 918H186V997H532Z" glyph-name="dotabovemacron.cap" horiz-adv-x="0" unicode="&#59219;" /><glyph d="M359 621H247V718H359ZM477 773H132V852H477Z" glyph-name="dotabovemacron.small" horiz-adv-x="0" unicode="&#59220;" /><glyph d="M356 581H244V677H356Z" glyph-name="dotaccent" horiz-adv-x="600" unicode="&#729;" /><glyph d="M356 749H244V845H356Z" glyph-name="dotaccent.cap" horiz-adv-x="600" unicode="&#58408;" /><glyph d="M356 613H244V709H356Z" glyph-name="dotaccent.small" horiz-adv-x="600" unicode="&#63223;" /><glyph d="M200 0H86V678H200Z" glyph-name="dotlessI" horiz-adv-x="286" unicode="&#59221;" /><glyph d="M14 -118Q53 -55 72.5 14.5Q92 84 92 169V678H206V197Q206 145 202 102Q198 59 188.5 21.5Q179 -16 163 -50Q147 -84 123 -118Z" glyph-name="dotlessJ" horiz-adv-x="292" unicode="&#59223;" /><glyph d="M188 0H81V511H188Z" glyph-name="dotlessi" horiz-adv-x="268" unicode="&#305;" /><glyph d="M186 0H79V541H186Z" glyph-name="dotlessi.small" horiz-adv-x="264" unicode="&#59222;" /><glyph d="M29 -168Q55 -126 71 -68Q87 -10 87 51V510H194V133Q194 83 192.5 41.5Q191 0 185 -36Q179 -72 166 -104.5Q153 -137 130 -168Z" glyph-name="dotlessj" horiz-adv-x="273" unicode="&#567;" /><glyph d="M14 -91Q49 -37 66.5 18Q84 73 84 139V541H192V160Q192 119 188.5 85Q185 51 176.5 21Q168 -9 154 -36.5Q140 -64 119 -91Z" glyph-name="dotlessj.small" horiz-adv-x="270" unicode="&#59224;" /><glyph d="M384 -85H316V763H384ZM282 -85H214V763H282Z" glyph-name="doublebar" horiz-adv-x="598" unicode="&#8214;" /><glyph d="M39 678H158L267 565H188ZM202 678H322L431 565H351Z" glyph-name="doublegrave" horiz-adv-x="600" unicode="&#58386;" /><glyph d="M39 846H158L267 733H188ZM202 846H322L431 733H351Z" glyph-name="doublegrave.cap" horiz-adv-x="600" unicode="&#58412;" /><glyph d="M39 710H158L267 597H188ZM202 710H322L431 597H351Z" glyph-name="doublegrave.small" horiz-adv-x="600" unicode="&#59225;" /><glyph d="M290 441Q266 441 243.5 435Q221 429 204 412Q174 382 168 311H397Q398 321 398 325.5Q398 330 398 332Q398 359 392 380Q386 401 372 415Q358 429 337 435Q316 441 290 441ZM165 232Q166 191 173.5 159.5Q181 128 203 107Q222 88 251 80Q280 72 324 72Q339 72 357.5 73Q376 74 397 76.5Q418 79 439 83.5Q460 88 479 94V11Q460 5 437.5 0Q415 -5 392 -8Q369 -11 346 -12.5Q323 -14 304 -14Q169 -14 110 52Q51 118 51 255Q51 331 69.5 382.5Q88 434 120 465.5Q152 497 195.5 510.5Q239 524 289 524Q401 524 451 470Q501 416 501 308Q501 297 499.5 273Q498 249 496 232Z" glyph-name="e" horiz-adv-x="552" unicode="e" /><glyph d="M452 0H79V541H446V460H186V318H410V234H186V82H452Z" glyph-name="e.small" horiz-adv-x="489" unicode="&#63333;" /><glyph d="M185 552Q172 552 159 548.5Q146 545 136 536Q126 525 123 512Q120 499 118 479H246V491Q246 523 231 538Q217 552 185 552ZM116 422Q117 399 121.5 382Q126 365 137 354Q148 343 165.5 339Q183 335 207 335Q224 335 252.5 338.5Q281 342 310 350V287Q284 279 251 274.5Q218 270 194 270Q106 270 68 311.5Q30 353 30 441Q30 490 42 523Q54 556 75 576Q96 596 124 604.5Q152 613 185 613Q257 613 290.5 578Q324 543 324 474Q324 469 323.5 461Q323 453 322 444Q322 439 321.5 433Q321 427 320 422Z" glyph-name="e.superior" horiz-adv-x="354" unicode="&#58213;" /><glyph d="M290 441Q266 441 243.5 435Q221 429 204 412Q174 382 168 311H397Q398 321 398 325.5Q398 330 398 332Q398 359 392 380Q386 401 372 415Q358 429 337 435Q316 441 290 441ZM165 232Q166 191 173.5 159.5Q181 128 203 107Q222 88 251 80Q280 72 324 72Q339 72 357.5 73Q376 74 397 76.5Q418 79 439 83.5Q460 88 479 94V11Q460 5 437.5 0Q415 -5 392 -8Q369 -11 346 -12.5Q323 -14 304 -14Q169 -14 110 52Q51 118 51 255Q51 331 69.5 382.5Q88 434 120 465.5Q152 497 195.5 510.5Q239 524 289 524Q401 524 451 470Q501 416 501 308Q501 297 499.5 273Q498 249 496 232ZM324 566H231L341 678H474Z" glyph-name="eacute" horiz-adv-x="552" unicode="&#233;" /><glyph d="M300 598H207L317 710H450ZM452 0H79V541H446V460H186V318H410V234H186V82H452Z" glyph-name="eacute.small" horiz-adv-x="489" unicode="&#63465;" /><glyph d="M348 -189H242V-92H348ZM290 441Q266 441 243.5 435Q221 429 204 412Q174 382 168 311H397Q398 321 398 325.5Q398 330 398 332Q398 359 392 380Q386 401 372 415Q358 429 337 435Q316 441 290 441ZM165 232Q166 191 173.5 159.5Q181 128 203 107Q222 88 251 80Q280 72 324 72Q339 72 357.5 73Q376 74 397 76.5Q418 79 439 83.5Q460 88 479 94V11Q460 5 437.5 0Q415 -5 392 -8Q369 -11 346 -12.5Q323 -14 304 -14Q169 -14 110 52Q51 118 51 255Q51 331 69.5 382.5Q88 434 120 465.5Q152 497 195.5 510.5Q239 524 289 524Q401 524 451 470Q501 416 501 308Q501 297 499.5 273Q498 249 496 232ZM324 566H231L341 678H474Z" glyph-name="eacutedotbelow" horiz-adv-x="552" unicode="&#59232;" /><glyph d="M300 598H207L317 710H450ZM317 -189H211V-92H317ZM452 0H79V541H446V460H186V318H410V234H186V82H452Z" glyph-name="eacutedotbelow.small" horiz-adv-x="489" unicode="&#59234;" /><glyph d="M291 623Q323 623 349 634.5Q375 646 382 678H470Q459 612 411 584Q363 556 291 556Q220 556 171.5 584.5Q123 613 113 678H200Q208 646 233.5 634.5Q259 623 291 623ZM290 441Q266 441 243.5 435Q221 429 204 412Q174 382 168 311H397Q398 321 398 325.5Q398 330 398 332Q398 359 392 380Q386 401 372 415Q358 429 337 435Q316 441 290 441ZM165 232Q166 191 173.5 159.5Q181 128 203 107Q222 88 251 80Q280 72 324 72Q339 72 357.5 73Q376 74 397 76.5Q418 79 439 83.5Q460 88 479 94V11Q460 5 437.5 0Q415 -5 392 -8Q369 -11 346 -12.5Q323 -14 304 -14Q169 -14 110 52Q51 118 51 255Q51 331 69.5 382.5Q88 434 120 465.5Q152 497 195.5 510.5Q239 524 289 524Q401 524 451 470Q501 416 501 308Q501 297 499.5 273Q498 249 496 232Z" glyph-name="ebreve" horiz-adv-x="552" unicode="&#277;" /><glyph d="M263 655Q295 655 321 666.5Q347 678 354 710H442Q431 644 383 616Q335 588 263 588Q192 588 143.5 616.5Q95 645 85 710H172Q180 678 205.5 666.5Q231 655 263 655ZM452 0H79V541H446V460H186V318H410V234H186V82H452Z" glyph-name="ebreve.small" horiz-adv-x="489" unicode="&#63018;" /><glyph d="M290 441Q266 441 243.5 435Q221 429 204 412Q174 382 168 311H397Q398 321 398 325.5Q398 330 398 332Q398 359 392 380Q386 401 372 415Q358 429 337 435Q316 441 290 441ZM165 232Q166 191 173.5 159.5Q181 128 203 107Q222 88 251 80Q280 72 324 72Q339 72 357.5 73Q376 74 397 76.5Q418 79 439 83.5Q460 88 479 94V11Q460 5 437.5 0Q415 -5 392 -8Q369 -11 346 -12.5Q323 -14 304 -14Q169 -14 110 52Q51 118 51 255Q51 331 69.5 382.5Q88 434 120 465.5Q152 497 195.5 510.5Q239 524 289 524Q401 524 451 470Q501 416 501 308Q501 297 499.5 273Q498 249 496 232ZM126 680H226L290 615L355 680H455L339 562H241Z" glyph-name="ecaron" horiz-adv-x="552" unicode="&#283;" /><glyph d="M452 0H79V541H446V460H186V318H410V234H186V82H452ZM103 712H203L267 647L332 712H432L316 594H218Z" glyph-name="ecaron.small" horiz-adv-x="489" unicode="&#63047;" /><glyph d="M290 441Q266 441 243.5 435Q221 429 204 412Q174 382 168 311H397Q398 321 398 325.5Q398 330 398 332Q398 359 392 380Q386 401 372 415Q358 429 337 435Q316 441 290 441ZM165 232Q166 191 173.5 159.5Q181 128 203 107Q222 88 251 80Q280 72 324 72Q339 72 357.5 73Q376 74 397 76.5Q418 79 439 83.5Q460 88 479 94V11Q460 5 437.5 0Q415 -5 392 -8Q369 -11 346 -12.5Q323 -14 304 -14Q169 -14 110 52Q51 118 51 255Q51 331 69.5 382.5Q88 434 120 465.5Q152 497 195.5 510.5Q239 524 289 524Q401 524 451 470Q501 416 501 308Q501 297 499.5 273Q498 249 496 232ZM451 564H351L286 628L222 564H122L237 682H336Z" glyph-name="ecircumflex" horiz-adv-x="552" unicode="&#234;" /><glyph d="M431 594H331L266 658L202 594H101L217 712H316ZM452 0H79V541H446V460H186V318H410V234H186V82H452Z" glyph-name="ecircumflex.small" horiz-adv-x="489" unicode="&#63466;" /><glyph d="M290 441Q266 441 243.5 435Q221 429 204 412Q174 382 168 311H397Q398 321 398 325.5Q398 330 398 332Q398 359 392 380Q386 401 372 415Q358 429 337 435Q316 441 290 441ZM165 232Q166 191 173.5 159.5Q181 128 203 107Q222 88 251 80Q280 72 324 72Q339 72 357.5 73Q376 74 397 76.5Q418 79 439 83.5Q460 88 479 94V11Q460 5 437.5 0Q415 -5 392 -8Q369 -11 346 -12.5Q323 -14 304 -14Q169 -14 110 52Q51 118 51 255Q51 331 69.5 382.5Q88 434 120 465.5Q152 497 195.5 510.5Q239 524 289 524Q401 524 451 470Q501 416 501 308Q501 297 499.5 273Q498 249 496 232ZM446 580H338V675H446ZM238 580H131V675H238Z" glyph-name="edieresis" horiz-adv-x="552" unicode="&#235;" /><glyph d="M452 0H79V541H446V460H186V318H410V234H186V82H452ZM421 612H313V707H421ZM213 612H106V707H213Z" glyph-name="edieresis.small" horiz-adv-x="489" unicode="&#63467;" /><glyph d="M348 581H236V677H348ZM290 441Q266 441 243.5 435Q221 429 204 412Q174 382 168 311H397Q398 321 398 325.5Q398 330 398 332Q398 359 392 380Q386 401 372 415Q358 429 337 435Q316 441 290 441ZM165 232Q166 191 173.5 159.5Q181 128 203 107Q222 88 251 80Q280 72 324 72Q339 72 357.5 73Q376 74 397 76.5Q418 79 439 83.5Q460 88 479 94V11Q460 5 437.5 0Q415 -5 392 -8Q369 -11 346 -12.5Q323 -14 304 -14Q169 -14 110 52Q51 118 51 255Q51 331 69.5 382.5Q88 434 120 465.5Q152 497 195.5 510.5Q239 524 289 524Q401 524 451 470Q501 416 501 308Q501 297 499.5 273Q498 249 496 232Z" glyph-name="edotaccent" horiz-adv-x="552" unicode="&#279;" /><glyph d="M324 613H212V709H324ZM452 0H79V541H446V460H186V318H410V234H186V82H452Z" glyph-name="edotaccent.small" horiz-adv-x="489" unicode="&#63048;" /><glyph d="M32 678H151L260 565H181ZM195 678H315L424 565H344ZM290 441Q266 441 243.5 435Q221 429 204 412Q174 382 168 311H397Q398 321 398 325.5Q398 330 398 332Q398 359 392 380Q386 401 372 415Q358 429 337 435Q316 441 290 441ZM165 232Q166 191 173.5 159.5Q181 128 203 107Q222 88 251 80Q280 72 324 72Q339 72 357.5 73Q376 74 397 76.5Q418 79 439 83.5Q460 88 479 94V11Q460 5 437.5 0Q415 -5 392 -8Q369 -11 346 -12.5Q323 -14 304 -14Q169 -14 110 52Q51 118 51 255Q51 331 69.5 382.5Q88 434 120 465.5Q152 497 195.5 510.5Q239 524 289 524Q401 524 451 470Q501 416 501 308Q501 297 499.5 273Q498 249 496 232Z" glyph-name="edoublegrave" horiz-adv-x="552" unicode="&#513;" /><glyph d="M8 710H127L236 597H157ZM171 710H291L400 597H320ZM452 0H79V541H446V460H186V318H410V234H186V82H452Z" glyph-name="edoublegrave.small" horiz-adv-x="489" unicode="&#59235;" /><glyph d="M104 678H237L347 566H254ZM290 441Q266 441 243.5 435Q221 429 204 412Q174 382 168 311H397Q398 321 398 325.5Q398 330 398 332Q398 359 392 380Q386 401 372 415Q358 429 337 435Q316 441 290 441ZM165 232Q166 191 173.5 159.5Q181 128 203 107Q222 88 251 80Q280 72 324 72Q339 72 357.5 73Q376 74 397 76.5Q418 79 439 83.5Q460 88 479 94V11Q460 5 437.5 0Q415 -5 392 -8Q369 -11 346 -12.5Q323 -14 304 -14Q169 -14 110 52Q51 118 51 255Q51 331 69.5 382.5Q88 434 120 465.5Q152 497 195.5 510.5Q239 524 289 524Q401 524 451 470Q501 416 501 308Q501 297 499.5 273Q498 249 496 232Z" glyph-name="egrave" horiz-adv-x="552" unicode="&#232;" /><glyph d="M86 710H219L329 598H236ZM452 0H79V541H446V460H186V318H410V234H186V82H452Z" glyph-name="egrave.small" horiz-adv-x="489" unicode="&#63464;" /><glyph d="M348 -189H242V-92H348ZM105 678H238L348 566H255ZM290 441Q266 441 243.5 435Q221 429 204 412Q174 382 168 311H397Q398 321 398 325.5Q398 330 398 332Q398 359 392 380Q386 401 372 415Q358 429 337 435Q316 441 290 441ZM165 232Q166 191 173.5 159.5Q181 128 203 107Q222 88 251 80Q280 72 324 72Q339 72 357.5 73Q376 74 397 76.5Q418 79 439 83.5Q460 88 479 94V11Q460 5 437.5 0Q415 -5 392 -8Q369 -11 346 -12.5Q323 -14 304 -14Q169 -14 110 52Q51 118 51 255Q51 331 69.5 382.5Q88 434 120 465.5Q152 497 195.5 510.5Q239 524 289 524Q401 524 451 470Q501 416 501 308Q501 297 499.5 273Q498 249 496 232Z" glyph-name="egravedotbelow" horiz-adv-x="552" unicode="&#59236;" /><glyph d="M317 -189H211V-92H317ZM86 710H219L329 598H236ZM452 0H79V541H446V460H186V318H410V234H186V82H452Z" glyph-name="egravedotbelow.small" horiz-adv-x="489" unicode="&#59238;" /><glyph d="M325 390Q359 390 382.5 398.5Q406 407 426 427Q452 453 452 500Q452 523 446.5 543Q441 563 427 577.5Q413 592 388.5 600Q364 608 325 608Q286 608 261.5 600Q237 592 223 577.5Q209 563 203.5 543Q198 523 198 500Q198 453 224 427Q244 407 267.5 398.5Q291 390 325 390ZM325 70Q348 70 372.5 75Q397 80 417.5 92.5Q438 105 451.5 127Q465 149 465 184Q465 213 458 233Q451 253 438 266Q419 285 392.5 294.5Q366 304 325 304Q284 304 257.5 294.5Q231 285 212 266Q199 253 192 233Q185 213 185 184Q185 149 198.5 127Q212 105 232.5 92.5Q253 80 277.5 75Q302 70 325 70ZM325 692Q376 692 420 681Q464 670 496.5 648.5Q529 627 547 593.5Q565 560 565 515Q565 455 539.5 415Q514 375 473 350V348Q521 327 549.5 284.5Q578 242 578 182Q578 128 557.5 90.5Q537 53 502.5 29.5Q468 6 422 -4Q376 -14 325 -14Q274 -14 228.5 -4Q183 6 148 29.5Q113 53 92.5 90.5Q72 128 72 182Q72 242 100.5 284.5Q129 327 177 348V350Q136 375 110.5 415Q85 455 85 515Q85 560 103 593.5Q121 627 153.5 648.5Q186 670 230 681Q274 692 325 692Z" glyph-name="eight" horiz-adv-x="650" unicode="8" /><glyph d="M323 390Q357 390 380.5 398.5Q404 407 424 427Q450 453 450 500Q450 523 444.5 543Q439 563 425 577.5Q411 592 386.5 600Q362 608 323 608Q284 608 259.5 600Q235 592 221 577.5Q207 563 201.5 543Q196 523 196 500Q196 453 222 427Q242 407 265.5 398.5Q289 390 323 390ZM323 70Q346 70 370.5 75Q395 80 415.5 92.5Q436 105 449.5 127Q463 149 463 184Q463 213 456 233Q449 253 436 266Q417 285 390.5 294.5Q364 304 323 304Q282 304 255.5 294.5Q229 285 210 266Q197 253 190 233Q183 213 183 184Q183 149 196.5 127Q210 105 230.5 92.5Q251 80 275.5 75Q300 70 323 70ZM323 692Q374 692 418 681Q462 670 494.5 648.5Q527 627 545 593.5Q563 560 563 515Q563 455 537.5 415Q512 375 471 350V348Q519 327 547.5 284.5Q576 242 576 182Q576 128 555.5 90.5Q535 53 500.5 29.5Q466 6 420 -4Q374 -14 323 -14Q272 -14 226.5 -4Q181 6 146 29.5Q111 53 90.5 90.5Q70 128 70 182Q70 242 98.5 284.5Q127 327 175 348V350Q134 375 108.5 415Q83 455 83 515Q83 560 101 593.5Q119 627 151.5 648.5Q184 670 228 681Q272 692 323 692Z" glyph-name="eight.LP" horiz-adv-x="645" unicode="&#58685;" /><glyph d="M330 390Q364 390 387.5 398.5Q411 407 431 427Q457 453 457 500Q457 523 451.5 543Q446 563 432 577.5Q418 592 393.5 600Q369 608 330 608Q291 608 266.5 600Q242 592 228 577.5Q214 563 208.5 543Q203 523 203 500Q203 453 229 427Q249 407 272.5 398.5Q296 390 330 390ZM330 70Q353 70 377.5 75Q402 80 422.5 92.5Q443 105 456.5 127Q470 149 470 184Q470 213 463 233Q456 253 443 266Q424 285 397.5 294.5Q371 304 330 304Q289 304 262.5 294.5Q236 285 217 266Q204 253 197 233Q190 213 190 184Q190 149 203.5 127Q217 105 237.5 92.5Q258 80 282.5 75Q307 70 330 70ZM330 692Q381 692 425 681Q469 670 501.5 648.5Q534 627 552 593.5Q570 560 570 515Q570 455 544.5 415Q519 375 478 350V348Q526 327 554.5 284.5Q583 242 583 182Q583 128 562.5 90.5Q542 53 507.5 29.5Q473 6 427 -4Q381 -14 330 -14Q279 -14 233.5 -4Q188 6 153 29.5Q118 53 97.5 90.5Q77 128 77 182Q77 242 105.5 284.5Q134 327 182 348V350Q141 375 115.5 415Q90 455 90 515Q90 560 108 593.5Q126 627 158.5 648.5Q191 670 235 681Q279 692 330 692Z" glyph-name="eight.LT" horiz-adv-x="660" unicode="&#58696;" /><glyph d="M330 390Q364 390 387.5 398.5Q411 407 431 427Q457 453 457 500Q457 523 451.5 543Q446 563 432 577.5Q418 592 393.5 600Q369 608 330 608Q291 608 266.5 600Q242 592 228 577.5Q214 563 208.5 543Q203 523 203 500Q203 453 229 427Q249 407 272.5 398.5Q296 390 330 390ZM330 70Q353 70 377.5 75Q402 80 422.5 92.5Q443 105 456.5 127Q470 149 470 184Q470 213 463 233Q456 253 443 266Q424 285 397.5 294.5Q371 304 330 304Q289 304 262.5 294.5Q236 285 217 266Q204 253 197 233Q190 213 190 184Q190 149 203.5 127Q217 105 237.5 92.5Q258 80 282.5 75Q307 70 330 70ZM330 692Q381 692 425 681Q469 670 501.5 648.5Q534 627 552 593.5Q570 560 570 515Q570 455 544.5 415Q519 375 478 350V348Q526 327 554.5 284.5Q583 242 583 182Q583 128 562.5 90.5Q542 53 507.5 29.5Q473 6 427 -4Q381 -14 330 -14Q279 -14 233.5 -4Q188 6 153 29.5Q118 53 97.5 90.5Q77 128 77 182Q77 242 105.5 284.5Q134 327 182 348V350Q141 375 115.5 415Q90 455 90 515Q90 560 108 593.5Q126 627 158.5 648.5Q191 670 235 681Q279 692 330 692Z" glyph-name="eight.OT" horiz-adv-x="660" unicode="&#58718;" /><glyph d="M179 45Q194 45 204 48Q214 51 222 59Q232 69 232 92Q232 113 221.5 126Q211 139 179 139Q148 139 137 126Q126 113 126 92Q126 70 137 59Q145 51 155 48Q165 45 179 45ZM179 -15Q148 -15 131 -31Q120 -42 120 -67Q120 -82 126 -92Q132 -102 140.5 -107.5Q149 -113 159.5 -115Q170 -117 179 -117Q188 -117 198.5 -115Q209 -113 218 -107.5Q227 -102 232.5 -92Q238 -82 238 -67Q238 -42 227 -31Q211 -15 179 -15ZM179 -175Q151 -175 125 -169.5Q99 -164 79.5 -151Q60 -138 48 -118Q36 -98 36 -68Q36 -40 50 -18.5Q64 3 86 15V16Q66 30 55 51Q44 72 44 100Q44 149 82.5 173Q121 197 179 197Q237 197 276 173Q315 149 315 100Q315 72 304 51Q293 30 273 16V15Q294 3 308 -18.5Q322 -40 322 -68Q322 -98 310.5 -118Q299 -138 279 -151Q259 -164 233 -169.5Q207 -175 179 -175Z" glyph-name="eight.inf" horiz-adv-x="358" unicode="&#58745;" /><glyph d="M290 441Q266 441 243.5 435Q221 429 204 412Q174 382 168 311H397Q398 321 398 325.5Q398 330 398 332Q398 359 392 380Q386 401 372 415Q358 429 337 435Q316 441 290 441ZM165 232Q166 191 173.5 159.5Q181 128 203 107Q222 88 251 80Q280 72 324 72Q339 72 357.5 73Q376 74 397 76.5Q418 79 439 83.5Q460 88 479 94V11Q460 5 437.5 0Q415 -5 392 -8Q369 -11 346 -12.5Q323 -14 304 -14Q169 -14 110 52Q51 118 51 255Q51 331 69.5 382.5Q88 434 120 465.5Q152 497 195.5 510.5Q239 524 289 524Q401 524 451 470Q501 416 501 308Q501 297 499.5 273Q498 249 496 232ZM286 620Q254 620 228.5 608.5Q203 597 195 565H108Q118 630 166.5 658.5Q215 687 286 687Q358 687 406 659Q454 631 465 565H377Q370 597 344 608.5Q318 620 286 620Z" glyph-name="einvertedbreve" horiz-adv-x="552" unicode="&#519;" /><glyph d="M263 652Q231 652 205.5 640.5Q180 629 172 597H85Q95 662 143.5 690.5Q192 719 263 719Q335 719 383 691Q431 663 442 597H354Q347 629 321 640.5Q295 652 263 652ZM452 0H79V541H446V460H186V318H410V234H186V82H452Z" glyph-name="einvertedbreve.small" horiz-adv-x="489" unicode="&#59239;" /><glyph d="M1018 0H887V122H1018ZM594 0H464V122H594ZM170 0H40V122H170Z" glyph-name="ellipsis" horiz-adv-x="1057" unicode="&#8230;" /><glyph d="M463 594H117V673H463ZM290 441Q266 441 243.5 435Q221 429 204 412Q174 382 168 311H397Q398 321 398 325.5Q398 330 398 332Q398 359 392 380Q386 401 372 415Q358 429 337 435Q316 441 290 441ZM165 232Q166 191 173.5 159.5Q181 128 203 107Q222 88 251 80Q280 72 324 72Q339 72 357.5 73Q376 74 397 76.5Q418 79 439 83.5Q460 88 479 94V11Q460 5 437.5 0Q415 -5 392 -8Q369 -11 346 -12.5Q323 -14 304 -14Q169 -14 110 52Q51 118 51 255Q51 331 69.5 382.5Q88 434 120 465.5Q152 497 195.5 510.5Q239 524 289 524Q401 524 451 470Q501 416 501 308Q501 297 499.5 273Q498 249 496 232Z" glyph-name="emacron" horiz-adv-x="552" unicode="&#275;" /><glyph d="M436 626H90V705H436ZM452 0H79V541H446V460H186V318H410V234H186V82H452Z" glyph-name="emacron.small" horiz-adv-x="489" unicode="&#63049;" /><glyph d="M1105 226H52V315H1105Z" glyph-name="emdash" horiz-adv-x="1157" unicode="&#8212;" /><glyph d="M1105 301H52V390H1105Z" glyph-name="emdash.cap" horiz-adv-x="1157" unicode="&#58502;" /><glyph glyph-name="emspace" horiz-adv-x="1000" unicode="&#8195;" /><glyph d="M568 226H52V315H568Z" glyph-name="endash" horiz-adv-x="620" unicode="&#8211;" /><glyph d="M568 301H52V390H568Z" glyph-name="endash.cap" horiz-adv-x="620" unicode="&#58500;" /><glyph d="M173 441Q216 485 265 503Q314 521 365 521Q412 521 444.5 511.5Q477 502 496.5 482.5Q516 463 524.5 433Q533 403 533 362V48Q533 -9 519.5 -62Q506 -115 468 -168H365Q391 -129 408.5 -75Q426 -21 426 41V341Q426 392 407 412Q388 432 337 432Q295 432 255 412Q215 392 188 357V0H81V510H156L171 441Z" glyph-name="eng" horiz-adv-x="605" unicode="&#331;" /><glyph d="M193 541 375 272Q394 244 414.5 210.5Q435 177 449 152H451Q449 206 447.5 268.5Q446 331 446 379V541H549V61Q549 24 545 -6.5Q541 -37 532.5 -64.5Q524 -92 510 -117.5Q496 -143 476 -168H368Q399 -125 416.5 -88Q434 -51 438 0L253 270Q234 297 213.5 331Q193 365 179 389H177Q179 335 180.5 272.5Q182 210 182 162V0H79V541Z" glyph-name="eng.small" horiz-adv-x="628" unicode="&#63019;" /><glyph glyph-name="enspace" horiz-adv-x="500" unicode="&#8194;" /><glyph d="M290 441Q266 441 243.5 435Q221 429 204 412Q174 382 168 311H397Q398 321 398 325.5Q398 330 398 332Q398 359 392 380Q386 401 372 415Q358 429 337 435Q316 441 290 441ZM165 232Q166 191 173.5 159.5Q181 128 203 107Q222 88 251 80Q280 72 324 72Q339 72 357.5 73Q376 74 397 76.5Q418 79 439 83.5Q460 88 479 94V11Q438 -10 422.5 -36.5Q407 -63 407 -81Q407 -116 449 -116Q465 -116 480.5 -114Q496 -112 515 -106V-167Q497 -175 473 -177Q449 -179 432 -179Q375 -179 348.5 -157Q322 -135 322 -100Q322 -77 334 -53.5Q346 -30 368 -10Q351 -12 334.5 -13Q318 -14 304 -14Q169 -14 110 52Q51 118 51 255Q51 331 69.5 382.5Q88 434 120 465.5Q152 497 195.5 510.5Q239 524 289 524Q401 524 451 470Q501 416 501 308Q501 297 499.5 273Q498 249 496 232Z" glyph-name="eogonek" horiz-adv-x="552" unicode="&#281;" /><glyph d="M79 0V541H446V460H186V318H410V234H186V82H452V0H451Q420 -17 406.5 -40Q393 -63 393 -81Q393 -116 435 -116Q450 -116 465.5 -114Q481 -112 500 -106V-167Q482 -175 458 -177Q434 -179 417 -179Q361 -179 334.5 -157Q308 -135 308 -100Q308 -71 325 -44Q342 -17 368 0Z" glyph-name="eogonek.small" horiz-adv-x="489" unicode="&#63050;" /><glyph d="M583 121H52V210H583ZM583 333H52V422H583Z" glyph-name="equal" horiz-adv-x="635" unicode="=" /><glyph d="M643 195H52V284H643ZM643 408H52V497H643Z" glyph-name="equal.cap" horiz-adv-x="695" unicode="&#58773;" /><glyph d="M345 -69H43V-8H345ZM345 39H43V100H345Z" glyph-name="equal.inf" horiz-adv-x="388" unicode="&#58749;" /><glyph d="M459 632Q396 632 354 611Q312 590 286 553.5Q260 517 248 468.5Q236 420 234 366H680Q678 420 667 468.5Q656 517 630.5 553.5Q605 590 563 611Q521 632 459 632ZM786 229Q776 166 749 120.5Q722 75 679.5 45.5Q637 16 581.5 2Q526 -12 459 -12Q383 -12 319.5 12.5Q256 37 210.5 83Q165 129 140 193.5Q115 258 115 338Q115 418 140 483Q165 548 210.5 594Q256 640 319.5 665Q383 690 459 690Q534 690 596.5 665Q659 640 704 594Q749 548 774 483Q799 418 799 338V309H234Q236 255 248 207Q260 159 286 123Q312 87 354 66Q396 45 459 45Q572 45 637.5 88.5Q703 132 719 229Z" glyph-name="estimated" horiz-adv-x="914" unicode="&#8494;" /><glyph d="M436 254Q436 306 427.5 341Q419 376 399 396Q365 430 299 430Q235 430 202 396Q182 376 173 341.5Q164 307 164 257Q164 200 173.5 161.5Q183 123 205 101Q238 69 300 69Q331 69 354.5 76Q378 83 395 100Q418 123 427 160Q436 197 436 254ZM392 491Q380 521 360.5 544Q341 567 315 585L172 524L148 582L251 624Q247 626 239.5 629.5Q232 633 223 637Q214 641 205.5 644.5Q197 648 192 650L270 699Q290 693 307.5 685.5Q325 678 345 667L460 714L485 653L410 622Q476 564 513 474Q550 384 550 253Q550 170 528 118Q506 66 471 37Q435 7 389.5 -3.5Q344 -14 295 -14Q248 -14 204.5 -3.5Q161 7 126 37Q92 67 71.5 120Q51 173 51 260Q51 342 76 391.5Q101 441 139 468Q176 495 217.5 504Q259 513 291 513Q315 513 342.5 508Q370 503 390 490Z" glyph-name="eth" horiz-adv-x="600" unicode="&#240;" /><glyph d="M445 271Q445 332 433.5 370.5Q422 409 399 432Q381 450 358.5 455Q336 460 306 460H199V312H357V239H199V82H305Q334 82 357.5 87Q381 92 398 108Q421 131 433 169.5Q445 208 445 271ZM10 312H92V541H300Q363 541 410 528Q457 515 489 483Q524 448 541 397Q558 346 558 271Q558 196 540.5 144Q523 92 487 56Q457 26 412.5 13Q368 0 306 0H92V239H10Z" glyph-name="eth.small" horiz-adv-x="607" unicode="&#59240;" /><glyph d="M188 225H101L83 678H205ZM209 0H79V122H209Z" glyph-name="exclam" horiz-adv-x="288" unicode="!" /><glyph d="M205 -168H83L101 285H188ZM209 388H79V510H209Z" glyph-name="exclamdown" horiz-adv-x="288" unicode="&#161;" /><glyph d="M205 0H83L101 454H188ZM209 556H79V678H209Z" glyph-name="exclamdown.cap" horiz-adv-x="288" unicode="&#58433;" /><glyph d="M219 0H112V429H26V500L112 507V533Q112 581 122.5 611Q133 641 154.5 658.5Q176 676 208.5 682.5Q241 689 285 689Q303 689 336 687Q369 685 401 677V598Q389 601 375 602.5Q361 604 347.5 605Q334 606 322 606.5Q310 607 303 607Q277 607 260.5 604Q244 601 235 593Q226 585 222.5 571.5Q219 558 219 537V510H390V429H219Z" glyph-name="f" horiz-adv-x="387" unicode="f" /><glyph d="M79 0V541H452V460H186V318H410V234H186V0Z" glyph-name="f.small" horiz-adv-x="453" unicode="&#63334;" /><glyph d="M150 279H68V539H14V592L68 598V614Q68 645 75 664.5Q82 684 96 695Q110 706 131.5 710.5Q153 715 183 715Q195 715 217.5 713Q240 711 262 706V647Q243 652 222 653Q201 654 192 654Q166 654 158 646Q150 638 150 615V599H255V539H150Z" glyph-name="f.superior" horiz-adv-x="255" unicode="&#58214;" /><glyph d="M568 115Q591 94 620.5 85.5Q650 77 680 77Q754 77 786.5 120Q819 163 819 255Q819 306 811 340Q803 374 787.5 394.5Q772 415 748 424Q724 433 691 433Q656 433 624.5 415.5Q593 398 568 366ZM543 35 530 0H461V678H568V467H570Q602 496 636.5 508.5Q671 521 708 521Q820 521 876.5 458Q933 395 933 257Q933 123 869 56Q805 -11 690 -11Q660 -11 619 -0.5Q578 10 545 35ZM219 0H112V429H26V500L112 507V533Q112 581 122.5 611Q133 641 154.5 658.5Q176 676 208.5 682.5Q241 689 285 689Q302 689 326.5 687Q351 685 380 677V598Q358 603 337 605Q316 607 303 607Q277 607 260.5 604Q244 601 235 593Q226 585 222.5 571.5Q219 558 219 537V510H380V429H219Z" glyph-name="f_b" horiz-adv-x="983" unicode="&#58241;" /><glyph d="M568 0H461V510H568ZM219 0H112V429H26V500L112 507V533Q112 581 122.5 611Q133 641 154.5 658.5Q176 676 208.5 682.5Q241 689 285 689Q302 689 326.5 687Q351 685 380 677V598Q358 603 337 605Q316 607 303 607Q277 607 260.5 604Q244 601 235 593Q226 585 222.5 571.5Q219 558 219 537V510H380V429H219Z" glyph-name="f_dotlessi" horiz-adv-x="648" unicode="&#59248;" /><glyph d="M596 0H489V429H399V500L489 507V533Q489 581 499.5 611Q510 641 531.5 658.5Q553 676 585.5 682.5Q618 689 662 689Q680 689 713 687Q746 685 778 677V598Q766 601 752 602.5Q738 604 724.5 605Q711 606 699 606.5Q687 607 680 607Q654 607 637.5 604Q621 601 612 593Q603 585 599.5 571.5Q596 558 596 537V510H767V429H596ZM219 0H112V429H26V500L112 507V533Q112 581 122.5 611Q133 641 154.5 658.5Q176 676 208 682.5Q240 689 284 689Q302 689 335 687Q368 685 399 677V598Q387 601 373 602.5Q359 604 345.5 605Q332 606 320.5 606.5Q309 607 302 607Q276 607 259.5 604Q243 601 234 593Q225 585 222 571.5Q219 558 219 537V510H354V429H219Z" glyph-name="f_f" horiz-adv-x="764" unicode="&#64256;" /><glyph d="M945 115Q968 94 997.5 85.5Q1027 77 1057 77Q1131 77 1163.5 120Q1196 163 1196 255Q1196 306 1188 340Q1180 374 1164.5 394.5Q1149 415 1125 424Q1101 433 1068 433Q1033 433 1001.5 415.5Q970 398 945 366ZM920 35 907 0H838V678H945V467H947Q979 496 1013.5 508.5Q1048 521 1085 521Q1197 521 1253.5 458Q1310 395 1310 257Q1310 123 1246 56Q1182 -11 1067 -11Q1037 -11 996 -0.5Q955 10 922 35ZM219 0H112V429H26V500L112 507V533Q112 581 122.5 611Q133 641 154.5 658.5Q176 676 208 682.5Q240 689 284 689Q302 689 335 687Q368 685 399 677V598Q387 601 373 602.5Q359 604 345.5 605Q332 606 320.5 606.5Q309 607 302 607Q276 607 259.5 604Q243 601 234 593Q225 585 222 571.5Q219 558 219 537V510H354V429H219ZM596 0H489V429H400V500L489 507V533Q489 581 499.5 611Q510 641 531.5 658.5Q553 676 585.5 682.5Q618 689 662 689Q679 689 703.5 687Q728 685 757 677V598Q735 603 714 605Q693 607 680 607Q654 607 637.5 604Q621 601 612 593Q603 585 599.5 571.5Q596 558 596 537V510H757V429H596Z" glyph-name="f_f_b" horiz-adv-x="1360" unicode="&#57896;" /><glyph d="M219 0H112V429H26V500L112 507V533Q112 581 122.5 611Q133 641 154.5 658.5Q176 676 208 682.5Q240 689 284 689Q302 689 335 687Q368 685 399 677V598Q387 601 373 602.5Q359 604 345.5 605Q332 606 320.5 606.5Q309 607 302 607Q276 607 259.5 604Q243 601 234 593Q225 585 222 571.5Q219 558 219 537V510H354V429H219ZM596 0H489V429H400V500L489 507V533Q489 581 499.5 611Q510 641 531.5 658.5Q553 676 585.5 682.5Q618 689 662 689Q679 689 703.5 687Q728 685 757 677V598Q735 603 714 605Q693 607 680 607Q654 607 637.5 604Q621 601 612 593Q603 585 599.5 571.5Q596 558 596 537V510H757V429H596ZM945 0H838V510H945Z" glyph-name="f_f_dotlessi" horiz-adv-x="1025" unicode="&#59249;" /><glyph d="M219 0H112V429H26V500L112 507V533Q112 581 122.5 611Q133 641 154.5 658.5Q176 676 208 682.5Q240 689 284 689Q302 689 335 687Q368 685 399 677V598Q387 601 373 602.5Q359 604 345.5 605Q332 606 320.5 606.5Q309 607 302 607Q276 607 259.5 604Q243 601 234 593Q225 585 222 571.5Q219 558 219 537V510H354V429H219ZM596 0H489V429H400V500L489 507V533Q489 581 499.5 611Q510 641 531.5 658.5Q553 676 585.5 682.5Q618 689 662 689Q679 689 703.5 687Q728 685 757 677V598Q735 603 714 605Q693 607 680 607Q654 607 637.5 604Q621 601 612 593Q603 585 599.5 571.5Q596 558 596 537V510H757V429H596ZM946 455Q987 491 1031.5 506Q1076 521 1121 521Q1168 521 1200.5 511.5Q1233 502 1252.5 482.5Q1272 463 1280.5 433Q1289 403 1289 362V0H1182V341Q1182 392 1163 412Q1144 432 1093 432Q1051 432 1011 412Q971 392 944 357V0H837V678H944V455Z" glyph-name="f_f_h" horiz-adv-x="1361" unicode="&#57897;" /><glyph d="M219 0H112V429H26V500L112 507V533Q112 581 122.5 611Q133 641 154.5 658.5Q176 676 208 682.5Q240 689 284 689Q302 689 335 687Q368 685 399 677V598Q387 601 373 602.5Q359 604 345.5 605Q332 606 320.5 606.5Q309 607 302 607Q276 607 259.5 604Q243 601 234 593Q225 585 222 571.5Q219 558 219 537V510H354V429H219ZM596 0H489V429H400V500L489 507V533Q489 581 499.5 611Q510 641 531.5 658.5Q553 676 585.5 682.5Q618 689 662 689Q679 689 703.5 687Q728 685 757 677V598Q735 603 714 605Q693 607 680 607Q654 607 637.5 604Q621 601 612 593Q603 585 599.5 571.5Q596 558 596 537V510H757V429H596ZM952 578H832V678H952ZM945 0H838V510H945Z" glyph-name="f_f_i" horiz-adv-x="1027" unicode="&#64259;" /><glyph d="M952 578H832V678H952ZM779 -168Q806 -126 822 -68Q838 -10 838 51V510H945V133Q945 83 943.5 41.5Q942 0 935.5 -36Q929 -72 916 -104.5Q903 -137 880 -168ZM219 0H112V429H26V500L112 507V533Q112 581 122.5 611Q133 641 154.5 658.5Q176 676 208 682.5Q240 689 284 689Q302 689 335 687Q368 685 399 677V598Q387 601 373 602.5Q359 604 345.5 605Q332 606 320.5 606.5Q309 607 302 607Q276 607 259.5 604Q243 601 234 593Q225 585 222 571.5Q219 558 219 537V510H354V429H219ZM596 0H489V429H400V500L489 507V533Q489 581 499.5 611Q510 641 531.5 658.5Q553 676 585.5 682.5Q618 689 662 689Q679 689 703.5 687Q728 685 757 677V598Q735 603 714 605Q693 607 680 607Q654 607 637.5 604Q621 601 612 593Q603 585 599.5 571.5Q596 558 596 537V510H757V429H596Z" glyph-name="f_f_j" horiz-adv-x="1027" unicode="&#57898;" /><glyph d="M945 312H1010L1144 510H1263L1101 275L1292 0H1166L1010 229H945V0H838V678H945ZM219 0H112V429H26V500L112 507V533Q112 581 122.5 611Q133 641 154.5 658.5Q176 676 208 682.5Q240 689 284 689Q302 689 335 687Q368 685 399 677V598Q387 601 373 602.5Q359 604 345.5 605Q332 606 320.5 606.5Q309 607 302 607Q276 607 259.5 604Q243 601 234 593Q225 585 222 571.5Q219 558 219 537V510H354V429H219ZM596 0H489V429H400V500L489 507V533Q489 581 499.5 611Q510 641 531.5 658.5Q553 676 585.5 682.5Q618 689 662 689Q679 689 703.5 687Q728 685 757 677V598Q735 603 714 605Q693 607 680 607Q654 607 637.5 604Q621 601 612 593Q603 585 599.5 571.5Q596 558 596 537V510H757V429H596Z" glyph-name="f_f_k" horiz-adv-x="1300" unicode="&#58245;" /><glyph d="M219 0H112V429H26V500L112 507V533Q112 581 122.5 611Q133 641 154.5 658.5Q176 676 208 682.5Q240 689 284 689Q302 689 335 687Q368 685 399 677V598Q387 601 373 602.5Q359 604 345.5 605Q332 606 320.5 606.5Q309 607 302 607Q276 607 259.5 604Q243 601 234 593Q225 585 222 571.5Q219 558 219 537V510H354V429H219ZM596 0H489V429H400V500L489 507V533Q489 581 499.5 611Q510 641 531.5 658.5Q553 676 585.5 682.5Q618 689 662 689Q679 689 703.5 687Q728 685 757 677V598Q735 603 714 605Q693 607 680 607Q654 607 637.5 604Q621 601 612 593Q603 585 599.5 571.5Q596 558 596 537V510H757V429H596ZM945 0H838V678H945Z" glyph-name="f_f_l" horiz-adv-x="1025" unicode="&#64260;" /><glyph d="M1142 11Q1115 0 1079.5 -4.5Q1044 -9 1014 -9Q972 -9 943.5 -1Q915 7 898 27.5Q881 48 873.5 82Q866 116 866 169V429H776V500L875 511L902 624H974V510H1137V429H973V170Q973 142 976 124Q979 106 987.5 96Q996 86 1011.5 82Q1027 78 1051 78Q1059 78 1071 79Q1083 80 1095.5 82Q1108 84 1120.5 87Q1133 90 1142 94ZM596 0H489V429H399V500L489 507V533Q489 581 499.5 611Q510 641 531.5 658.5Q553 676 585 682.5Q617 689 661 689Q679 689 712 687Q745 685 776 677V598Q764 601 750 602.5Q736 604 722.5 605Q709 606 697.5 606.5Q686 607 679 607Q653 607 636.5 604Q620 601 611 593Q602 585 599 571.5Q596 558 596 537V510H731V429H596ZM219 0H112V429H26V500L112 507V533Q112 581 122.5 611Q133 641 154.5 658.5Q176 676 208 682.5Q240 689 284 689Q302 689 335 687Q368 685 399 677V598Q387 601 373 602.5Q359 604 345.5 605Q332 606 320.5 606.5Q309 607 302 607Q276 607 259.5 604Q243 601 234 593Q225 585 222 571.5Q219 558 219 537V510H354V429H219Z" glyph-name="f_f_t" horiz-adv-x="1166" unicode="&#57904;" /><glyph d="M219 0H112V429H26V500L112 507V533Q112 581 122.5 611Q133 641 154.5 658.5Q176 676 208.5 682.5Q241 689 285 689Q302 689 326.5 687Q351 685 380 677V598Q358 603 337 605Q316 607 303 607Q277 607 260.5 604Q244 601 235 593Q226 585 222.5 571.5Q219 558 219 537V510H380V429H219ZM570 455Q611 491 655.5 506Q700 521 745 521Q792 521 824.5 511.5Q857 502 876.5 482.5Q896 463 904.5 433Q913 403 913 362V0H806V341Q806 392 787 412Q768 432 717 432Q675 432 635 412Q595 392 568 357V0H461V678H568V455Z" glyph-name="f_h" horiz-adv-x="985" unicode="&#58246;" /><glyph d="M575 578H455V678H575ZM402 -168Q429 -126 445 -68Q461 -10 461 51V510H568V133Q568 83 566.5 41.5Q565 0 558.5 -36Q552 -72 539 -104.5Q526 -137 503 -168ZM219 0H112V429H26V500L112 507V533Q112 581 122.5 611Q133 641 154.5 658.5Q176 676 208.5 682.5Q241 689 285 689Q302 689 326.5 687Q351 685 380 677V598Q358 603 337 605Q316 607 303 607Q277 607 260.5 604Q244 601 235 593Q226 585 222.5 571.5Q219 558 219 537V510H380V429H219Z" glyph-name="f_j" horiz-adv-x="650" unicode="&#58247;" /><glyph d="M568 312H633L767 510H886L724 275L915 0H789L633 229H568V0H461V678H568ZM219 0H112V429H26V500L112 507V533Q112 581 122.5 611Q133 641 154.5 658.5Q176 676 208.5 682.5Q241 689 285 689Q302 689 326.5 687Q351 685 380 677V598Q358 603 337 605Q316 607 303 607Q277 607 260.5 604Q244 601 235 593Q226 585 222.5 571.5Q219 558 219 537V510H380V429H219Z" glyph-name="f_k" horiz-adv-x="923" unicode="&#58248;" /><glyph d="M765 11Q738 0 702.5 -4.5Q667 -9 637 -9Q595 -9 566.5 -1Q538 7 521 27.5Q504 48 496.5 82Q489 116 489 169V429H399V500L498 511L525 624H597V510H760V429H596V170Q596 142 599 124Q602 106 610.5 96Q619 86 634.5 82Q650 78 674 78Q682 78 694 79Q706 80 718.5 82Q731 84 743.5 87Q756 90 765 94ZM219 0H112V429H26V500L112 507V533Q112 581 122.5 611Q133 641 154.5 658.5Q176 676 208 682.5Q240 689 284 689Q302 689 335 687Q368 685 399 677V598Q387 601 373 602.5Q359 604 345.5 605Q332 606 320.5 606.5Q309 607 302 607Q276 607 259.5 604Q243 601 234 593Q225 585 222 571.5Q219 558 219 537V510H354V429H219Z" glyph-name="f_t" horiz-adv-x="789" unicode="&#59250;" /><glyph d="M782 11Q754 0 715 -4.5Q676 -9 645 -9Q602 -9 572 -1Q542 7 523.5 27.5Q505 48 497 82Q489 116 489 169V429H398V500L498 511L525 624H597V510H756V429H596V170Q596 142 599.5 124Q603 106 613 96Q623 86 639.5 82Q656 78 682 78Q691 78 703.5 79Q716 80 730.5 82Q745 84 758.5 87Q772 90 782 94ZM1167 11Q1140 0 1104.5 -4.5Q1069 -9 1039 -9Q997 -9 968.5 -1Q940 7 923 27.5Q906 48 898.5 82Q891 116 891 169V429H802V500L900 511L927 624H999V510H1162V429H998V170Q998 142 1001 124Q1004 106 1012.5 96Q1021 86 1036.5 82Q1052 78 1076 78Q1084 78 1096 79Q1108 80 1120.5 82Q1133 84 1145.5 87Q1158 90 1167 94ZM219 0H112V429H26V500L112 507V533Q112 581 122.5 611Q133 641 154.5 658.5Q176 676 208 682.5Q240 689 284 689Q302 689 335 687Q368 685 399 677V598Q387 601 373 602.5Q359 604 345.5 605Q332 606 320.5 606.5Q309 607 302 607Q276 607 259.5 604Q243 601 234 593Q225 585 222 571.5Q219 558 219 537V510H354V429H219Z" glyph-name="f_t_t" horiz-adv-x="1191" unicode="&#59251;" /><glyph d="M596 0H489V429H399V500L489 507V533Q489 581 499.5 611Q510 641 531.5 658.5Q553 676 585.5 682.5Q618 689 662 689Q680 689 713 687Q746 685 778 677V598Q766 601 752 602.5Q738 604 724.5 605Q711 606 699 606.5Q687 607 680 607Q654 607 637.5 604Q621 601 612 593Q603 585 599.5 571.5Q596 558 596 537V510H767V429H596ZM219 0H112V429H26V500L112 507V533Q112 581 122.5 611Q133 641 154.5 658.5Q176 676 208 682.5Q240 689 284 689Q302 689 335 687Q368 685 399 677V598Q387 601 373 602.5Q359 604 345.5 605Q332 606 320.5 606.5Q309 607 302 607Q276 607 259.5 604Q243 601 234 593Q225 585 222 571.5Q219 558 219 537V510H354V429H219Z" glyph-name="ff" horiz-adv-x="764" unicode="&#58249;" /><glyph d="M219 0H112V429H26V500L112 507V533Q112 581 122.5 611Q133 641 154.5 658.5Q176 676 208 682.5Q240 689 284 689Q302 689 335 687Q368 685 399 677V598Q387 601 373 602.5Q359 604 345.5 605Q332 606 320.5 606.5Q309 607 302 607Q276 607 259.5 604Q243 601 234 593Q225 585 222 571.5Q219 558 219 537V510H354V429H219ZM596 0H489V429H400V500L489 507V533Q489 581 499.5 611Q510 641 531.5 658.5Q553 676 585.5 682.5Q618 689 662 689Q679 689 703.5 687Q728 685 757 677V598Q735 603 714 605Q693 607 680 607Q654 607 637.5 604Q621 601 612 593Q603 585 599.5 571.5Q596 558 596 537V510H757V429H596ZM952 578H832V678H952ZM945 0H838V510H945Z" glyph-name="ffi" horiz-adv-x="1027" unicode="&#58250;" /><glyph d="M219 0H112V429H26V500L112 507V533Q112 581 122.5 611Q133 641 154.5 658.5Q176 676 208 682.5Q240 689 284 689Q302 689 335 687Q368 685 399 677V598Q387 601 373 602.5Q359 604 345.5 605Q332 606 320.5 606.5Q309 607 302 607Q276 607 259.5 604Q243 601 234 593Q225 585 222 571.5Q219 558 219 537V510H354V429H219ZM596 0H489V429H400V500L489 507V533Q489 581 499.5 611Q510 641 531.5 658.5Q553 676 585.5 682.5Q618 689 662 689Q679 689 703.5 687Q728 685 757 677V598Q735 603 714 605Q693 607 680 607Q654 607 637.5 604Q621 601 612 593Q603 585 599.5 571.5Q596 558 596 537V510H757V429H596ZM945 0H838V678H945Z" glyph-name="ffl" horiz-adv-x="1025" unicode="&#58251;" /><glyph d="M575 578H455V678H575ZM568 0H461V510H568ZM219 0H112V429H26V500L112 507V533Q112 581 122.5 611Q133 641 154.5 658.5Q176 676 208.5 682.5Q241 689 285 689Q302 689 326.5 687Q351 685 380 677V598Q358 603 337 605Q316 607 303 607Q277 607 260.5 604Q244 601 235 593Q226 585 222.5 571.5Q219 558 219 537V510H380V429H219Z" glyph-name="fi" horiz-adv-x="650" unicode="&#64257;" /><glyph d="M837 226H52V315H837Z" glyph-name="figuredash" horiz-adv-x="889" unicode="&#8210;" /><glyph d="M837 301H52V390H837Z" glyph-name="figuredash.cap" horiz-adv-x="889" unicode="&#58503;" /><glyph glyph-name="figurespace" horiz-adv-x="700" unicode="&#8199;" /><glyph d="M221 65H770V614H221ZM156 678H834V0H156ZM541 339 702 177 656 132 495 294 335 132 289 177 450 339 289 501 335 546 495 384 656 546 702 501Z" glyph-name="filledbox" horiz-adv-x="990" unicode="&#9632;" /><glyph d="M301 61H689V449H301ZM240 510H750V0H240ZM357 353 398 394 495 297 592 394 634 353 535 254 634 156 592 115 495 212 398 115 357 156 455 254Z" glyph-name="filledsmallbox" horiz-adv-x="990" unicode="&#59252;" /><glyph d="M525 83Q525 29 505 -11.5Q485 -52 449.5 -79Q414 -106 366 -119.5Q318 -133 262 -133Q224 -133 173 -126.5Q122 -120 80 -106V-19Q102 -25 126.5 -29.5Q151 -34 174.5 -37Q198 -40 219 -41.5Q240 -43 254 -43Q290 -43 319.5 -36.5Q349 -30 369.5 -15Q390 0 401.5 23.5Q413 47 413 81Q413 123 397 147Q381 171 356 182.5Q331 194 301 197Q271 200 244 200Q232 200 189.5 199Q147 198 89 194V558H484V474H196V286Q215 287 226.5 287Q238 287 245 287Q299 287 349.5 279.5Q400 272 439 250Q478 228 501.5 188Q525 148 525 83Z" glyph-name="five" horiz-adv-x="574" unicode="5" /><glyph d="M532 203Q532 149 512 108.5Q492 68 456.5 41Q421 14 373 0.5Q325 -13 269 -13Q231 -13 180 -6.5Q129 0 87 14V101Q109 95 133.5 90.5Q158 86 181.5 83Q205 80 226 78.5Q247 77 261 77Q297 77 326.5 83.5Q356 90 376.5 105Q397 120 408.5 143.5Q420 167 420 201Q420 243 404 267Q388 291 363 302.5Q338 314 308 317Q278 320 251 320Q239 320 196.5 319Q154 318 96 314V678H491V594H203V406Q222 407 233.5 407Q245 407 252 407Q306 407 356.5 399.5Q407 392 446 370Q485 348 508.5 308Q532 268 532 203Z" glyph-name="five.LP" horiz-adv-x="575" unicode="&#58682;" /><glyph d="M566 203Q566 149 546 108.5Q526 68 490.5 41Q455 14 407 0.5Q359 -13 303 -13Q265 -13 214 -6.5Q163 0 121 14V101Q143 95 167.5 90.5Q192 86 215.5 83Q239 80 260 78.5Q281 77 295 77Q331 77 360.5 83.5Q390 90 410.5 105Q431 120 442.5 143.5Q454 167 454 201Q454 243 438 267Q422 291 397 302.5Q372 314 342 317Q312 320 285 320Q273 320 230.5 319Q188 318 130 314V678H525V594H237V406Q256 407 267.5 407Q279 407 286 407Q340 407 390.5 399.5Q441 392 480 370Q519 348 542.5 308Q566 268 566 203Z" glyph-name="five.LT" horiz-adv-x="660" unicode="&#58693;" /><glyph d="M566 83Q566 29 546 -11.5Q526 -52 490.5 -79Q455 -106 407 -119.5Q359 -133 303 -133Q265 -133 214 -126.5Q163 -120 121 -106V-19Q143 -25 167.5 -29.5Q192 -34 215.5 -37Q239 -40 260 -41.5Q281 -43 295 -43Q331 -43 360.5 -36.5Q390 -30 410.5 -15Q431 0 442.5 23.5Q454 47 454 81Q454 123 438 147Q422 171 397 182.5Q372 194 342 197Q312 200 285 200Q273 200 230.5 199Q188 198 130 194V558H525V474H237V286Q256 287 267.5 287Q279 287 286 287Q340 287 390.5 279.5Q441 272 480 250Q519 228 542.5 188Q566 148 566 83Z" glyph-name="five.OT" horiz-adv-x="660" unicode="&#58715;" /><glyph d="M298 -57Q298 -87 286.5 -109Q275 -131 255.5 -146Q236 -161 209 -168Q182 -175 151 -175Q129 -175 100 -170.5Q71 -166 45 -157V-94Q75 -103 104 -107.5Q133 -112 149 -112Q178 -112 195.5 -100.5Q213 -89 213 -60Q213 -43 206.5 -33Q200 -23 189 -17.5Q178 -12 163.5 -10.5Q149 -9 134 -9Q122 -9 99.5 -10Q77 -11 49 -13V190H277V130H131V54H150Q180 54 207 49.5Q234 45 254.5 32.5Q275 20 286.5 -1.5Q298 -23 298 -57Z" glyph-name="five.inf" horiz-adv-x="321" unicode="&#58742;" /><glyph d="M568 0H461V678H568ZM219 0H112V429H26V500L112 507V533Q112 581 122.5 611Q133 641 154.5 658.5Q176 676 208.5 682.5Q241 689 285 689Q302 689 326.5 687Q351 685 380 677V598Q358 603 337 605Q316 607 303 607Q277 607 260.5 604Q244 601 235 593Q226 585 222.5 571.5Q219 558 219 537V510H380V429H219Z" glyph-name="fl" horiz-adv-x="648" unicode="&#64258;" /><glyph d="M3 -41Q19 -44 32 -45Q45 -46 53 -46Q76 -46 91 -40.5Q106 -35 115 -24Q124 -13 128.5 4Q133 21 136 44L160 248H89V332H168L179 412Q184 448 196 477.5Q208 507 229 528Q250 549 281 560.5Q312 572 356 572Q377 572 408.5 567.5Q440 563 471 549V466Q443 480 416 483Q389 486 378 486Q353 486 336.5 481Q320 476 309.5 465.5Q299 455 293.5 438Q288 421 285 397L277 332H423V248H268L243 23Q239 -11 228.5 -39.5Q218 -68 199 -88Q180 -108 151.5 -119.5Q123 -131 83 -131Q68 -131 45.5 -129.5Q23 -128 3 -123Z" glyph-name="florin" horiz-adv-x="500" unicode="&#402;" /><glyph d="M71 -35Q88 -38 102 -39Q116 -40 125 -40Q150 -40 166.5 -34Q183 -28 193 -16Q203 -4 208 14.5Q213 33 215 58L239 301H171V390H247L260 519Q265 559 277.5 591Q290 623 312.5 645.5Q335 668 369 680Q403 692 450 692Q473 692 505.5 687.5Q538 683 573 669V579Q541 593 513.5 597Q486 601 469 601Q444 601 427.5 595Q411 589 400.5 576Q390 563 384.5 544Q379 525 376 499L365 390H520V301H357L331 34Q328 -2 316.5 -32.5Q305 -63 284.5 -85Q264 -107 232.5 -119.5Q201 -132 157 -132Q142 -132 118 -130.5Q94 -129 71 -124Z" glyph-name="florin.LP" horiz-adv-x="660" unicode="&#58661;" /><glyph d="M477 -118H369V38H35L30 125L274 558H386L147 122V121Q158 121 184 121.5Q210 122 236.5 122Q263 122 283.5 122Q304 122 306 122H371L387 340H477V123H556V38H477Z" glyph-name="four" horiz-adv-x="576" unicode="4" /><glyph d="M484 0H376V156H42L37 243L281 676H393L154 240V239Q165 239 191 239.5Q217 240 243.5 240Q270 240 290.5 240Q311 240 313 240H378L394 458H484V241H563V156H484Z" glyph-name="four.LP" horiz-adv-x="589" unicode="&#58681;" /><glyph d="M527 0H419V156H85L80 243L324 676H436L197 240V239Q208 239 234 239.5Q260 240 286.5 240Q313 240 333.5 240Q354 240 356 240H421L437 458H527V241H606V156H527Z" glyph-name="four.LT" horiz-adv-x="660" unicode="&#58692;" /><glyph d="M532 -118H424V38H90L85 125L329 558H441L202 122V121Q213 121 239 121.5Q265 122 291.5 122Q318 122 338.5 122Q359 122 361 122H426L442 340H532V123H611V38H532Z" glyph-name="four.OT" horiz-adv-x="660" unicode="&#58714;" /><glyph d="M272 -168H190V-90H22L18 -34L147 190H229L109 -29V-30L197 -29L207 78H272V-29H312V-90H272Z" glyph-name="four.inf" horiz-adv-x="323" unicode="&#58741;" /><glyph glyph-name="fourperemspace" horiz-adv-x="250" unicode="&#8197;" /><glyph d="M-105 0H-197L285 678H377Z" glyph-name="fraction" horiz-adv-x="180" unicode="&#8260;" /><glyph d="M129 0V195H37V260H129V309H37V374H129V558H500V474H235V374H409V309H235V260H409V195H235V0Z" glyph-name="franc" horiz-adv-x="500" unicode="&#8355;" /><glyph d="M408 397Q388 416 358 425.5Q328 435 297 435Q228 435 196.5 397Q165 359 165 275Q165 186 195.5 151.5Q226 117 288 117Q323 117 355.5 136Q388 155 408 184ZM515 26Q515 -41 492.5 -82Q470 -123 434.5 -145Q399 -167 356 -174.5Q313 -182 271 -182Q253 -182 230 -181Q207 -180 182.5 -177Q158 -174 133.5 -169Q109 -164 89 -157V-69Q130 -82 174.5 -87.5Q219 -93 258 -93Q339 -93 373.5 -66Q408 -39 408 18V82H406Q374 53 338 41Q302 29 266 29Q159 29 105 88.5Q51 148 51 275Q51 521 290 521Q304 521 322 518.5Q340 516 358.5 511Q377 506 396 497.5Q415 489 431 476H433L446 510H515Z" glyph-name="g" horiz-adv-x="596" unicode="g" /><glyph d="M285 318H521V28Q497 16 469.5 8Q442 0 415 -5Q388 -10 362.5 -12Q337 -14 316 -14Q250 -14 200 1.5Q150 17 116 51Q49 118 49 269Q49 348 67 403Q85 458 119.5 491.5Q154 525 205.5 540Q257 555 325 555Q337 555 356.5 554.5Q376 554 398 551.5Q420 549 443.5 545.5Q467 542 487 536V454Q450 463 409 466.5Q368 470 344 470Q297 470 263 462Q229 454 206.5 432Q184 410 173 370.5Q162 331 162 269Q162 208 173.5 169.5Q185 131 206 109Q226 87 254 79Q282 71 314 71Q333 71 360.5 73Q388 75 414 82V234H285Z" glyph-name="g.small" horiz-adv-x="588" unicode="&#63335;" /><glyph d="M253 531Q239 541 224 544.5Q209 548 192 548Q153 548 135 526Q117 504 117 454Q117 402 133.5 381.5Q150 361 185 361Q203 361 222 370.5Q241 380 253 397ZM334 300Q334 257 319.5 231Q305 205 281.5 190.5Q258 176 229.5 171.5Q201 167 174 167Q153 167 118 171Q83 175 55 184V250Q85 241 114.5 236.5Q144 232 167 232Q212 232 232 247.5Q252 263 252 295V323H251Q234 309 213 303Q192 297 172 297Q101 297 66 335Q31 373 31 454Q31 532 70 571.5Q109 611 184 611Q201 611 226 606Q251 601 271 587L277 604H334Z" glyph-name="g.superior" horiz-adv-x="386" unicode="&#58215;" /><glyph d="M408 397Q388 416 358 425.5Q328 435 297 435Q228 435 196.5 397Q165 359 165 275Q165 186 195.5 151.5Q226 117 288 117Q323 117 355.5 136Q388 155 408 184ZM515 26Q515 -41 492.5 -82Q470 -123 434.5 -145Q399 -167 356 -174.5Q313 -182 271 -182Q253 -182 230 -181Q207 -180 182.5 -177Q158 -174 133.5 -169Q109 -164 89 -157V-69Q130 -82 174.5 -87.5Q219 -93 258 -93Q339 -93 373.5 -66Q408 -39 408 18V82H406Q374 53 338 41Q302 29 266 29Q159 29 105 88.5Q51 148 51 275Q51 521 290 521Q304 521 322 518.5Q340 516 358.5 511Q377 506 396 497.5Q415 489 431 476H433L446 510H515ZM330 566H237L347 678H480Z" glyph-name="gacute" horiz-adv-x="596" unicode="&#501;" /><glyph d="M285 318H521V28Q497 16 469.5 8Q442 0 415 -5Q388 -10 362.5 -12Q337 -14 316 -14Q250 -14 200 1.5Q150 17 116 51Q49 118 49 269Q49 348 67 403Q85 458 119.5 491.5Q154 525 205.5 540Q257 555 325 555Q337 555 356.5 554.5Q376 554 398 551.5Q420 549 443.5 545.5Q467 542 487 536V454Q450 463 409 466.5Q368 470 344 470Q297 470 263 462Q229 454 206.5 432Q184 410 173 370.5Q162 331 162 269Q162 208 173.5 169.5Q185 131 206 109Q226 87 254 79Q282 71 314 71Q333 71 360.5 73Q388 75 414 82V234H285ZM338 598H245L355 710H488Z" glyph-name="gacute.small" horiz-adv-x="588" unicode="&#59254;" /><glyph d="M289 623Q321 623 347 634.5Q373 646 380 678H468Q457 612 409 584Q361 556 289 556Q218 556 169.5 584.5Q121 613 111 678H198Q206 646 231.5 634.5Q257 623 289 623ZM408 397Q388 416 358 425.5Q328 435 297 435Q228 435 196.5 397Q165 359 165 275Q165 186 195.5 151.5Q226 117 288 117Q323 117 355.5 136Q388 155 408 184ZM515 26Q515 -41 492.5 -82Q470 -123 434.5 -145Q399 -167 356 -174.5Q313 -182 271 -182Q253 -182 230 -181Q207 -180 182.5 -177Q158 -174 133.5 -169Q109 -164 89 -157V-69Q130 -82 174.5 -87.5Q219 -93 258 -93Q339 -93 373.5 -66Q408 -39 408 18V82H406Q374 53 338 41Q302 29 266 29Q159 29 105 88.5Q51 148 51 275Q51 521 290 521Q304 521 322 518.5Q340 516 358.5 511Q377 506 396 497.5Q415 489 431 476H433L446 510H515Z" glyph-name="gbreve" horiz-adv-x="596" unicode="&#287;" /></font>
</defs>
</svg>
